<svg width="15" height="16" viewBox="0 0 15 16" fill="none" xmlns="http://www.w3.org/2000/svg">
<path d="M7.5 0.499878C3.36 0.499878 0 3.85988 0 7.99988C0 12.1399 3.36 15.4999 7.5 15.4999C11.64 15.4999 15 12.1399 15 7.99988C15 3.85988 11.64 0.499878 7.5 0.499878ZM10.98 5.59988C10.8675 6.78488 10.38 9.66488 10.1325 10.9924C10.0275 11.5549 9.8175 11.7424 9.6225 11.7649C9.1875 11.8024 8.8575 11.4799 8.4375 11.2024C7.7775 10.7674 7.4025 10.4974 6.765 10.0774C6.0225 9.58988 6.5025 9.31988 6.93 8.88488C7.0425 8.77238 8.9625 7.02488 9 6.86738C9.00521 6.84352 9.00452 6.81876 8.99798 6.79523C8.99145 6.7717 8.97927 6.75013 8.9625 6.73238C8.9175 6.69488 8.8575 6.70988 8.805 6.71738C8.7375 6.73238 7.6875 7.42988 5.64 8.80988C5.34 9.01238 5.07 9.11738 4.83 9.10988C4.56 9.10238 4.05 8.95988 3.6675 8.83238C3.195 8.68238 2.8275 8.59988 2.8575 8.33738C2.8725 8.20238 3.06 8.06738 3.4125 7.92488C5.6025 6.97238 7.0575 6.34238 7.785 6.04238C9.87 5.17238 10.2975 5.02238 10.5825 5.02238C10.6425 5.02238 10.785 5.03738 10.875 5.11238C10.95 5.17238 10.9725 5.25488 10.98 5.31488C10.9725 5.35988 10.9875 5.49488 10.98 5.59988Z" fill="#22364A"/>
</svg>
