<svg width="14" height="14" fill="none" xmlns="http://www.w3.org/2000/svg"><path d="M11.96 2.037A6.908 6.908 0 0 0 7.028 0C3.187 0 .056 3.115.056 6.937a6.93 6.93 0 0 0 .929 3.465L0 14l3.693-.966a7.001 7.001 0 0 0 3.335.847C10.87 13.88 14 10.766 14 6.944a6.876 6.876 0 0 0-2.04-4.907ZM7.028 12.705a5.835 5.835 0 0 1-2.955-.805l-.21-.126-2.196.574.584-2.128-.14-.217a5.764 5.764 0 0 1-.887-3.066c0-3.178 2.603-5.768 5.797-5.768a5.75 5.75 0 0 1 4.095 1.694 5.726 5.726 0 0 1 1.695 4.08c.014 3.179-2.589 5.762-5.783 5.762Zm3.18-4.312c-.176-.084-1.034-.504-1.189-.567-.162-.056-.274-.084-.394.084-.12.175-.45.567-.549.679-.098.119-.204.133-.38.042-.175-.084-.738-.273-1.4-.861-.52-.462-.865-1.03-.97-1.204-.099-.175-.014-.266.077-.357.077-.077.176-.203.26-.301.085-.098.12-.175.176-.287.056-.12.028-.217-.014-.301a57.472 57.472 0 0 1-.535-1.288c-.14-.336-.288-.294-.394-.301H4.56a.633.633 0 0 0-.465.217c-.154.175-.605.595-.605 1.449 0 .854.627 1.68.711 1.792.084.119 1.231 1.869 2.976 2.618.415.182.739.287.992.364.415.133.795.112 1.097.07.338-.05 1.034-.42 1.175-.826.148-.406.148-.75.099-.826-.05-.077-.155-.112-.331-.196Z" fill="#22364A"/></svg>