<svg width="27" height="24" viewBox="0 0 27 24" fill="none" xmlns="http://www.w3.org/2000/svg">
<path d="M13.5 4.5C9.36 4.5 6 7.86 6 12C6 16.14 9.36 19.5 13.5 19.5C17.64 19.5 21 16.14 21 12C21 7.86 17.64 4.5 13.5 4.5ZM16.98 9.6C16.8675 10.785 16.38 13.665 16.1325 14.9925C16.0275 15.555 15.8175 15.7425 15.6225 15.765C15.1875 15.8025 14.8575 15.48 14.4375 15.2025C13.7775 14.7675 13.4025 14.4975 12.765 14.0775C12.0225 13.59 12.5025 13.32 12.93 12.885C13.0425 12.7725 14.9625 11.025 15 10.8675C15.0052 10.8436 15.0045 10.8189 14.998 10.7954C14.9914 10.7718 14.9793 10.7503 14.9625 10.7325C14.9175 10.695 14.8575 10.71 14.805 10.7175C14.7375 10.7325 13.6875 11.43 11.64 12.81C11.34 13.0125 11.07 13.1175 10.83 13.11C10.56 13.1025 10.05 12.96 9.6675 12.8325C9.195 12.6825 8.8275 12.6 8.8575 12.3375C8.8725 12.2025 9.06 12.0675 9.4125 11.925C11.6025 10.9725 13.0575 10.3425 13.785 10.0425C15.87 9.1725 16.2975 9.0225 16.5825 9.0225C16.6425 9.0225 16.785 9.0375 16.875 9.1125C16.95 9.1725 16.9725 9.255 16.98 9.315C16.9725 9.36 16.9875 9.495 16.98 9.6Z" fill="#fff"/>
</svg>
