<svg width="27" height="24" viewBox="0 0 27 24" fill="none" xmlns="http://www.w3.org/2000/svg">
<path d="M18.9598 7.03704C18.3148 6.38879 17.5466 5.87481 16.6998 5.52508C15.8531 5.17535 14.9449 4.99686 14.0281 5.00004C10.1869 5.00004 7.05628 8.11503 7.05628 11.937C7.05628 13.162 7.3799 14.352 7.98492 15.402L7 19L10.6935 18.034C11.7136 18.587 12.8603 18.881 14.0281 18.881C17.8693 18.881 21 15.766 21 11.944C21 10.089 20.2754 8.34603 18.9598 7.03704ZM14.0281 17.705C12.9869 17.705 11.9668 17.425 11.0734 16.9L10.8623 16.774L8.66734 17.348L9.25126 15.22L9.11055 15.003C8.53208 14.0839 8.22492 13.0215 8.22412 11.937C8.22412 8.75903 10.8271 6.16904 14.0211 6.16904C15.5688 6.16904 17.0251 6.77104 18.1156 7.86303C18.6555 8.39781 19.0834 9.03389 19.3744 9.73443C19.6655 10.435 19.8139 11.186 19.8111 11.944C19.8251 15.122 17.2221 17.705 14.0281 17.705ZM17.208 13.393C17.0322 13.309 16.1739 12.889 16.0191 12.826C15.8573 12.77 15.7447 12.742 15.6251 12.91C15.5055 13.085 15.1749 13.477 15.0764 13.589C14.9779 13.708 14.8724 13.722 14.6965 13.631C14.5206 13.547 13.9578 13.358 13.2965 12.77C12.7759 12.308 12.4312 11.741 12.3256 11.566C12.2271 11.391 12.3116 11.3 12.403 11.209C12.4804 11.132 12.5789 11.006 12.6633 10.908C12.7477 10.81 12.7829 10.733 12.8392 10.621C12.8955 10.502 12.8673 10.404 12.8251 10.32C12.7829 10.236 12.4312 9.38203 12.2905 9.03203C12.1497 8.69603 12.002 8.73803 11.8965 8.73103H11.5588C11.4392 8.73103 11.2563 8.77303 11.0945 8.94803C10.9397 9.12303 10.4894 9.54303 10.4894 10.397C10.4894 11.251 11.1156 12.077 11.2 12.189C11.2844 12.308 12.4312 14.058 14.1759 14.807C14.591 14.989 14.9146 15.094 15.1678 15.171C15.5829 15.304 15.9628 15.283 16.2653 15.241C16.603 15.192 17.2995 14.821 17.4402 14.415C17.5879 14.009 17.5879 13.666 17.5387 13.589C17.4894 13.512 17.3839 13.477 17.208 13.393Z" fill="#22364A"/>
</svg>
