<svg width="26" height="20" viewBox="0 0 26 20" fill="none" xmlns="http://www.w3.org/2000/svg">
<path d="M25.4574 3.1242C25.3094 2.51923 25.0192 1.96753 24.6158 1.52432C24.2125 1.08111 23.7102 0.761928 23.1592 0.598726C21.1308 1.21487e-07 13 0 13 0C13 0 4.8692 -1.21487e-07 2.84085 0.595541C2.28957 0.758213 1.78699 1.07721 1.38359 1.52051C0.980185 1.9638 0.690158 2.51578 0.542634 3.12102C-1.10694e-07 5.35032 0 10 0 10C0 10 -1.10694e-07 14.6497 0.542634 16.8758C0.841518 18.1051 1.72366 19.0732 2.84085 19.4013C4.8692 20 13 20 13 20C13 20 21.1308 20 23.1592 19.4013C24.2792 19.0732 25.1585 18.1051 25.4574 16.8758C26 14.6497 26 10 26 10C26 10 26 5.35032 25.4574 3.1242ZM10.4174 14.2675V5.73248L17.1496 9.96815L10.4174 14.2675Z" fill="url(#paint0_linear_1011_2334)"/>
<defs>
<linearGradient id="paint0_linear_1011_2334" x1="23.6347" y1="3.99807" x2="4.27111" y2="0.741968" gradientUnits="userSpaceOnUse">
<stop stop-color="#7EA2BC"/>
<stop offset="1" stop-color="#4072A3"/>
</linearGradient>
</defs>
</svg>
