<svg width="144" height="17" viewBox="0 0 144 17" fill="none" xmlns="http://www.w3.org/2000/svg">
<path fill-rule="evenodd" clip-rule="evenodd" d="M51.4466 6.81467V3.81332H49.0151V0H45.9691V13.013C45.9705 13.9706 46.3487 14.8886 47.0209 15.5657C47.6932 16.2429 48.6045 16.6239 49.5551 16.6253H51.4466V13.5891H50.0951C49.8085 13.5884 49.5337 13.4732 49.3313 13.2687C49.1288 13.0643 49.0151 12.7873 49.0151 12.4985V6.81467H51.4466ZM14.5325 4.80427L14.6947 4.59258C15.0832 4.08878 15.6578 3.83688 16.4612 3.8208H17.4455V6.8275H15.6924C15.2215 6.8275 14.8836 6.92665 14.6894 7.13032C14.4814 7.3846 14.3794 7.71025 14.4048 8.03876V16.6328H11.3827V3.8208H14.043L14.5325 4.80427ZM33.4519 5.71279C34.6423 4.51365 36.2562 3.83904 37.9397 3.83691C39.5611 3.83844 41.1205 4.46469 42.2983 5.58727C43.476 6.70985 44.1828 8.24372 44.2739 9.87444V16.6328H37.9397C36.2557 16.6307 34.6414 15.9557 33.4509 14.756C32.2604 13.5563 31.591 11.9298 31.5896 10.2335C31.5917 8.5377 32.2614 6.91193 33.4519 5.71279ZM41.3981 13.7172V10.2335C41.3981 9.3096 41.0337 8.4235 40.3852 7.77018C39.7366 7.11686 38.8569 6.74983 37.9397 6.74983C37.0225 6.74983 36.1428 7.11686 35.4943 7.77018C34.8457 8.4235 34.4813 9.3096 34.4813 10.2335C34.4813 11.1575 34.8457 12.0436 35.4943 12.6969C36.1428 13.3502 37.0225 13.7172 37.9397 13.7172H41.3981ZM2.66993 5.67037C2.04778 6.24884 1.5555 6.95455 1.22608 7.74022C0.896658 8.5259 0.737707 9.3734 0.759845 10.226C0.739505 11.0843 0.899104 11.9372 1.22824 12.7291C1.55737 13.521 2.04863 14.2341 2.66993 14.8218C3.94421 16.017 5.76118 16.6226 8.06764 16.6226H9.64519V13.6266H8.06764C5.3914 13.6266 3.85907 12.3913 3.85907 10.2367C3.85907 8.08217 5.3914 6.84679 8.06764 6.84679H9.64519V3.84277H8.06764C5.74787 3.84277 3.9309 4.45911 2.66993 5.67037ZM66.3896 3.84277L63.2797 12.3993L60.1699 3.84277H56.9562L61.6038 16.6306H64.9557L69.6059 3.84277H66.3896ZM141.75 12.0879C141.152 12.0879 140.578 12.3275 140.155 12.7539C139.732 13.1803 139.495 13.7587 139.495 14.3617C139.495 14.9648 139.732 15.5431 140.155 15.9695C140.578 16.3959 141.152 16.6355 141.75 16.6355H144.001V14.2223C143.966 13.6444 143.714 13.1017 143.296 12.705C142.878 12.3083 142.325 12.0875 141.75 12.0879ZM53.1251 3.86523H56.1294V16.6317H53.1251V3.86523ZM136.192 5.29462C135.193 4.34944 133.87 3.82916 132.499 3.84219C131.124 3.82542 129.797 4.34713 128.796 5.2973L128.748 5.34554L128.698 5.29462C127.699 4.34801 126.376 3.82749 125.005 3.84219C124.239 3.83856 123.48 4.00028 122.781 4.3165V3.86362H119.778V16.6327H122.781V9.56887C122.813 7.75198 123.595 6.74974 125.005 6.74974C126.415 6.74974 127.256 7.80825 127.264 9.65194V16.6327H130.262V9.64657C130.262 7.77073 131.06 6.74706 132.491 6.74706C133.922 6.74706 134.75 7.81897 134.75 9.6707V16.6381H137.748V9.6707C137.756 7.72786 137.229 6.25398 136.192 5.29462ZM91.1354 3.81332V6.81467H88.7039V12.4985C88.7046 12.7875 88.8189 13.0645 89.0218 13.2689C89.2247 13.4733 89.4997 13.5884 89.7866 13.5891H91.1354V16.6253H89.2439C88.2935 16.6239 87.3825 16.2428 86.7107 15.5656C86.0389 14.8883 85.6612 13.9704 85.6605 13.013V0H88.7039V3.81332H91.1354ZM77.8551 12.9808C77.3247 13.4022 76.6823 13.6558 76.0089 13.7097H75.7242C75.1139 13.7076 74.5148 13.5438 73.9872 13.2348C73.4596 12.9258 73.0219 12.4824 72.7181 11.9491H81.8376L81.8668 11.8339C81.9924 11.338 82.0585 10.8288 82.0637 10.3171V10.2367V9.56143L82.0424 9.58019C81.9586 8.76955 81.721 7.98264 81.3428 7.26218L81.3295 7.23539C81.3108 7.19787 81.2896 7.16036 81.2683 7.12553L81.231 7.0612C81.2118 7.02255 81.1905 6.98499 81.1672 6.94865L81.1299 6.88702C80.5668 5.95481 79.7743 5.1848 78.8291 4.65149C77.884 4.11819 76.8182 3.83964 75.7349 3.8428H75.7346C75.5963 3.8428 75.4528 3.8428 75.2826 3.86154C73.6996 3.98523 72.2192 4.69862 71.1302 5.86249C70.0412 7.02637 69.4217 8.55724 69.3928 10.1564V10.2314V10.912L69.4167 10.8933C69.4993 11.7059 69.7369 12.4948 70.1164 13.2167V13.2381L70.1802 13.3506L70.2174 13.4176C70.2361 13.4552 70.2573 13.49 70.2786 13.5248L70.3159 13.5891C70.8799 14.5212 71.6729 15.291 72.6184 15.8243C73.5639 16.3575 74.63 16.6362 75.7136 16.6334C75.8493 16.6334 75.9929 16.6334 76.1658 16.6146C77.5556 16.5067 78.8717 15.9418 79.9115 15.0067L77.8684 12.9487L77.8551 12.9808ZM75.4369 6.76375H75.7242C76.4294 6.76073 77.1184 6.97643 77.6976 7.38155C78.2768 7.78667 78.7182 8.36157 78.9618 9.02816H72.4813C72.7093 8.40668 73.1084 7.86355 73.6319 7.46248C74.1553 7.0614 74.7815 6.81902 75.4369 6.76375ZM24.4529 13.7097C25.1263 13.6558 25.7687 13.4022 26.2991 12.9808L26.3257 12.9487L28.3688 15.0067C27.329 15.9418 26.0129 16.5067 24.6231 16.6146C24.4369 16.6334 24.3066 16.6334 24.1709 16.6334C23.0873 16.6362 22.0212 16.3575 21.0757 15.8243C20.1302 15.291 19.3371 14.5212 18.7731 13.5891L18.7359 13.5248L18.7357 13.5244L18.7356 13.5244L18.7356 13.5243C18.7144 13.4897 18.6933 13.455 18.6747 13.4176L18.6375 13.3506L18.5736 13.2381V13.2167C18.1941 12.4948 17.9566 11.7059 17.874 10.8933L17.85 10.912V10.2314V10.1564C17.879 8.55724 18.4985 7.02637 19.5875 5.86249C20.6765 4.69862 22.1569 3.98523 23.7399 3.86154C23.91 3.8428 24.0536 3.8428 24.1918 3.8428H24.1921C25.2755 3.83964 26.3413 4.11819 27.2864 4.65149C28.2315 5.1848 29.024 5.95481 29.5872 6.88702L29.6245 6.94865C29.6484 6.98617 29.6697 7.02368 29.691 7.0612L29.7256 7.12553C29.7468 7.16036 29.7681 7.19787 29.7867 7.23539V7.26218C30.165 7.98264 30.4025 8.76955 30.4864 9.58019L30.5077 9.56143V10.2367V10.3171C30.5025 10.8288 30.4364 11.338 30.3108 11.8339L30.2815 11.9491H21.1621C21.4659 12.4824 21.9035 12.9258 22.4312 13.2348C22.9588 13.5438 23.5579 13.7076 24.1682 13.7097H24.4529ZM24.1682 6.76375H23.8809C23.2261 6.82091 22.6008 7.06403 22.0776 7.46485C21.5544 7.86567 21.1549 8.40775 20.9253 9.02816H27.4058C27.1622 8.36157 26.7208 7.78667 26.1416 7.38155C25.5623 6.97643 24.8734 6.76073 24.1682 6.76375ZM111.729 3.83691C110.047 3.84117 108.435 4.51671 107.246 5.71562C106.057 6.91453 105.389 8.53909 105.387 10.2335C105.388 11.9298 106.057 13.5563 107.248 14.756C108.438 15.9557 110.053 16.6307 111.737 16.6328H118.071V9.87444C117.98 8.24233 117.272 6.7073 116.092 5.58451C114.913 4.46172 113.352 3.83639 111.729 3.83691ZM115.187 10.2335V13.7172H111.729C110.812 13.7172 109.932 13.3502 109.283 12.6969C108.635 12.0436 108.27 11.1575 108.27 10.2335C108.27 9.3096 108.635 8.4235 109.283 7.77018C109.932 7.11686 110.812 6.74983 111.729 6.74983C112.183 6.74948 112.633 6.83932 113.053 7.01424C113.473 7.18915 113.855 7.44571 114.176 7.76923C114.497 8.09276 114.752 8.47693 114.926 8.89976C115.1 9.3226 115.19 9.77582 115.19 10.2335H115.187ZM98.2433 13.7097C98.9159 13.6558 99.5575 13.4021 100.087 12.9808L100.124 12.9487L102.167 15.0067C101.128 15.9423 99.8115 16.5073 98.4215 16.6146C98.2513 16.6334 98.1076 16.6334 97.9693 16.6334C96.886 16.6365 95.8202 16.358 94.875 15.8246C93.9299 15.2913 93.1374 14.5213 92.5742 13.5891L92.5343 13.5248L92.4731 13.4176L92.4359 13.3506C92.4134 13.3143 92.3929 13.2768 92.3747 13.2381L92.3614 13.2166C91.9819 12.4948 91.7444 11.7059 91.6618 10.8933L91.6378 10.912V10.2314V10.1563C91.6631 8.55655 92.281 7.02404 93.3702 5.85946C94.4593 4.69489 95.9412 3.9823 97.525 3.86154C97.6978 3.84279 97.8414 3.84279 97.977 3.84279H97.9773C99.0609 3.83996 100.127 4.11861 101.072 4.65186C102.018 5.18512 102.811 5.95495 103.375 6.88701L103.412 6.94864L103.476 7.06119L103.511 7.12552C103.532 7.16036 103.553 7.19787 103.572 7.23538V7.26217C103.951 7.98215 104.189 8.76929 104.272 9.58018L104.295 9.56142V10.2367V10.3171C104.29 10.8288 104.224 11.338 104.099 11.8339L104.069 11.9491H94.9525C95.2555 12.4825 95.6926 12.9261 96.2198 13.2352C96.7471 13.5443 97.3459 13.7079 97.956 13.7097H98.2433ZM97.956 6.76374H97.6713C97.016 6.82042 96.3902 7.0633 95.8665 7.46415C95.3428 7.865 94.9429 8.40736 94.7131 9.02815H101.194C100.95 8.36135 100.509 7.78624 99.9297 7.38106C99.3504 6.97589 98.6612 6.76034 97.956 6.76374Z" fill="#848C98"/>
</svg>
