<svg width="24" height="14" fill="none" xmlns="http://www.w3.org/2000/svg"><path fill-rule="evenodd" clip-rule="evenodd" d="M23.435.972c.178-.548 0-.947-.787-.947h-2.619c-.66 0-.965.35-1.143.723 0 0-1.348 3.189-3.228 5.256-.61.598-.89.797-1.22.797-.179 0-.408-.2-.408-.747V.946C14.03.3 13.829 0 13.268 0H9.15c-.407 0-.661.299-.661.598 0 .623.94.772 1.042 2.516v3.789c0 .822-.15.972-.483.972-.89 0-3.05-3.214-4.346-6.876C4.45.274 4.194 0 3.533 0H.89C.127 0 0 .349 0 .722c0 .673.89 4.06 4.143 8.545 2.16 3.062 5.236 4.708 8.006 4.708 1.679 0 1.882-.374 1.882-.996v-2.317c0-.747.152-.872.686-.872.381 0 1.067.2 2.618 1.67C19.114 13.202 19.419 14 20.41 14h2.619c.762 0 1.118-.374.915-1.096-.229-.723-1.093-1.769-2.212-3.014-.61-.697-1.525-1.47-1.805-1.843-.38-.499-.279-.698 0-1.146-.025 0 3.178-4.434 3.508-5.93" fill="#848C98"/></svg>