<svg width="39" height="39" viewBox="0 0 39 39" fill="none" xmlns="http://www.w3.org/2000/svg">
<circle cx="19.5" cy="19.5" r="19.5" fill="url(#paint0_linear_1011_2053)"/>
<path d="M20.6 14C20.6 14.565 21.1865 15.4092 21.7797 16.1186C22.5433 17.0318 23.4551 17.8299 24.501 18.439C25.2841 18.8951 26.2355 19.3333 27 19.3333M27 19.3333C26.2355 19.3333 25.2841 19.7716 24.501 20.2277C23.4551 20.8367 22.5433 21.6348 21.7797 22.5481C21.1865 23.2574 20.6 24.1017 20.6 24.6667M27 19.3333H12.5H27Z" fill="url(#paint1_linear_1011_2053)"/>
<path d="M20.6 14C20.6 14.565 21.1865 15.4092 21.7797 16.1186C22.5433 17.0318 23.4551 17.8299 24.501 18.439C25.2841 18.8951 26.2355 19.3333 27 19.3333M27 19.3333C26.2355 19.3333 25.2841 19.7716 24.501 20.2277C23.4551 20.8367 22.5433 21.6348 21.7797 22.5481C21.1865 23.2574 20.6 24.1017 20.6 24.6667M27 19.3333H12.5" stroke="white" stroke-width="1.6"/>
<defs>
<linearGradient id="paint0_linear_1011_2053" x1="35.4521" y1="7.79623" x2="6.07685" y2="3.99653" gradientUnits="userSpaceOnUse">
<stop stop-color="#7EA2BC"/>
<stop offset="1" stop-color="#4072A3"/>
</linearGradient>
<linearGradient id="paint1_linear_1011_2053" x1="25.6809" y1="16.1323" x2="14.9096" y2="14.2383" gradientUnits="userSpaceOnUse">
<stop stop-color="#7EA2BC"/>
<stop offset="1" stop-color="#4072A3"/>
</linearGradient>
</defs>
</svg>
