<svg width="368" height="40" viewBox="0 0 368 40" fill="none" xmlns="http://www.w3.org/2000/svg">
<path d="M20 8.48486L20.0361 9.04889C20.4115 14.9104 25.2081 19.5946 31.25 20C25.2081 20.4054 20.4115 25.0897 20.0361 30.9511L20 31.5152L19.9639 30.9511C19.5885 25.0897 14.7919 20.4054 8.75 20C14.7919 19.5946 19.5885 14.9104 19.9639 9.04889L20 8.48486Z" fill="white"/>
<path d="M20 20H1342" stroke="white"/>
<path d="M283.25 8.48486L283.286 9.04889C283.661 14.9104 288.458 19.5946 294.5 20C288.458 20.4054 283.661 25.0897 283.286 30.9511L283.25 31.5152L283.214 30.9511C282.839 25.0897 278.042 20.4054 272 20C278.042 19.5946 282.839 14.9104 283.214 9.04889L283.25 8.48486Z" fill="white"/>
</svg>
