<svg width="44" height="44" viewBox="0 0 44 44" fill="none" xmlns="http://www.w3.org/2000/svg">
<path d="M27 23.4001C26.4703 23.4001 25.6789 23.9133 25.0138 24.4323C24.1576 25.1005 23.4094 25.8983 22.8384 26.8134C22.4109 27.4987 22 28.3312 22 29.0001M22 29.0001C22 28.3312 21.5891 27.4987 21.1616 26.8134C20.5906 25.8983 19.8424 25.1005 18.9861 24.4323C18.3211 23.9133 17.5296 23.4001 17 23.4001M22 29.0001V15.0001M43 22C43 33.598 33.598 43 22 43C10.402 43 1 33.598 1 22C1 10.402 10.402 1 22 1C33.598 1 43 10.402 43 22Z" stroke="white" stroke-width="1.6"/>
</svg>
