<svg width="48" height="48" fill="none" xmlns="http://www.w3.org/2000/svg"><path d="M24 13.66V42m3.294-27.553H38V42H10V14.447h10.706M12.47 9.723c.436 0 1.087-.433 1.635-.87a7.75 7.75 0 0 0 1.792-2.01c.353-.577.69-1.28.69-1.843 0 .564.338 1.266.692 1.844a7.742 7.742 0 0 0 1.79 2.009c.547.437 1.2.87 1.636.87m14.823-3.936c-.436 0-1.087.433-1.635.87a7.75 7.75 0 0 0-1.792 2.01c-.353.578-.69 1.28-.69 1.844 0-.564-.338-1.266-.692-1.844a7.75 7.75 0 0 0-1.79-2.01c-.547-.437-1.2-.87-1.636-.87" stroke="#fff" stroke-width="2"/></svg>