<svg width="48" height="48" fill="none" xmlns="http://www.w3.org/2000/svg"><path d="M24 15.391v.783m0-.783c0-2.49.963-4.88 2.678-6.64A9.022 9.022 0 0 1 33.143 6h.762v10.174c0 2.698-1.044 5.286-2.901 7.194A9.774 9.774 0 0 1 24 26.348m0-10.957c0-2.49-.963-4.88-2.678-6.64A9.022 9.022 0 0 0 14.857 6h-.762v10.174c0 2.698 1.044 5.286 2.901 7.194A9.774 9.774 0 0 0 24 26.348m0 0v14.87m0-14.87v14.087M24 42h-6.857c-2.425 0-4.75-.99-6.465-2.75A9.523 9.523 0 0 1 8 32.608h6.857c2.425 0 4.75.99 6.465 2.75A9.523 9.523 0 0 1 24 42Zm0 0h6.857c2.425 0 4.75-.99 6.465-2.75A9.523 9.523 0 0 0 40 32.608h-6.857c-2.425 0-4.75.99-6.465 2.75A9.523 9.523 0 0 0 24 42Z" stroke="#fff" stroke-width="2"/></svg>