<svg width="48" height="48" fill="none" xmlns="http://www.w3.org/2000/svg"><path d="M5 35.702h15.833m.792-7.872-3.167-12.596H16.19c-.962 0-1.902.291-2.694.834a4.727 4.727 0 0 0-1.744 2.208l-5.168 13.49M28.75 42c-1.583 0-2.77-2.362-2.77-2.362-1.188-2.361-1.188-3.936-1.188-6.298V30.98H13.708v-9.447M28.86 5c0 .52-.079 1.045-.326 1.504a6.015 6.015 0 0 1-2.22 2.318 6.06 6.06 0 0 1-3.105.853c1.228 0 2.427.372 3.436 1.067a6.01 6.01 0 0 1 2.215 2.821 5.975 5.975 0 0 1-1.232 6.723 6.07 6.07 0 0 1 6.76-1.225 6.034 6.034 0 0 1 2.839 2.203 5.981 5.981 0 0 1 1.073 3.417c0-2.291 1.29-4.283 3.189-5.295.46-.246.988-.324 1.512-.324M35.083 5.828a4.98 4.98 0 0 0-.341 7.384 5.034 5.034 0 0 0 3.788 1.46 5.052 5.052 0 0 0 3.637-1.8m-25.777-.787s-2.865-.877-3.378-2.796a2.77 2.77 0 0 1 .276-2.107 2.797 2.797 0 0 1 1.69-1.299 2.785 2.785 0 0 1 2.924.997c.22.29.382.62.474.971.513 1.92-1.523 4.11-1.523 4.11l-.46.124h-.003Z" stroke="#fff" stroke-width="2"/></svg>