<svg width="48" height="48" fill="none" xmlns="http://www.w3.org/2000/svg"><g clip-path="url(#a)"><path d="m16.22 31.78 15.558-15.56M4 44l3.696-3.696M44 4l-3.696 3.696M4.2 19.756 28.242 43.8l-.354.354-3.474-.416c-3.5-.42-7.044.276-10.196 1.852l-.824.41L2 34.606l.412-.824c1.576-3.152 2.272-6.696 1.852-10.196l-.416-3.474.352-.356ZM19.76 4.204l24.04 24.04.354-.354-.416-3.474c-.42-3.5.276-7.044 1.852-10.196l.41-.826L34.606 2l-.826.412c-3.15 1.576-6.696 2.272-10.194 1.852l-3.476-.416-.352.354.002.002Z" stroke="#fff" stroke-width="2"/></g><defs><clipPath id="a"><path fill="#fff" d="M0 0h48v48H0z"/></clipPath></defs></svg>