<svg width="117" height="112" viewBox="0 0 117 112" fill="none" xmlns="http://www.w3.org/2000/svg">
<g id="Group">
<path id="Vector" fill-rule="evenodd" clip-rule="evenodd" d="M4.21902 11.0281L4.21902 3.73031L36.1533 3.73667L36.1876 25.5881H37.0757L37.0668 24.1822L43.334 24.1886V23.0944L37.0668 23.0881L37.0655 3.73795L42.0808 3.73795L42.0821 0.545794V0.0890451L0.568848 0.0801392L0.568848 11.0281H1.0256H4.21902Z" fill="white"/>
<path id="Vector_2" fill-rule="evenodd" clip-rule="evenodd" d="M4.21902 41.1365V34.7496H36.1545V36.1173L37.0668 36.1173V34.7496H37.0757V32.9252L4.21902 32.9252L4.21902 24.7139H1.0256H0.568848L0.568848 41.1365H1.0256H4.21902Z" fill="white"/>
<path id="Vector_3" fill-rule="evenodd" clip-rule="evenodd" d="M100.015 39.3132V21.9974H99.5584H96.3649V32.9251H80.0339V34.7495H96.3649V39.3132V41.7763H99.5584H100.015V39.3132Z" fill="white"/>
<path id="Vector_4" fill-rule="evenodd" clip-rule="evenodd" d="M100.016 48.1622H99.5594H96.366V50.077V50.9001H98.9665H100.016V48.1622Z" fill="white"/>
<path id="Vector_5" fill-rule="evenodd" clip-rule="evenodd" d="M11.5168 95.4212L11.5168 92.2278H4.21902L4.21902 62.1205H42.9918V61.2083H37.0668V43.4167H36.1545V61.2083H4.21902V54.8215H1.0256H0.568848L0.568848 95.8767H11.5168V95.4212Z" fill="white"/>
<path id="Vector_6" fill-rule="evenodd" clip-rule="evenodd" d="M27.4854 95.8766H41.6344V94.8283V92.2277H27.4854V95.4211V95.8766Z" fill="white"/>
<path id="Vector_7" fill-rule="evenodd" clip-rule="evenodd" d="M89.0672 92.2275V95.421V95.8764H100.015V63.1076V61.848H98.9655L96.365 61.848V63.1076V63.7628H74.1955V61.7717H73.2833H73.1001V63.7628H67.6267V63.8073V64.8569H96.365V92.2275H89.0672Z" fill="white"/>
<path id="Vector_8" fill-rule="evenodd" clip-rule="evenodd" d="M90.4016 48.9855V50.0351V50.0809L96.3648 50.0771V48.9829L90.4016 48.9855Z" fill="white"/>
<path id="Vector_9" fill-rule="evenodd" clip-rule="evenodd" d="M58.3656 31.9507H55.7664V46.61H59.4153H62.6087V45.5603V45.5158H59.4153V34.7498H73.0999V32.9253H59.4153V31.9507H58.3656Z" fill="white"/>
<path id="Vector_10" fill-rule="evenodd" clip-rule="evenodd" d="M55.7664 3.74184V23.0881H50.6289V23.1339V24.1823H55.7664V24.6518H58.3656H59.4153V3.74184L96.3648 3.74947V11.0498H99.5583H100.015V0.101844L50.293 0.0903931V0.547142L50.2917 3.74057L56.0514 3.74184H55.7664Z" fill="white"/>
<path id="Vector_11" fill-rule="evenodd" clip-rule="evenodd" d="M55.7682 92.2276H55.3203V94.8282V95.8765H70.8218V95.421V92.2276H59.4171V61.2081H55.7682L55.7682 92.2276Z" fill="white"/>
<path id="Vector_12" fill-rule="evenodd" clip-rule="evenodd" d="M73.1017 36.5627V45.5157H70.8218V45.5603V46.6099H73.1017V52.6481H74.1971V50.0908L82.1921 50.0858V50.04V48.9903L74.1971 48.9954V36.5627H73.1017Z" fill="white"/>
<path id="Vector_13" d="M111.649 39.6213H110.28V40.9903H111.649V39.6213Z" fill="white"/>
<path id="Vector_14" d="M111.649 61.478H110.28V62.8469H111.649V61.478Z" fill="white"/>
<path id="Vector_15" d="M82.7366 52.9395C82.7366 57.6558 78.9134 61.479 74.197 61.479" stroke="white" stroke-width="0.5" stroke-linecap="round" stroke-linejoin="round"/>
<path id="Vector_16" d="M116.073 39.246H100.096V21.3132C100.096 21.284 100.08 21.2598 100.057 21.2458V11.8017C100.08 11.7877 100.096 11.7635 100.096 11.7342V0.101782C100.096 0.0572526 100.06 0.0216288 100.016 0.0216288L50.2939 0.0101782C50.2698 0.0101782 50.2494 0.0203565 50.2354 0.0368961L49.6107 0.0368961L46.4911 0.0368961L42.1425 0.0368961C42.1272 0.0203565 42.1068 0.00890596 42.0839 0.00890596L0.569411 0C0.524882 0 0.489258 0.0356239 0.489258 0.0801537L0.489258 11.0281C0.489258 11.0523 0.499436 11.0727 0.515976 11.0867L0.515976 24.6543C0.499436 24.6695 0.489258 24.6899 0.489258 24.7128L0.489258 41.1354C0.489258 41.1596 0.499436 41.1799 0.515976 41.1939L0.515976 54.7615C0.499436 54.7768 0.489258 54.7971 0.489258 54.82L0.489258 95.8753C0.489258 95.9198 0.524882 95.9554 0.569411 95.9554H11.5174C11.5416 95.9554 11.5619 95.9452 11.5759 95.9287H27.4247C27.44 95.9452 27.4603 95.9554 27.4832 95.9554H39.7417V111.933C39.7417 111.97 39.7722 112 39.8091 112H57.1439C57.1808 112 57.2113 111.97 57.2113 111.933V95.9554L70.8209 95.9554C70.8438 95.9554 70.8655 95.9452 70.8794 95.9287H89.0082C89.0234 95.9452 89.0438 95.9554 89.0667 95.9554H100.015C100.059 95.9554 100.095 95.9198 100.095 95.8753V63.1751H116.072C116.109 63.1751 116.14 63.1446 116.14 63.1077L116.14 39.3122C116.14 39.2753 116.109 39.2448 116.072 39.2448L116.073 39.246ZM99.5198 11.8017V21.2458C99.4969 21.2598 99.4803 21.284 99.4803 21.3132V21.9176H96.4078V11.1299H99.4803V11.7342C99.4803 11.7635 99.4969 11.7877 99.5198 11.8017ZM99.9358 22.0779V41.6965H96.4472V22.0779H99.9358ZM99.6394 21.9176V21.3934H99.9358V21.9176H99.6394ZM99.9358 41.8568V42.3809H99.6394V41.8568H99.9358ZM99.479 41.8568V42.4611C99.479 42.4904 99.4956 42.5145 99.5185 42.5285V47.4103C99.4956 47.4243 99.479 47.4484 99.479 47.4777V48.082H96.4065V41.8555H99.479V41.8568ZM96.4459 48.2436H99.9345V50.82H96.4459V48.2436ZM99.6394 48.0833V47.5591H99.9358V48.0833H99.6394ZM99.0325 50.9803H99.9485V51.1978H99.0325V50.9803ZM99.5986 47.3988V42.5412H99.974V47.3988H99.5986ZM99.5986 21.2331V11.8144H99.974V21.2331H99.5986ZM99.6381 11.6528V11.1286H99.9345V11.6528H99.6381ZM50.3741 0.547081V0.170486L99.9358 0.180664V10.9696H96.4472V3.74941C96.4472 3.70488 96.4116 3.66926 96.3671 3.66926L59.4162 3.66162C59.3717 3.66162 59.336 3.69725 59.336 3.74178V24.5716H55.8475V3.74178C55.8475 3.69725 55.8118 3.66162 55.7673 3.66162L50.3741 3.66162V0.547081ZM90.741 48.9052H90.4039C90.3924 48.9052 90.3822 48.9077 90.3721 48.9116C90.3682 48.9128 90.3657 48.9166 90.3619 48.9192H90.0922L90.0871 41.5438C90.0947 41.5323 90.1011 41.5196 90.1011 41.5056C90.1011 41.4687 90.0705 41.4382 90.0336 41.4382C88.0171 41.4382 86.1226 42.2257 84.6977 43.652C83.288 45.0629 82.5081 46.9332 82.4916 48.9243H82.2333C82.2206 48.9166 82.2078 48.9116 82.1913 48.9116H81.8541L74.2777 48.9166V36.6442H80.036C80.0806 36.6442 80.1162 36.6086 80.1162 36.5641V34.8198L96.2869 34.8312V41.7779C96.2869 41.8071 96.3034 41.8313 96.3263 41.8453V48.096C96.3034 48.11 96.2869 48.1342 96.2869 48.1635V48.9027L90.741 48.9065V48.9052ZM96.2869 49.9968L90.484 50.0006V49.0668L96.2869 49.063V49.9968ZM90.3237 49.9675H90.1062V49.0528H90.3237V49.9675ZM82.4903 49.9726H82.2727V49.0579H82.4903V49.9726ZM73.1823 52.5668V46.61C73.1823 46.5655 73.1467 46.5299 73.1021 46.5299H70.9011V45.596H73.1021C73.1467 45.596 73.1823 45.5604 73.1823 45.5158V36.643H74.1161V48.9955C74.1161 49.0286 74.1365 49.0579 74.1658 49.0693C74.1759 49.0731 74.1861 49.0757 74.1976 49.0757L82.1124 49.0706V50.0044H81.8554L74.1976 50.0095C74.1556 50.0095 74.1212 50.0426 74.1187 50.0833C74.1187 50.0859 74.1187 50.0871 74.1187 50.0897V52.5668H73.1848H73.1823ZM74.1161 52.7271V52.8582H73.3642V52.7271H74.1161ZM70.4558 45.4929C70.4189 45.4929 70.3884 45.5235 70.3884 45.5604V46.61C70.3884 46.624 70.3934 46.6367 70.4023 46.6482V54.0236C66.3387 53.9943 63.0409 50.6813 63.0409 46.61V45.5604C63.0409 45.5235 63.0104 45.4929 62.9735 45.4929H62.6847C62.6758 45.4599 62.6452 45.4344 62.6084 45.4344H59.4951V34.8287H73.0194V45.4344H70.8184C70.7815 45.4344 70.7522 45.4599 70.742 45.4929H70.4532H70.4558ZM70.7408 45.6265V46.5413H70.5232V45.6265H70.7408ZM62.9073 45.6265V46.5413H62.6898V45.6265H62.9073ZM59.336 32.0297V45.5146C59.336 45.5591 59.3717 45.5947 59.4162 45.5947H62.5295V46.5286H55.8475V32.0297H59.336ZM58.434 31.8694V31.6518H59.35V31.8694H58.434ZM59.4964 34.6684V33.0042H73.0207V34.6684H59.4964ZM73.181 36.4814V33.0042H79.9546V36.4814H73.181ZM80.1149 34.6569V33.0042L96.2856 33.0042V34.6684L80.1149 34.6569ZM96.2856 21.9965V32.8439L80.0742 32.8439C80.0628 32.8376 80.05 32.8325 80.0348 32.8325H73.1008C73.0869 32.8325 73.0741 32.8376 73.0614 32.8439H59.4951V31.9495C59.4951 31.9342 59.49 31.9202 59.4824 31.9075V31.6378H65.9468C65.9583 31.6454 65.971 31.6505 65.985 31.6505C66.0219 31.6505 66.0524 31.62 66.0524 31.5831C66.0524 27.9469 63.1122 24.985 59.4836 24.9494V24.6912C59.4913 24.6784 59.4964 24.6657 59.4964 24.6492V3.82193L96.2856 3.82956V11.0485C96.2856 11.0777 96.3022 11.1019 96.3251 11.1159V21.9278C96.3022 21.9418 96.2856 21.9659 96.2856 21.9952V21.9965ZM59.3488 24.7306V24.9482H58.4327V24.7306H59.3488ZM49.6629 0.143768L50.2138 0.143768V0.492373L49.6629 0.492373V0.143768ZM42.8206 0.142495L46.1883 0.142495L49.556 0.143768V0.493645L42.8206 0.492373V0.142495ZM42.1628 0.142495L42.7137 0.142495V0.4911L42.1628 0.4911V0.142495ZM42.1628 0.599244L42.7671 0.599244L49.6095 0.600516L50.2138 0.600516V3.68707L42.1628 3.68707V0.599244ZM42.1386 3.79521L50.2342 3.79521C50.2494 3.81048 50.2698 3.82066 50.2927 3.82066L55.6859 3.82066V6.71637C55.6375 6.6782 55.5777 6.65403 55.5103 6.65403C55.5103 6.65403 55.509 6.65403 55.5078 6.65403C55.5078 6.65403 55.5065 6.65403 55.5052 6.65403L55.3322 6.67057V5.5306C55.3322 5.5306 55.3322 5.52933 55.3322 5.52806C55.3322 5.52806 55.3322 5.52679 55.3322 5.52552L55.3131 5.30414C55.3131 5.30414 55.3131 5.30159 55.3131 5.30032C55.3131 5.29905 55.3131 5.29778 55.3131 5.29523L55.2584 5.08022C55.2584 5.08022 55.2571 5.07767 55.2558 5.0764C55.2558 5.07513 55.2558 5.07386 55.2558 5.07131L55.1668 4.86902C55.1668 4.86902 55.1642 4.86647 55.1642 4.8652C55.1642 4.86393 55.1642 4.86266 55.163 4.86138L55.0408 4.67945C55.0408 4.67945 55.0383 4.6769 55.037 4.67563C55.037 4.67563 55.0357 4.67309 55.0345 4.67181L54.8843 4.51405C54.8843 4.51405 54.8818 4.51278 54.8805 4.51151C54.8792 4.51151 54.878 4.50896 54.8767 4.50769L54.7024 4.38046C54.7024 4.38046 54.6999 4.38046 54.6973 4.37792C54.696 4.37792 54.6948 4.37537 54.6935 4.37537L54.5014 4.28122C54.5014 4.28122 54.4988 4.28122 54.4963 4.28122C54.495 4.28122 54.4938 4.27995 54.4912 4.27868L54.2864 4.22143C54.2864 4.22143 54.2825 4.22143 54.2813 4.22143C54.28 4.22143 54.2787 4.22143 54.2775 4.22015L54.0663 4.20107C54.0663 4.20107 54.065 4.20107 54.0637 4.20107C54.0637 4.20107 54.0624 4.20107 54.0612 4.20107L44.2074 4.20107C44.2074 4.20107 44.2061 4.20107 44.2048 4.20107C44.2048 4.20107 44.2035 4.20107 44.2023 4.20107L43.7582 4.24178C43.7582 4.24178 43.7557 4.24178 43.7532 4.24306C43.7519 4.24306 43.7493 4.24306 43.7481 4.24306L43.318 4.36392C43.318 4.36392 43.3155 4.36519 43.3129 4.36647C43.3117 4.36647 43.3104 4.36647 43.3091 4.36647L42.9058 4.56367C42.9058 4.56367 42.9033 4.56622 42.902 4.56622C42.9007 4.56622 42.8982 4.56622 42.8969 4.56876L42.5318 4.83721C42.5318 4.83721 42.5292 4.83976 42.528 4.84103C42.528 4.84103 42.5254 4.8423 42.5241 4.84357L42.2086 5.17437C42.2086 5.17437 42.2073 5.17691 42.2061 5.17818C42.2061 5.17818 42.2035 5.18073 42.2022 5.182L41.9465 5.56496C41.9465 5.56496 41.9465 5.5675 41.9452 5.56877C41.9452 5.57004 41.9427 5.57132 41.9427 5.57259L41.7544 5.99626C41.7544 5.99626 41.7544 5.9988 41.7544 6.00008C41.7544 6.00135 41.7531 6.00262 41.7519 6.00389L41.6361 6.45555C41.6361 6.45555 41.6361 6.45937 41.6361 6.46064C41.6361 6.46191 41.6361 6.46319 41.6361 6.46446L41.5966 6.93011C41.5966 6.93011 41.5966 6.93266 41.5966 6.93393C41.5966 6.9352 41.5966 6.93647 41.5966 6.93775L41.6361 7.4034C41.6361 7.4034 41.6361 7.40595 41.6361 7.40849C41.6361 7.40976 41.6361 7.41103 41.6361 7.41231L41.7519 7.86397C41.7519 7.86397 41.7531 7.86524 41.7531 7.86651C41.7531 7.86906 41.7531 7.87033 41.7544 7.87287L41.9427 8.29654C41.9427 8.29654 41.944 8.29782 41.9452 8.29909C41.9452 8.30036 41.9452 8.3029 41.9478 8.30418L42.2035 8.68713C42.2035 8.68713 42.2061 8.68841 42.2061 8.68968C42.2061 8.69095 42.2073 8.69349 42.2086 8.69477L42.5241 9.02556C42.5241 9.02556 42.5267 9.02683 42.528 9.0281C42.5292 9.0281 42.5305 9.03065 42.5318 9.03192L42.8969 9.30037C42.8969 9.30037 42.8995 9.30037 42.9007 9.30037C42.902 9.30037 42.9033 9.30292 42.9058 9.30419L43.3091 9.50139C43.3091 9.50139 43.3117 9.50139 43.3129 9.50139C43.3142 9.50139 43.3155 9.50394 43.318 9.50394L43.7481 9.6248C43.7481 9.6248 43.7532 9.6248 43.7557 9.6248C43.7557 9.6248 43.757 9.6248 43.7582 9.6248L44.2023 9.66552C44.2023 9.66552 44.2061 9.66552 44.2074 9.66552L54.0612 9.66552C54.0612 9.66552 54.065 9.66552 54.0663 9.66552L54.2775 9.64643C54.2775 9.64643 54.2787 9.64643 54.28 9.64643C54.2826 9.64643 54.2851 9.64643 54.2864 9.64643L54.4912 9.58918C54.4912 9.58918 54.4937 9.58791 54.4963 9.58663C54.4976 9.58663 54.4988 9.58663 54.5001 9.58663L54.6922 9.49249C54.6922 9.49249 54.696 9.48994 54.6973 9.48867C54.6973 9.48867 54.6999 9.48867 54.7011 9.48867L54.8754 9.36144C54.8754 9.36144 54.878 9.3589 54.8792 9.35763C54.8792 9.35763 54.8818 9.35635 54.8831 9.35508L55.0332 9.19732C55.0332 9.19732 55.0345 9.1935 55.0357 9.19223C55.0357 9.19223 55.0383 9.19096 55.0383 9.18968L55.1604 9.00775C55.1604 9.00775 55.1617 9.00393 55.163 9.00266C55.163 9.00266 55.1642 9.00139 55.1655 9.00011L55.2546 8.79782C55.2546 8.79782 55.2546 8.794 55.2558 8.79146C55.2558 8.79146 55.2571 8.79019 55.2571 8.78891L55.3118 8.5739C55.3118 8.5739 55.3118 8.57135 55.3118 8.57008C55.3118 8.56881 55.3118 8.56754 55.3118 8.56499L55.3309 8.34362C55.3309 8.34362 55.3309 8.34234 55.3309 8.34107C55.3309 8.3398 55.3309 8.3398 55.3309 8.33853V7.19856L55.5039 7.2151C55.5039 7.2151 55.5078 7.2151 55.509 7.2151C55.5752 7.2151 55.6363 7.19093 55.6846 7.15276V10.0739L41.2213 10.0739V3.81811H42.0801C42.103 3.81811 42.1221 3.80921 42.1374 3.79394L42.1386 3.79521ZM55.3335 6.79143V6.77744L55.5116 6.7609C55.607 6.7609 55.6846 6.83978 55.6846 6.9352C55.6846 7.03062 55.607 7.1095 55.5116 7.1095L55.3335 7.09296V7.07897C55.3335 7.07897 55.3373 7.06625 55.3373 7.05989V6.81179C55.3373 6.80543 55.336 6.79907 55.3335 6.79271V6.79143ZM55.1235 6.68965C55.0905 6.6922 55.0574 6.70365 55.0281 6.72019L54.5523 6.77998C54.5446 6.77998 54.5383 6.7838 54.5319 6.78635C54.4581 6.8067 54.4072 6.8754 54.4174 6.95301C54.4263 7.02426 54.4823 7.07897 54.5523 7.08788L55.0281 7.14767C55.0574 7.16421 55.0892 7.17566 55.1235 7.17821L55.2266 7.18839V8.33726L55.2088 8.55227L55.1566 8.75838L55.0701 8.95177L54.9543 9.12607L54.8105 9.2762L54.6439 9.39834L54.4607 9.4874L54.2647 9.5421L54.0612 9.56119L44.2112 9.56119L43.7761 9.52175L43.3549 9.40343L42.9605 9.21004L42.603 8.94668L42.2951 8.62352L42.0445 8.2482L41.86 7.83216L41.7468 7.38941L41.7086 6.93266L41.7468 6.47591L41.86 6.03315L42.0445 5.61712L42.2951 5.2418L42.603 4.91864L42.9605 4.65527L43.3549 4.46189L43.7761 4.34357L44.2112 4.30413L54.0612 4.30413L54.2647 4.32321L54.4607 4.37792L54.6439 4.46698L54.8105 4.58912L54.953 4.73925L55.0701 4.91355L55.1566 5.10693L55.2088 5.31304L55.2266 5.52806V6.67566L55.1235 6.68583V6.68965ZM55.2266 6.86395V7.00518H55.1477C55.1083 7.00518 55.0777 6.97337 55.0777 6.9352C55.0777 6.89703 55.1095 6.86523 55.1477 6.86523H55.2266V6.86395ZM54.9187 7.02681L54.5663 6.98228C54.5446 6.97973 54.5268 6.96192 54.5243 6.94029C54.523 6.92757 54.5256 6.91485 54.5345 6.90467C54.5421 6.89449 54.5535 6.88813 54.5663 6.88686L54.92 6.84233C54.8971 6.90085 54.8958 6.96701 54.92 7.02681H54.9187ZM55.6757 10.3373H53.5777C52.9225 10.3373 52.3092 10.6872 51.9734 11.2482C51.9734 11.2482 51.9734 11.2495 51.9721 11.2508C51.5459 11.8946 51.322 12.6427 51.322 13.4137C51.322 14.1847 51.5471 14.9328 51.9721 15.5765C51.9721 15.5765 51.9721 15.5778 51.9734 15.5791C52.308 16.1414 52.9225 16.4913 53.5777 16.4913H55.6757C55.6757 16.4913 55.6833 16.49 55.6871 16.4888V17.5587H52.0955C52.0662 17.5587 52.0421 17.5829 52.0421 17.6122V23.0054H50.6311C50.5942 23.0054 50.5649 23.0308 50.5548 23.0639H50.266C50.2291 23.0639 50.1985 23.0944 50.1985 23.1313V24.181C50.1985 24.195 50.2036 24.2077 50.2125 24.2191L50.2125 30.6823C46.6514 30.6531 43.7646 27.7484 43.7646 24.1822V23.1326C43.7646 23.0957 43.7341 23.0652 43.6972 23.0652H43.4084C43.3995 23.0321 43.3689 23.0067 43.332 23.0067H37.1475V3.81811L41.1157 3.81811V10.1274C41.1157 10.1566 41.1399 10.1808 41.1692 10.1808L55.6859 10.1808V10.3386C55.6859 10.3386 55.6782 10.336 55.6744 10.336L55.6757 10.3373ZM55.6871 10.476V16.3539C55.6871 16.3539 55.6808 16.359 55.6757 16.359H53.5777C52.9683 16.359 52.397 16.0333 52.0866 15.5104C52.0866 15.5104 52.0866 15.5104 52.0866 15.5091C51.6744 14.887 51.4568 14.163 51.4568 13.4175C51.4568 12.6719 51.6744 11.948 52.0866 11.3258C52.0866 11.3258 52.0866 11.3246 52.0866 11.3233C52.397 10.7991 52.9683 10.4747 53.5777 10.4747H55.6757C55.6757 10.4747 55.6833 10.4772 55.6871 10.4798V10.476ZM52.1489 23.0079V17.6682H55.6871V23.0079H52.1489ZM55.6871 23.1682V24.1021H50.7113V23.1682H55.6871ZM50.3334 24.0855V23.2H50.551V24.083C50.4721 24.0894 50.4212 24.0855 50.3334 24.0855ZM43.631 23.2V24.1148H43.4135V23.2H43.631ZM43.2532 23.1682V24.1021H42.6577H37.1488V23.1682H43.2532ZM0.649565 0.160307L42.0012 0.169213V0.545808V3.65908L36.1538 3.65908L4.21831 3.65145C4.17378 3.65145 4.13816 3.68707 4.13816 3.7316L4.13816 10.9492H0.649565L0.649565 0.160307ZM36.1551 61.2883C36.1996 61.2883 36.2352 61.2527 36.2352 61.2081V43.498H36.9872V43.755V61.2081C36.9872 61.2527 37.0228 61.2883 37.0673 61.2883H42.9122V62.0402L4.29974 62.0402V61.2883L36.1551 61.2883ZM36.0851 43.3504V43.1189H36.9999V43.3364H36.1538C36.1386 43.3364 36.1246 43.3415 36.1118 43.3504H36.0838H36.0851ZM37.0673 42.9853H36.0177C35.9808 42.9853 35.9503 43.0158 35.9503 43.0527V43.4179C35.9503 43.4547 35.9808 43.4853 36.0177 43.4853H36.0737V43.7563V61.1293L4.29974 61.1293V54.8226C4.29974 54.7984 4.28956 54.778 4.27302 54.764L4.27302 41.1964C4.28956 41.1812 4.29974 41.1608 4.29974 41.1379L4.29974 34.8312L36.0749 34.8312V36.0526H36.019C35.9821 36.0526 35.9515 36.0832 35.9515 36.12V36.4852C35.9515 36.5221 35.9821 36.5526 36.019 36.5526H37.0686C37.0826 36.5526 37.0953 36.5475 37.1068 36.5386H43.5687C43.5394 40.0997 40.6361 42.9865 37.0686 42.9865L37.0673 42.9853ZM36.9999 32.8452H36.0851V32.6276H36.9999V32.8452ZM36.9999 36.1989V36.4165H36.0851V36.1849H36.1131C36.1258 36.1926 36.1398 36.1989 36.1551 36.1989H37.0012H36.9999ZM36.9859 33.0055V33.3465V35.7803V36.0373H36.234V34.7485C36.234 34.704 36.1984 34.6684 36.1538 34.6684L4.29974 34.6684L4.29974 33.0042L36.9872 33.0042L36.9859 33.0055ZM37.066 32.4928H36.0164C35.9795 32.4928 35.949 32.5233 35.949 32.5602V32.8452L4.29974 32.8452V24.7141C4.29974 24.6899 4.28956 24.6695 4.27302 24.6555L4.27302 11.0879C4.28956 11.0727 4.29974 11.0523 4.29974 11.0294L4.29974 3.81048L36.0737 3.81684V25.2039V25.5588H36.0177C35.9808 25.5588 35.9503 25.5894 35.9503 25.6263V25.9914C35.9503 26.0283 35.9808 26.0589 36.0177 26.0589H37.0673C37.0813 26.0589 37.094 26.0538 37.1055 26.0461H43.5687C43.5394 29.606 40.6348 32.494 37.0686 32.494L37.066 32.4928ZM36.234 24.1848C36.234 24.1848 36.234 24.1835 36.234 24.1822V23.0881C36.234 23.0881 36.234 23.0868 36.234 23.0855V3.81811H36.9859V25.2039V25.5449H36.234V24.1848ZM36.9986 25.7064V25.924H36.0838V25.6924H36.1118C36.1246 25.7001 36.1386 25.7064 36.1538 25.7064H36.9999H36.9986ZM1.0796 41.2168H4.16488L4.16488 54.7411H1.0796L1.0796 41.2168ZM0.649565 41.0565L0.649565 24.7955H4.13816L4.13816 41.0565H0.649565ZM1.0796 24.6339L1.0796 11.1083H4.16488L4.16488 24.6326H1.0796V24.6339ZM0.622847 11.1083H0.972724L0.972724 11.6592H0.622847L0.622847 11.1083ZM0.622847 11.7661H0.972724L0.972724 17.3615H0.622847L0.622847 11.7661ZM0.622847 17.4684H0.972724V18.2738H0.622847L0.622847 17.4684ZM0.622847 18.3806H0.972724L0.972724 23.9761H0.622847L0.622847 18.3806ZM0.622847 24.083H0.972724L0.972724 24.6339H0.622847L0.622847 24.083ZM0.622847 41.2168H0.972724V41.7677H0.622847V41.2168ZM0.622847 41.8746H0.972724L0.972724 47.4701H0.622847L0.622847 41.8746ZM0.622847 47.5769H0.972724L0.972724 48.3823H0.622847L0.622847 47.5769ZM0.622847 48.4892H0.972724L0.972724 54.0847H0.622847L0.622847 48.4892ZM0.622847 54.1915H0.972724V54.7424H0.622847V54.1915ZM11.4372 95.7976H0.649565L0.649565 54.9015H4.13816L4.13816 92.2276C4.13816 92.2722 4.17378 92.3078 4.21831 92.3078H11.4372L11.4372 95.7964V95.7976ZM12.1484 95.8244H11.5975V95.4758H12.1484V95.8244ZM18.9908 95.8244H12.2553V95.4758H18.9908V95.8244ZM19.903 95.8244H19.0976V95.4758H19.903V95.8244ZM26.7453 95.8244H20.0099V95.4758H26.7453V95.8244ZM27.4031 95.8244H26.8522V95.4758H27.4031V95.8244ZM27.4031 95.3676H11.5975L11.5975 92.2811H27.4031V95.3676ZM27.5634 95.7976V92.3091H41.5534V95.7976H27.5634ZM57.0765 111.868H39.8752V108.718H57.0765V111.868ZM57.0765 108.583H39.8752V95.9567H41.958V102.354C41.958 102.375 41.9758 102.394 41.9987 102.394C42.0152 102.394 42.0254 102.383 42.0318 102.37C45.4491 102.352 48.2494 99.6819 48.4759 96.3155C48.7023 99.6806 51.5026 102.352 54.92 102.37C54.9263 102.384 54.9378 102.394 54.953 102.394C54.9747 102.394 54.9938 102.377 54.9938 102.354V95.9567H57.0765V108.583ZM41.7137 95.7964V94.9071H41.9185V95.7964H41.7137ZM55.0345 95.7964V94.9071H55.2393V95.7964H55.0345ZM70.7408 95.7964L55.3996 95.7964V92.3078H55.6566C55.6782 92.3078 55.6973 92.2989 55.7113 92.2849C55.7253 92.2989 55.7444 92.3078 55.766 92.3078C55.8106 92.3078 55.8462 92.2722 55.8462 92.2276L55.8462 61.2883H59.3348L59.3348 92.2276C59.3348 92.2722 59.3704 92.3078 59.4149 92.3078H70.7395V95.7964H70.7408ZM71.452 95.8231H70.9011V95.4745H71.452V95.8231ZM79.4355 95.8231H71.5588V95.4745H79.4355V95.8231ZM80.3478 95.8231H79.5424V95.4745H80.3478V95.8231ZM88.3313 95.8231H80.4546V95.4745H88.3313V95.8231ZM88.9891 95.8231H88.4382V95.4745H88.9891V95.8231ZM88.9891 95.3663H70.9024V92.2798H88.9891V95.3663ZM89.0107 92.1729H70.882C70.8667 92.1564 70.8464 92.1462 70.8235 92.1462H59.4989L59.4989 64.9232H59.7305V72.2999C59.7228 72.3113 59.7165 72.3241 59.7165 72.3381C59.7165 72.375 59.747 72.4055 59.7839 72.4055C63.9239 72.4055 67.2942 69.0556 67.3311 64.9245H67.5893C67.6021 64.9321 67.6148 64.9372 67.6313 64.9372H96.2907V92.1475H89.0718C89.0489 92.1475 89.0273 92.1576 89.0133 92.1742L89.0107 92.1729ZM59.4989 64.7884V63.8723H59.7165V64.7884H59.4989ZM67.3323 64.7884V63.8723H67.5499V64.7884H67.3323ZM74.1187 61.8494V63.7603C74.1187 63.8049 74.1543 63.8405 74.1988 63.8405L96.2894 63.8405V64.7744H67.7102V63.8405H73.1034C73.1479 63.8405 73.1835 63.8049 73.1835 63.7603V61.8494H74.1174H74.1187ZM73.3668 61.6891V61.558H74.1187V61.6891H73.3668ZM99.9383 95.7951H89.1507V92.3065H96.3696C96.4141 92.3065 96.4497 92.2709 96.4497 92.2264V61.927H99.9383V95.7951ZM99.9511 61.7654H99.035V61.5479H99.9511V61.7654ZM100.057 61.427C100.045 61.4193 100.032 61.413 100.018 61.413H98.9689C98.932 61.413 98.9014 61.4435 98.9014 61.4804V61.7654H96.3683C96.3238 61.7654 96.2882 61.801 96.2882 61.8456V63.6802L74.2777 63.6802V61.4779C74.2777 61.4333 74.2421 61.3977 74.1976 61.3977H73.2853C73.2408 61.3977 73.2052 61.4333 73.2052 61.4779V61.6903H73.1034C73.0589 61.6903 73.0232 61.726 73.0232 61.7705V63.6815H67.63C67.5931 63.6815 67.5639 63.7069 67.5537 63.74H67.2649C67.228 63.74 67.1975 63.7705 67.1975 63.8074V64.857C67.1975 68.9271 63.8997 72.2414 59.8361 72.2694V64.8952C59.8437 64.8838 59.8501 64.871 59.8501 64.857V63.8074C59.8501 63.7705 59.8195 63.74 59.7826 63.74H59.4976V61.2069C59.4976 61.1623 59.462 61.1267 59.4175 61.1267H55.7686C55.724 61.1267 55.6884 61.1623 55.6884 61.2069L55.6884 92.1526C55.6795 92.1487 55.6693 92.1462 55.6592 92.1462H55.322C55.2775 92.1462 55.2419 92.1818 55.2419 92.2264V94.7467H54.9569C54.9123 94.7467 54.8767 94.7824 54.8767 94.8269V95.8765C54.8767 95.9058 54.8932 95.93 54.9174 95.944V102.336C51.3728 102.314 48.4962 99.4249 48.4962 95.8753C48.4962 95.8663 48.4886 95.8587 48.4797 95.8587C48.4708 95.8587 48.4631 95.8663 48.4631 95.8753C48.4631 99.4249 45.5865 102.313 42.0419 102.336V95.944C42.0661 95.93 42.0827 95.9058 42.0827 95.8765V94.8269C42.0827 94.7824 42.047 94.7467 42.0025 94.7467H41.7175V92.2264C41.7175 92.1818 41.6819 92.1462 41.6374 92.1462H27.487C27.4629 92.1462 27.4425 92.1564 27.4285 92.1729H11.5772C11.5619 92.1564 11.5416 92.1462 11.5187 92.1462H4.29974L4.29974 62.1993L42.9923 62.1993C43.0369 62.1993 43.0725 62.1636 43.0725 62.1191V61.2069C43.0725 61.1623 43.0369 61.1267 42.9923 61.1267H37.1475V43.4166C37.1475 43.4013 37.1411 43.3873 37.1335 43.3746V43.1163C40.762 43.0794 43.7023 40.1188 43.7023 36.4826C43.7023 36.4458 43.6717 36.4152 43.6348 36.4152C43.6208 36.4152 43.6081 36.4203 43.5967 36.4279H37.1322V36.1582C37.1398 36.1455 37.1462 36.1315 37.1462 36.1162V32.9228C37.1462 32.9075 37.1398 32.8935 37.1322 32.8808V32.6225C40.7608 32.5869 43.701 29.6251 43.701 25.9889C43.701 25.952 43.6705 25.9214 43.6336 25.9214C43.6196 25.9214 43.6068 25.9265 43.5954 25.9354H37.1309V25.6657C37.1386 25.653 37.1449 25.639 37.1449 25.6237V24.2611H43.3295C43.3448 24.2611 43.3587 24.256 43.3715 24.2484H43.6297C43.6654 27.8769 46.6272 30.8172 50.2634 30.8172C50.3003 30.8172 50.3308 30.7866 50.3308 30.7498C50.3308 30.7358 50.3258 30.723 50.3169 30.7116L50.3169 24.2191C50.3169 24.2191 50.3194 24.214 50.3207 24.2115C50.5306 24.209 50.3207 24.2115 50.5802 24.2115C50.5917 24.242 50.5929 24.2624 50.6273 24.2624H55.6833V24.6504C55.6833 24.695 55.719 24.7306 55.7635 24.7306H58.2966V25.0156C58.2966 25.0525 58.3271 25.083 58.364 25.083H59.4137C62.9811 25.083 65.8857 27.9711 65.9137 31.5309H59.4518C59.4404 31.5233 59.4277 31.5169 59.4137 31.5169H58.364C58.3271 31.5169 58.2966 31.5475 58.2966 31.5844V31.8694H55.7635C55.719 31.8694 55.6833 31.905 55.6833 31.9495V46.61C55.6833 46.6545 55.719 46.6902 55.7635 46.6902H62.6058C62.6211 46.6902 62.6351 46.6851 62.6478 46.6762H62.9061C62.9417 50.8073 66.3132 54.1572 70.4532 54.1572C70.4901 54.1572 70.5207 54.1266 70.5207 54.0897C70.5207 54.0757 70.5156 54.063 70.5067 54.0516V46.6749H70.7764C70.7891 46.6825 70.8018 46.6889 70.8184 46.6889H73.0194V52.6457C73.0194 52.6902 73.0551 52.7259 73.0996 52.7259H73.2014V52.9371C73.2014 52.9816 73.237 53.0172 73.2815 53.0172H74.1937C74.223 53.0172 74.2472 53.0007 74.2612 52.9765H82.7333C82.7549 52.9765 82.774 52.9587 82.774 52.9358C82.774 52.9129 82.7562 52.8951 82.7333 52.8951H74.2739V50.166L82.1888 50.1609C82.2002 50.1609 82.2104 50.1584 82.2206 50.1546C82.2435 50.1457 82.2587 50.1253 82.2651 50.1024H82.5539C82.5628 50.1024 82.5717 50.0999 82.5806 50.0973C82.6048 50.0871 82.6213 50.063 82.6213 50.0363V48.9866C82.6201 47.0057 83.3898 45.1443 84.7893 43.7423C86.1761 42.3542 88.0171 41.5832 89.9777 41.5692L89.9827 48.9446C89.9751 48.9561 89.9687 48.9688 89.9687 48.9828V50.0324C89.9687 50.0604 89.9853 50.0833 90.0095 50.0935C90.0171 50.0973 90.026 50.0986 90.0349 50.0986H90.3237C90.3301 50.1215 90.3466 50.1419 90.3682 50.1508C90.3784 50.1546 90.3886 50.1571 90.4 50.1571H90.7372L96.2831 50.1533V50.895C96.2831 50.9396 96.3187 50.9752 96.3632 50.9752H98.8963V51.2602C98.8963 51.2971 98.9269 51.3276 98.9638 51.3276H100.013C100.027 51.3276 100.04 51.3225 100.052 51.3136H108.081C108.052 55.7386 104.445 59.329 100.013 59.329C99.9765 59.329 99.946 59.3595 99.946 59.3964C99.946 59.4333 99.9765 59.4639 100.013 59.4639C101.106 59.4639 101.997 60.3392 102.026 61.4257H100.052L100.057 61.427ZM112.725 63.039H100.099V61.8456C100.099 61.8303 100.094 61.8163 100.086 61.8036V61.5339H102.063C102.074 61.5415 102.087 61.5479 102.101 61.5479C102.138 61.5479 102.169 61.5173 102.169 61.4804C102.169 60.5262 101.543 59.7158 100.68 59.4359C104.895 59.0974 108.222 55.563 108.222 51.2615C108.222 51.2246 108.192 51.194 108.155 51.194C108.141 51.194 108.128 51.1991 108.117 51.208H100.086V50.9383C100.094 50.9256 100.099 50.9129 100.099 50.8963V47.4752C100.099 47.4459 100.082 47.4217 100.059 47.4077V42.526C100.082 42.512 100.099 42.4878 100.099 42.4585V39.3784H112.725L112.725 63.0402V63.039ZM116.01 63.039H112.86L112.86 39.3771H116.01L116.01 63.039Z" fill="white"/>
<path id="Vector_17" d="M111.648 39.5412H110.279C110.235 39.5412 110.199 39.5768 110.199 39.6214V40.9903C110.199 41.0349 110.235 41.0705 110.279 41.0705H111.648C111.693 41.0705 111.729 41.0349 111.729 40.9903V39.6214C111.729 39.5768 111.693 39.5412 111.648 39.5412ZM111.568 40.9102H110.36V39.7028H111.568V40.9102Z" fill="white"/>
<path id="Vector_18" d="M111.648 61.3974H110.279C110.235 61.3974 110.199 61.433 110.199 61.4776V62.8465C110.199 62.8911 110.235 62.9267 110.279 62.9267H111.648C111.693 62.9267 111.729 62.8911 111.729 62.8465V61.4776C111.729 61.433 111.693 61.3974 111.648 61.3974ZM111.568 62.7664H110.36V61.5577H111.568V62.7664Z" fill="white"/>
<g id="Group_2">
<path id="Vector_19" d="M78.2105 35.5704C78.67 35.5704 79.0426 35.1979 79.0426 34.7383C79.0426 34.2788 78.67 33.9062 78.2105 33.9062C77.7509 33.9062 77.3784 34.2788 77.3784 34.7383C77.3784 35.1979 77.7509 35.5704 78.2105 35.5704Z" fill="white"/>
<path id="Vector_20" d="M74.9258 35.5704C75.3854 35.5704 75.7579 35.1979 75.7579 34.7383C75.7579 34.2788 75.3854 33.9062 74.9258 33.9062C74.4663 33.9062 74.0938 34.2788 74.0938 34.7383C74.0938 35.1979 74.4663 35.5704 74.9258 35.5704Z" fill="white"/>
<path id="Vector_21" d="M78.2102 35.5707C78.6694 35.5707 79.0422 35.1966 79.0422 34.7386C79.0422 34.2806 78.6694 33.9065 78.2102 33.9065C77.7509 33.9065 77.3781 34.2793 77.3781 34.7386C77.3781 35.1979 77.7521 35.5707 78.2102 35.5707ZM79.2038 34.7386C79.2038 35.2857 78.7585 35.731 78.2102 35.731C77.6618 35.731 77.2178 35.2857 77.2178 34.7386C77.2178 34.1915 77.6631 33.7449 78.2102 33.7449C78.7572 33.7449 79.2038 34.1915 79.2038 34.7386Z" fill="white"/>
<path id="Vector_22" d="M79.2252 34.7383C79.2252 34.1785 78.7698 33.7231 78.21 33.7231C77.6502 33.7231 77.1959 34.1785 77.1959 34.7383C77.1959 35.2981 77.6514 35.7523 78.21 35.7523C78.7685 35.7523 79.2252 35.2969 79.2252 34.7383ZM78.21 33.5627C78.8588 33.5627 79.3855 34.0895 79.3855 34.7383C79.3855 35.3872 78.8588 35.9126 78.21 35.9126C77.5611 35.9126 77.0356 35.3859 77.0356 34.7383C77.0356 34.0907 77.5624 33.5627 78.21 33.5627Z" fill="white"/>
<path id="Vector_23" d="M79.5908 34.7381C79.5908 33.9773 78.9712 33.3577 78.2104 33.3577C77.4495 33.3577 76.8312 33.9773 76.8312 34.7381C76.8312 35.4989 77.4495 36.1173 78.2104 36.1173C78.9712 36.1173 79.5908 35.4989 79.5908 34.7381ZM78.2104 33.1974C79.0602 33.1974 79.7511 33.8882 79.7511 34.7381C79.7511 35.588 79.0602 36.2776 78.2104 36.2776C77.3605 36.2776 76.6709 35.5867 76.6709 34.7381C76.6709 33.8895 77.3617 33.1974 78.2104 33.1974Z" fill="white"/>
<path id="Vector_24" d="M74.9262 35.5707C75.3842 35.5707 75.7583 35.1966 75.7583 34.7386C75.7583 34.2806 75.3842 33.9065 74.9262 33.9065C74.4682 33.9065 74.0941 34.2793 74.0941 34.7386C74.0941 35.1979 74.4669 35.5707 74.9262 35.5707ZM75.9186 34.7386C75.9186 35.2857 75.4733 35.731 74.9262 35.731C74.3791 35.731 73.9338 35.2857 73.9338 34.7386C73.9338 34.1915 74.3791 33.7449 74.9262 33.7449C75.4733 33.7449 75.9186 34.1915 75.9186 34.7386Z" fill="white"/>
<path id="Vector_25" d="M73.7502 34.7383C73.7502 34.0895 74.2782 33.5627 74.9258 33.5627C75.5734 33.5627 76.1001 34.0895 76.1001 34.7383C76.1001 35.3872 75.5734 35.9126 74.9258 35.9126C74.2782 35.9126 73.7502 35.3859 73.7502 34.7383ZM75.9398 34.7383C75.9398 34.1785 75.4844 33.7231 74.9258 33.7231C74.3673 33.7231 73.9106 34.1785 73.9106 34.7383C73.9106 35.2981 74.366 35.7523 74.9258 35.7523C75.4856 35.7523 75.9398 35.2969 75.9398 34.7383Z" fill="white"/>
<path id="Vector_26" d="M76.4662 34.7382C76.4662 35.5868 75.7753 36.2776 74.9267 36.2776C74.0781 36.2776 73.386 35.5868 73.386 34.7382C73.386 33.8896 74.0768 33.1974 74.9267 33.1974C75.7766 33.1974 76.4662 33.8883 76.4662 34.7382ZM74.9267 36.1173C75.6875 36.1173 76.3059 35.499 76.3059 34.7382C76.3059 33.9774 75.6875 33.3578 74.9267 33.3578C74.1659 33.3578 73.5463 33.9774 73.5463 34.7382C73.5463 35.499 74.1659 36.1173 74.9267 36.1173Z" fill="white"/>
</g>
<path id="Vector_27" d="M42.95 13.4481C42.4755 13.2115 41.9462 13.1161 41.4195 13.1733L39.5543 13.3743C39.5721 13.1097 39.394 12.8642 39.1281 12.8107C39.0937 12.8031 39.0568 12.8005 39.0212 12.8005C38.6052 12.8005 38.1904 12.8998 37.8189 13.0881C37.8189 13.0881 37.8164 13.0881 37.8164 13.0893C37.8138 13.0893 37.8126 13.0919 37.8113 13.0932C37.8075 13.0957 37.8036 13.0983 37.8011 13.1008C37.7986 13.1033 37.7973 13.1059 37.796 13.1084C37.7935 13.1122 37.7922 13.1148 37.7909 13.1186C37.7909 13.1224 37.7897 13.125 37.7884 13.1288C37.7884 13.1313 37.7871 13.1339 37.7871 13.1364V16.583C37.7871 16.583 37.7871 16.5881 37.7884 16.5907C37.7884 16.5945 37.7884 16.597 37.7909 16.6008C37.7922 16.6047 37.7947 16.6072 37.796 16.611C37.7973 16.6136 37.7986 16.6161 37.8011 16.6187C37.8036 16.6212 37.8075 16.6237 37.8113 16.6263C37.8126 16.6263 37.8138 16.6288 37.8164 16.6301C37.8164 16.6301 37.8189 16.6301 37.8189 16.6314C38.1904 16.8197 38.6052 16.9189 39.0212 16.9189C39.3177 16.9189 39.5581 16.6772 39.5581 16.3807C39.5581 16.368 39.5556 16.3566 39.5543 16.3451L41.4195 16.5461C41.5187 16.5563 41.6179 16.5627 41.7172 16.5627C42.1434 16.5627 42.5658 16.4634 42.9513 16.2726C43.7274 15.8871 44.0455 14.9392 43.66 14.1606C43.5086 13.854 43.2566 13.6008 42.9513 13.4481H42.95ZM39.539 13.4838L40.8991 13.3374C40.5505 13.4265 40.2159 13.5779 39.9131 13.7904C39.9131 13.7904 39.9118 13.7929 39.9105 13.7929C39.908 13.7955 39.9055 13.798 39.9029 13.8018C39.9004 13.8044 39.8991 13.8069 39.8978 13.8095C39.8965 13.812 39.8953 13.8158 39.894 13.8196C39.894 13.8235 39.8927 13.826 39.8915 13.8298C39.8915 13.8311 39.8915 13.8324 39.8915 13.8349V15.8884C39.8915 15.8884 39.8915 15.8909 39.8915 15.8935C39.8915 15.8973 39.8915 15.8998 39.894 15.9036C39.894 15.9074 39.8965 15.91 39.8978 15.9138C39.8991 15.9164 39.9016 15.9189 39.9029 15.9214C39.9055 15.924 39.908 15.9278 39.9105 15.9291C39.9105 15.9291 39.9118 15.9316 39.9131 15.9316C40.2159 16.1441 40.5518 16.2955 40.9004 16.3846L39.539 16.2382C39.3596 15.3247 39.3596 14.3985 39.539 13.485V13.4838ZM42.8699 16.111C41.9386 16.5385 40.8406 16.4405 39.9971 15.8591V13.8642C40.8406 13.2827 41.9386 13.1848 42.8699 13.6123C43.1396 13.7471 43.3622 13.971 43.4971 14.242C43.8381 14.9316 43.5556 15.77 42.8699 16.1123V16.111ZM39.0199 16.8146C38.6306 16.8146 38.2413 16.723 37.8914 16.5512V13.172C38.2413 13.0003 38.6306 12.9087 39.0199 12.9087C39.0492 12.9087 39.0772 12.9112 39.1052 12.9176C39.3367 12.9647 39.4881 13.1937 39.4411 13.4265C39.2477 14.3794 39.2477 15.3464 39.4411 16.2993C39.4474 16.3273 39.45 16.3566 39.45 16.3846C39.45 16.6225 39.2579 16.8159 39.0199 16.8159V16.8146Z" fill="white"/>
<path id="Vector_28" d="M55.1281 13.1198C55.1281 13.1198 55.1256 13.1198 55.1243 13.1198H55.1218L54.7401 13.1567C54.7083 13.1592 54.6778 13.1707 54.6485 13.1846V11.2711C54.6485 10.9823 54.4144 10.7482 54.1256 10.7482H53.5785C53.5785 10.7482 53.5734 10.7482 53.5709 10.7495C53.5683 10.7495 53.5671 10.7495 53.5645 10.7495L53.0632 10.8551C53.0632 10.8551 53.0556 10.8589 53.0518 10.8602C53.048 10.8615 53.0429 10.8627 53.0391 10.8653L52.5785 11.1732C52.5785 11.1732 52.5734 11.1783 52.5709 11.1808C52.5683 11.1833 52.5658 11.1846 52.5632 11.1872L52.1803 11.6719C52.1803 11.6719 52.1777 11.677 52.1765 11.6795C52.1752 11.6821 52.1726 11.6834 52.1714 11.6859L51.8978 12.308C51.8978 12.308 51.8978 12.3131 51.8966 12.3157C51.8966 12.3182 51.894 12.3195 51.894 12.322L51.7515 13.032C51.7515 13.032 51.7515 13.0358 51.7515 13.0383C51.7515 13.0409 51.7502 13.0422 51.7502 13.0447V13.7852C51.7502 13.7852 51.7502 13.7903 51.7515 13.7915C51.7515 13.7941 51.7515 13.7953 51.7515 13.7979L51.894 14.5078C51.894 14.5078 51.8966 14.5129 51.8966 14.5155C51.8966 14.518 51.8966 14.5193 51.8978 14.5218L52.1714 15.144C52.1714 15.144 52.1739 15.1465 52.1752 15.1478C52.1765 15.1516 52.1777 15.1554 52.1803 15.158L52.5632 15.6427C52.5632 15.6427 52.567 15.6452 52.5696 15.6478C52.5721 15.6503 52.5747 15.6541 52.5785 15.6567L53.0391 15.9646C53.0391 15.9646 53.0403 15.9646 53.0416 15.9646C53.048 15.9684 53.0543 15.9722 53.0632 15.9735L53.5645 16.0791C53.5645 16.0791 53.5734 16.0804 53.5785 16.0804H54.1256C54.4144 16.0804 54.6485 15.8463 54.6485 15.5575V13.6439C54.6778 13.6579 54.7083 13.6694 54.7401 13.6719L55.1218 13.7088C55.1218 13.7088 55.1256 13.7088 55.1281 13.7088C55.291 13.7088 55.4233 13.5765 55.4233 13.4137C55.4233 13.2508 55.291 13.1185 55.1281 13.1185V13.1198ZM54.1841 13.4493C54.1676 13.4467 54.1561 13.4353 54.1536 13.4187C54.151 13.3997 54.165 13.3819 54.1841 13.3793L54.5136 13.3386V13.3462C54.5009 13.3908 54.5009 13.4378 54.5136 13.4824V13.49L54.1841 13.448V13.4493ZM54.8343 13.4722H54.7655C54.7337 13.4722 54.7083 13.4467 54.7083 13.4149C54.7083 13.3831 54.7337 13.3577 54.7655 13.3577H54.8343V13.4722ZM54.1243 15.948H53.5836L53.1027 15.8463L52.6612 15.5524L52.2897 15.0829L52.0225 14.4747L51.8826 13.7788V13.0511L52.0225 12.3551L52.2897 11.747L52.6612 11.2775L53.1027 10.9836L53.5836 10.8818H54.1243C54.3393 10.8818 54.5136 11.0561 54.5136 11.2711V13.2037L54.1676 13.247C54.0747 13.2584 54.0098 13.3437 54.0213 13.4353C54.0314 13.5116 54.0912 13.5714 54.1676 13.5816L54.5136 13.6249V15.5575C54.5136 15.7725 54.3393 15.9468 54.1243 15.9468V15.948ZM55.1281 13.5752L54.9628 13.56C54.9653 13.5536 54.9666 13.546 54.9666 13.5383V13.2902C54.9666 13.2826 54.964 13.2763 54.9628 13.2686L55.1281 13.2534C55.2172 13.2534 55.2885 13.3259 55.2885 13.4149C55.2885 13.504 55.2172 13.5752 55.1281 13.5765V13.5752Z" fill="white"/>
</g>
</svg>
