<svg width="292" height="283" viewBox="0 0 292 283" fill="none" xmlns="http://www.w3.org/2000/svg">
<path d="M291.07 98.8315L250.835 98.8315V53.6721C250.835 53.5985 250.794 53.5376 250.736 53.5023V29.7196C250.794 29.6844 250.835 29.6235 250.835 29.5498V0.256314C250.835 0.144177 250.746 0.0544667 250.633 0.0544667L125.421 0.0256314C125.36 0.0256314 125.309 0.0512628 125.273 0.0929138L123.7 0.0929138L115.844 0.0929138L104.893 0.0929138C104.855 0.0512628 104.804 0.0224275 104.746 0.0224275L0.201847 0C0.0897099 0 0 0.0897099 0 0.201847L0 27.7716C0 27.8325 0.0256314 27.8838 0.0672824 27.919L0.0672824 62.0857C0.0256314 62.1241 0 62.1754 0 62.233L0 103.589C0 103.65 0.0256314 103.701 0.0672824 103.737L0.0672824 137.903C0.0256314 137.942 0 137.993 0 138.051L0 241.438C0 241.55 0.0897099 241.64 0.201847 241.64H27.7716C27.8325 241.64 27.8838 241.614 27.919 241.573H67.8303C67.8687 241.614 67.92 241.64 67.9777 241.64H98.8475V281.875C98.8475 281.968 98.9244 282.045 99.0173 282.045H142.671C142.764 282.045 142.841 281.968 142.841 281.875V241.64H177.113C177.171 241.64 177.225 241.614 177.26 241.573H222.913C222.952 241.614 223.003 241.64 223.06 241.64H250.63C250.742 241.64 250.832 241.55 250.832 241.438V159.091H291.067C291.16 159.091 291.237 159.014 291.237 158.921V98.9981C291.237 98.9052 291.16 98.8283 291.067 98.8283L291.07 98.8315ZM249.384 29.7196V53.5023C249.326 53.5376 249.285 53.5985 249.285 53.6721V55.194H241.547V28.0279L249.285 28.0279V29.5498C249.285 29.6235 249.326 29.6844 249.384 29.7196ZM250.432 55.5977V105.002H241.646V55.5977H250.432ZM249.685 55.194V53.874H250.432V55.194H249.685ZM250.432 105.406V106.726H249.685V105.406H250.432ZM249.281 105.406V106.928C249.281 107.001 249.323 107.062 249.381 107.098L249.381 119.391C249.323 119.426 249.281 119.487 249.281 119.561V121.083H241.544L241.544 105.403H249.281V105.406ZM241.643 121.49H250.428V127.978H241.643V121.49ZM249.685 121.086V119.766H250.432V121.086H249.685ZM248.157 128.381H250.464V128.929H248.157V128.381ZM249.583 119.362L249.583 107.13H250.528L250.528 119.362H249.583ZM249.583 53.4703V29.7516H250.528V53.4703H249.583ZM249.682 29.3447V28.0247H250.428V29.3447H249.682ZM125.623 1.37769V0.429326L250.432 0.454957V27.6242L241.646 27.6242V9.44197C241.646 9.32983 241.557 9.24012 241.445 9.24012L148.393 9.2209C148.281 9.2209 148.191 9.31061 148.191 9.42274V61.8774L139.406 61.8774V9.42274C139.406 9.31061 139.316 9.2209 139.204 9.2209L125.623 9.2209V1.37769ZM227.277 123.156H226.428C226.399 123.156 226.373 123.162 226.348 123.172C226.338 123.175 226.332 123.185 226.322 123.191H225.643L225.63 104.618C225.649 104.589 225.665 104.557 225.665 104.522C225.665 104.429 225.588 104.352 225.495 104.352C220.417 104.352 215.647 106.335 212.058 109.927C208.508 113.48 206.544 118.19 206.503 123.204H205.852C205.82 123.185 205.788 123.172 205.746 123.172H204.897L185.818 123.185L185.818 92.2794H200.319C200.431 92.2794 200.521 92.1897 200.521 92.0776V87.685L241.243 87.7139V105.207C241.243 105.281 241.284 105.342 241.342 105.377L241.342 121.118C241.284 121.153 241.243 121.214 241.243 121.288V123.149L227.277 123.159V123.156ZM241.243 125.905L226.63 125.914V123.563L241.243 123.553V125.905ZM226.226 125.831H225.678V123.527H226.226V125.831ZM206.499 125.844H205.951V123.54H206.499V125.844ZM183.059 132.377V117.376C183.059 117.264 182.97 117.174 182.858 117.174H177.315L177.315 114.822H182.858C182.97 114.822 183.059 114.733 183.059 114.62V92.2762H185.411L185.411 123.383C185.411 123.466 185.462 123.54 185.536 123.569C185.562 123.579 185.587 123.585 185.616 123.585L205.548 123.572V125.924H204.901L185.616 125.937C185.51 125.937 185.424 126.02 185.418 126.123C185.418 126.129 185.418 126.132 185.418 126.139V132.377H183.066H183.059ZM185.411 132.78V133.11H183.518V132.78H185.411ZM176.193 114.563C176.101 114.563 176.024 114.64 176.024 114.733L176.024 117.376C176.024 117.411 176.036 117.443 176.059 117.472V136.045C165.826 135.971 157.521 127.628 157.521 117.376L157.521 114.733C157.521 114.64 157.444 114.563 157.351 114.563H156.624C156.601 114.479 156.525 114.415 156.432 114.415H148.592V87.7074L182.649 87.7074V114.415H177.107C177.014 114.415 176.94 114.479 176.914 114.563H176.187H176.193ZM176.911 114.899L176.911 117.203H176.363L176.363 114.899H176.911ZM157.185 114.899L157.185 117.203H156.637L156.637 114.899H157.185ZM148.191 80.6588V114.617C148.191 114.729 148.281 114.819 148.393 114.819H156.233L156.233 117.171H139.406L139.406 80.6588H148.191ZM145.92 80.2551V79.7072H148.226V80.2551H145.92ZM148.595 87.3037V83.113L182.653 83.113V87.3037L148.595 87.3037ZM183.056 91.8693V83.113H200.114V91.8693H183.056ZM200.518 87.2749V83.113H241.24V87.3037L200.518 87.2749ZM241.24 55.3927V82.7093H200.415C200.386 82.6933 200.354 82.6805 200.316 82.6805H182.854C182.819 82.6805 182.787 82.6933 182.755 82.7093L148.592 82.7093V80.457C148.592 80.4185 148.579 80.3833 148.56 80.3512V79.672H164.839C164.868 79.6912 164.9 79.704 164.935 79.704C165.028 79.704 165.105 79.6271 165.105 79.5342C165.105 70.3774 157.7 62.9187 148.563 62.829V62.1786C148.582 62.1465 148.595 62.1145 148.595 62.0728V9.62459L241.24 9.64381V27.8229C241.24 27.8966 241.281 27.9574 241.339 27.9927V55.2196C241.281 55.2549 241.24 55.3158 241.24 55.3895V55.3927ZM148.223 62.2779V62.8258H145.916V62.2779H148.223ZM123.832 0.362043L125.219 0.362043V1.23992L123.832 1.23992V0.362043ZM106.601 0.35884L115.082 0.35884L123.563 0.362043V1.24312L106.601 1.23992V0.35884ZM104.945 0.35884L106.332 0.35884V1.23671L104.945 1.23671V0.35884ZM104.945 1.50905L106.466 1.50905L123.697 1.51225L125.219 1.51225V9.28497L104.945 9.28497V1.50905ZM104.884 9.55731L125.27 9.55731C125.309 9.59575 125.36 9.62139 125.418 9.62139L138.999 9.62139V16.9135C138.877 16.8174 138.727 16.7565 138.557 16.7565C138.557 16.7565 138.554 16.7565 138.551 16.7565C138.551 16.7565 138.547 16.7565 138.544 16.7565L138.108 16.7982V13.9275C138.108 13.9275 138.108 13.9243 138.108 13.9211C138.108 13.9211 138.108 13.9178 138.108 13.9146L138.06 13.3572C138.06 13.3572 138.06 13.3508 138.06 13.3476C138.06 13.3443 138.06 13.3411 138.06 13.3347L137.923 12.7933C137.923 12.7933 137.919 12.7869 137.916 12.7837C137.916 12.7805 137.916 12.7773 137.916 12.7708L137.692 12.2614C137.692 12.2614 137.685 12.255 137.685 12.2518C137.685 12.2486 137.685 12.2454 137.682 12.2422L137.375 11.784C137.375 11.784 137.368 11.7776 137.365 11.7744C137.365 11.7744 137.362 11.768 137.359 11.7648L136.981 11.3675C136.981 11.3675 136.974 11.3643 136.971 11.3611C136.968 11.3611 136.965 11.3547 136.961 11.3515L136.522 11.0311C136.522 11.0311 136.516 11.0311 136.51 11.0247C136.506 11.0247 136.503 11.0183 136.5 11.0183L136.016 10.7812C136.016 10.7812 136.01 10.7812 136.003 10.7812C136 10.7812 135.997 10.778 135.991 10.7748L135.475 10.6306C135.475 10.6306 135.465 10.6306 135.462 10.6306C135.459 10.6306 135.456 10.6306 135.452 10.6274L134.92 10.5794C134.92 10.5794 134.917 10.5794 134.914 10.5794C134.914 10.5794 134.911 10.5794 134.908 10.5794L110.093 10.5794C110.093 10.5794 110.09 10.5794 110.087 10.5794C110.087 10.5794 110.084 10.5794 110.08 10.5794L108.962 10.6819C108.962 10.6819 108.956 10.6819 108.949 10.6851C108.946 10.6851 108.94 10.6851 108.937 10.6851L107.854 10.9895C107.854 10.9895 107.847 10.9927 107.841 10.9959C107.838 10.9959 107.834 10.9959 107.831 10.9959L106.816 11.4925C106.816 11.4925 106.809 11.4989 106.806 11.4989C106.803 11.4989 106.796 11.4989 106.793 11.5053L105.874 12.1813C105.874 12.1813 105.867 12.1877 105.864 12.1909C105.864 12.1909 105.858 12.1941 105.854 12.1973L105.06 13.0304C105.06 13.0304 105.057 13.0368 105.053 13.04C105.053 13.04 105.047 13.0464 105.044 13.0496L104.4 14.014C104.4 14.014 104.4 14.0204 104.397 14.0236C104.397 14.0268 104.39 14.03 104.39 14.0332L103.916 15.1001C103.916 15.1001 103.916 15.1065 103.916 15.1097C103.916 15.1129 103.913 15.1161 103.91 15.1193L103.618 16.2567C103.618 16.2567 103.618 16.2663 103.618 16.2695C103.618 16.2727 103.618 16.2759 103.618 16.2791L103.519 17.4518C103.519 17.4518 103.519 17.4582 103.519 17.4614C103.519 17.4646 103.519 17.4678 103.519 17.471L103.618 18.6436C103.618 18.6436 103.618 18.65 103.618 18.6565C103.618 18.6597 103.618 18.6629 103.618 18.6661L103.91 19.8035C103.91 19.8035 103.913 19.8067 103.913 19.8099C103.913 19.8163 103.913 19.8195 103.916 19.8259L104.39 20.8928C104.39 20.8928 104.393 20.896 104.397 20.8992C104.397 20.9024 104.397 20.9088 104.403 20.912L105.047 21.8764C105.047 21.8764 105.053 21.8796 105.053 21.8828C105.053 21.886 105.057 21.8924 105.06 21.8956L105.854 22.7286C105.854 22.7286 105.861 22.7318 105.864 22.7351C105.867 22.7351 105.87 22.7415 105.874 22.7447L106.793 23.4207C106.793 23.4207 106.8 23.4207 106.803 23.4207C106.806 23.4207 106.809 23.4271 106.816 23.4303L107.831 23.9269C107.831 23.9269 107.838 23.9269 107.841 23.9269C107.844 23.9269 107.847 23.9333 107.854 23.9333L108.937 24.2377C108.937 24.2377 108.949 24.2377 108.956 24.2377C108.956 24.2377 108.959 24.2377 108.962 24.2377L110.08 24.3402C110.08 24.3402 110.09 24.3402 110.093 24.3402L134.908 24.3402C134.908 24.3402 134.917 24.3402 134.92 24.3402L135.452 24.2922C135.452 24.2922 135.456 24.2922 135.459 24.2922C135.465 24.2922 135.472 24.2922 135.475 24.2922L135.991 24.148C135.991 24.148 135.997 24.1448 136.003 24.1416C136.007 24.1416 136.01 24.1416 136.013 24.1416L136.497 23.9045C136.497 23.9045 136.506 23.8981 136.51 23.8949C136.51 23.8949 136.516 23.8949 136.519 23.8949L136.958 23.5745C136.958 23.5745 136.965 23.5681 136.968 23.5649C136.968 23.5649 136.974 23.5617 136.977 23.5585L137.355 23.1612C137.355 23.1612 137.359 23.1516 137.362 23.1484C137.362 23.1484 137.368 23.1452 137.368 23.142L137.676 22.6838C137.676 22.6838 137.679 22.6742 137.682 22.671C137.682 22.671 137.685 22.6678 137.689 22.6646L137.913 22.1551C137.913 22.1551 137.913 22.1455 137.916 22.1391C137.916 22.1391 137.919 22.1359 137.919 22.1327L138.057 21.5912C138.057 21.5912 138.057 21.5848 138.057 21.5816C138.057 21.5784 138.057 21.5752 138.057 21.5688L138.105 21.0113C138.105 21.0113 138.105 21.0081 138.105 21.0049C138.105 21.0017 138.105 21.0017 138.105 20.9985V18.1278L138.541 18.1695C138.541 18.1695 138.551 18.1695 138.554 18.1695C138.72 18.1695 138.874 18.1086 138.996 18.0125V25.3687L102.574 25.3687V9.61498H104.736C104.794 9.61498 104.842 9.59255 104.88 9.5541L104.884 9.55731ZM138.112 17.1026V17.0673L138.56 17.0257C138.8 17.0257 138.996 17.2243 138.996 17.4646C138.996 17.7049 138.8 17.9035 138.56 17.9035L138.112 17.8619V17.8266C138.112 17.8266 138.121 17.7946 138.121 17.7786V17.1538C138.121 17.1378 138.118 17.1218 138.112 17.1058V17.1026ZM137.583 16.8462C137.5 16.8526 137.416 16.8815 137.343 16.9231L136.144 17.0737C136.125 17.0737 136.109 17.0833 136.093 17.0897C135.907 17.141 135.779 17.314 135.805 17.5095C135.827 17.6889 135.968 17.8266 136.144 17.8491L137.343 17.9997C137.416 18.0413 137.496 18.0701 137.583 18.0765L137.842 18.1022V20.9953L137.798 21.5368L137.666 22.0558L137.448 22.5428L137.157 22.9818L136.795 23.3598L136.375 23.6674L135.914 23.8917L135.42 24.0294L134.908 24.0775L110.103 24.0775L109.007 23.9782L107.947 23.6802L106.953 23.1932L106.053 22.53L105.278 21.7162L104.647 20.771L104.182 19.7234L103.897 18.6084L103.801 17.4582L103.897 16.308L104.182 15.193L104.647 14.1453L105.278 13.2002L106.053 12.3864L106.953 11.7232L107.947 11.2362L109.007 10.9382L110.103 10.8389L134.908 10.8389L135.42 10.8869L135.914 11.0247L136.375 11.249L136.795 11.5566L137.154 11.9346L137.448 12.3736L137.666 12.8606L137.798 13.3796L137.842 13.9211V16.811L137.583 16.8366V16.8462ZM137.842 17.2852V17.6408H137.644C137.544 17.6408 137.468 17.5607 137.468 17.4646C137.468 17.3685 137.548 17.2884 137.644 17.2884H137.842V17.2852ZM137.067 17.6953L136.18 17.5831C136.125 17.5767 136.08 17.5319 136.074 17.4774C136.071 17.4454 136.077 17.4133 136.1 17.3877C136.119 17.3621 136.148 17.3461 136.18 17.3428L137.07 17.2307C137.013 17.3781 137.009 17.5447 137.07 17.6953H137.067ZM138.973 26.0319H133.69C132.04 26.0319 130.496 26.913 129.65 28.3259C129.65 28.3259 129.65 28.3291 129.647 28.3323C128.573 29.9535 128.01 31.8374 128.01 33.779C128.01 35.7206 128.577 37.6045 129.647 39.2257C129.647 39.2257 129.647 39.2289 129.65 39.2321C130.493 40.6482 132.04 41.5293 133.69 41.5293H138.973C138.973 41.5293 138.993 41.5261 139.002 41.5229V44.2174H129.958C129.884 44.2174 129.823 44.2782 129.823 44.3519V57.9334H126.27C126.177 57.9334 126.103 57.9974 126.078 58.0807H125.35C125.257 58.0807 125.181 58.1576 125.181 58.2506V60.8938C125.181 60.929 125.193 60.9611 125.216 60.9899V77.2659C116.248 77.1922 108.978 69.8776 108.978 60.897V58.2538C108.978 58.1609 108.901 58.084 108.808 58.084H108.081C108.059 58.0006 107.982 57.9366 107.889 57.9366H92.3147V9.61498L102.308 9.61498V25.5032C102.308 25.5769 102.369 25.6378 102.442 25.6378L138.999 25.6378V26.0351C138.999 26.0351 138.98 26.0287 138.97 26.0287L138.973 26.0319ZM139.002 26.3811V41.1832C139.002 41.1832 138.986 41.1961 138.973 41.1961H133.69C132.155 41.1961 130.717 40.3759 129.935 39.059C129.935 39.059 129.935 39.059 129.935 39.0558C128.897 37.4891 128.349 35.6661 128.349 33.7886C128.349 31.9111 128.897 30.0881 129.935 28.5213C129.935 28.5213 129.935 28.5181 129.935 28.5149C130.717 27.1949 132.155 26.3779 133.69 26.3779H138.973C138.973 26.3779 138.993 26.3843 139.002 26.3907V26.3811ZM130.092 57.9398V44.4929H139.002V57.9398H130.092ZM139.002 58.3435V60.6952H126.472V58.3435H139.002ZM125.52 60.6535V58.4236H126.068V60.6471C125.869 60.6631 125.741 60.6535 125.52 60.6535ZM108.642 58.4236V60.7272H108.094V58.4236H108.642ZM107.69 58.3435V60.6952H106.191H92.3179V58.3435H107.69ZM0.403695 0.403695L104.538 0.426122V1.37448V9.21449L89.8124 9.21449L9.3907 9.19526C9.27857 9.19526 9.18886 9.28497 9.18886 9.39711L9.18886 27.573H0.403695L0.403695 0.403695ZM89.8156 154.339C89.9277 154.339 90.0175 154.25 90.0175 154.138V109.539H91.911V110.186V154.138C91.911 154.25 92.0007 154.339 92.1128 154.339H106.832V156.233H9.59575V154.339H89.8156ZM89.6394 109.167V108.584H91.943V109.132H89.8124C89.774 109.132 89.7387 109.145 89.7067 109.167H89.6362H89.6394ZM92.1128 108.248H89.4696C89.3767 108.248 89.2998 108.325 89.2998 108.418V109.337C89.2998 109.43 89.3767 109.507 89.4696 109.507H89.6106V110.189V153.939H9.59575L9.59575 138.057C9.59575 137.996 9.57012 137.945 9.52847 137.91L9.52847 103.743C9.57012 103.705 9.59575 103.653 9.59575 103.596L9.59575 87.7139L89.6138 87.7139V90.7896H89.4728C89.3799 90.7896 89.303 90.8665 89.303 90.9594V91.879C89.303 91.9719 89.3799 92.0488 89.4728 92.0488H92.116C92.1513 92.0488 92.1833 92.0359 92.2122 92.0135H108.485C108.411 100.981 101.1 108.251 92.116 108.251L92.1128 108.248ZM91.943 82.7125H89.6394V82.1647H91.943V82.7125ZM91.943 91.1581V91.7059H89.6394V91.1228H89.7099C89.7419 91.1421 89.7772 91.1581 89.8156 91.1581H91.9462H91.943ZM91.9078 83.1162V83.9749V90.104V90.7512H90.0143V87.5056C90.0143 87.3935 89.9246 87.3037 89.8124 87.3037L9.59575 87.3037V83.113L91.911 83.113L91.9078 83.1162ZM92.1096 81.825H89.4664C89.3735 81.825 89.2966 81.9019 89.2966 81.9948V82.7125L9.59575 82.7125L9.59575 62.2362C9.59575 62.1754 9.57012 62.1241 9.52847 62.0889L9.52847 27.9222C9.57012 27.8838 9.59575 27.8325 9.59575 27.7748L9.59575 9.59576L89.6106 9.61177L89.6106 63.4698V64.3636H89.4696C89.3767 64.3636 89.2998 64.4405 89.2998 64.5335V65.453C89.2998 65.5459 89.3767 65.6228 89.4696 65.6228H92.1128C92.1481 65.6228 92.1801 65.61 92.2089 65.5908H108.485C108.411 74.5553 101.097 81.8282 92.116 81.8282L92.1096 81.825ZM90.0143 60.9034C90.0143 60.9034 90.0143 60.9002 90.0143 60.897V58.1416C90.0143 58.1416 90.0143 58.1384 90.0143 58.1352L90.0143 9.61498H91.9078L91.9078 63.4698V64.3284H90.0143V60.9034ZM91.9398 64.7353V65.2832H89.6362V64.7001H89.7067C89.7387 64.7193 89.774 64.7353 89.8124 64.7353H91.943H91.9398ZM1.48662 103.794H9.25614L9.25614 137.852H1.48662L1.48662 103.794ZM0.403695 103.391L0.403695 62.4413H9.18886L9.18886 103.391H0.403695ZM1.48662 62.0344L1.48662 27.9735H9.25614L9.25614 62.0312H1.48662V62.0344ZM0.336412 27.9735H1.21749L1.21749 29.3608H0.336412L0.336412 27.9735ZM0.336412 29.6299H1.21749L1.21749 43.7208H0.336412L0.336412 29.6299ZM0.336412 43.9899H1.21749L1.21749 46.018H0.336412L0.336412 43.9899ZM0.336412 46.2871H1.21749L1.21749 60.378H0.336412L0.336412 46.2871ZM0.336412 60.6471H1.21749L1.21749 62.0344H0.336412L0.336412 60.6471ZM0.336412 103.794H1.21749L1.21749 105.182H0.336412L0.336412 103.794ZM0.336412 105.451H1.21749L1.21749 119.542H0.336412L0.336412 105.451ZM0.336412 119.811H1.21749L1.21749 121.839H0.336412L0.336412 119.811ZM0.336412 122.108H1.21749L1.21749 136.199H0.336412L0.336412 122.108ZM0.336412 136.468H1.21749L1.21749 137.855H0.336412L0.336412 136.468ZM27.5698 241.243H0.403695L0.403695 138.256H9.18886L9.18886 232.253C9.18886 232.365 9.27857 232.454 9.3907 232.454H27.5698V241.24V241.243ZM29.3608 241.31H27.9735V240.432H29.3608V241.31ZM46.5915 241.31H29.6299V240.432H46.5915V241.31ZM48.8887 241.31H46.8606V240.432H48.8887V241.31ZM66.1194 241.31H49.1578V240.432H66.1194V241.31ZM67.7758 241.31H66.3885V240.432H67.7758V241.31ZM67.7758 240.16H27.9735V232.387H67.7758V240.16ZM68.1795 241.243V232.458H103.41V241.243H68.1795ZM142.501 281.712H99.1839V273.779H142.501V281.712ZM142.501 273.439H99.1839V241.643H104.429V257.753C104.429 257.807 104.474 257.855 104.531 257.855C104.573 257.855 104.599 257.826 104.615 257.794C113.22 257.749 120.272 251.024 120.842 242.547C121.413 251.021 128.465 257.749 137.07 257.794C137.086 257.829 137.115 257.855 137.154 257.855C137.208 257.855 137.256 257.81 137.256 257.753V241.643H142.501V273.439ZM103.814 241.24V239H104.329V241.24H103.814ZM137.359 241.24V239H137.874V241.24H137.359ZM176.911 241.24H138.278V232.454H138.925C138.98 232.454 139.028 232.432 139.063 232.397C139.098 232.432 139.146 232.454 139.201 232.454C139.313 232.454 139.403 232.365 139.403 232.253V154.339H148.188V232.253C148.188 232.365 148.278 232.454 148.39 232.454H176.908V241.24H176.911ZM178.702 241.307H177.315V240.429H178.702V241.307ZM198.807 241.307H178.971V240.429H198.807V241.307ZM201.104 241.307H199.076V240.429H201.104V241.307ZM221.209 241.307H201.373V240.429H221.209V241.307ZM222.865 241.307H221.478V240.429H222.865V241.307ZM222.865 240.157H177.318V232.384H222.865V240.157ZM222.919 232.115H177.267C177.228 232.073 177.177 232.047 177.119 232.047H148.601V163.493H149.184V182.069C149.165 182.098 149.149 182.13 149.149 182.166C149.149 182.258 149.226 182.335 149.319 182.335C159.744 182.335 168.232 173.899 168.325 163.496H168.975C169.007 163.516 169.039 163.528 169.081 163.528H241.252V232.051H223.073C223.016 232.051 222.961 232.076 222.926 232.118L222.919 232.115ZM148.601 163.153V160.847H149.149V163.153H148.601ZM168.328 163.153V160.847H168.876V163.153H168.328ZM185.418 155.752V160.565C185.418 160.677 185.507 160.767 185.619 160.767H241.249V163.118H169.279V160.767H182.861C182.973 160.767 183.063 160.677 183.063 160.565V155.752H185.414H185.418ZM183.524 155.349V155.019H185.418V155.349H183.524ZM250.438 241.236H223.272V232.451H241.451C241.563 232.451 241.653 232.361 241.653 232.249V155.948H250.438V241.236ZM250.47 155.541H248.163V154.993H250.47V155.541ZM250.736 154.689C250.707 154.669 250.675 154.653 250.64 154.653H247.997C247.904 154.653 247.827 154.73 247.827 154.823V155.541H241.448C241.336 155.541 241.246 155.631 241.246 155.743V160.363H185.818V154.817C185.818 154.705 185.728 154.615 185.616 154.615H183.319C183.207 154.615 183.117 154.705 183.117 154.817V155.352H182.861C182.749 155.352 182.659 155.442 182.659 155.554V160.366H169.077C168.985 160.366 168.911 160.43 168.885 160.513H168.158C168.065 160.513 167.988 160.59 167.988 160.683V163.326C167.988 173.576 159.684 181.922 149.45 181.993V163.423C149.469 163.394 149.486 163.362 149.486 163.326V160.683C149.486 160.59 149.409 160.513 149.316 160.513H148.598V154.134C148.598 154.022 148.508 153.933 148.396 153.933H139.207C139.095 153.933 139.005 154.022 139.005 154.134V232.063C138.983 232.054 138.957 232.047 138.932 232.047H138.083C137.971 232.047 137.881 232.137 137.881 232.249V238.596H137.163C137.051 238.596 136.961 238.686 136.961 238.798V241.441C136.961 241.515 137.003 241.576 137.064 241.611V257.708C128.138 257.653 120.894 250.377 120.894 241.438C120.894 241.416 120.874 241.397 120.852 241.397C120.83 241.397 120.81 241.416 120.81 241.438C120.81 250.377 113.566 257.65 104.64 257.708V241.611C104.701 241.576 104.743 241.515 104.743 241.441V238.798C104.743 238.686 104.653 238.596 104.541 238.596H103.823V232.249C103.823 232.137 103.733 232.047 103.621 232.047H67.9873C67.9264 232.047 67.8751 232.073 67.8399 232.115H27.9222C27.8838 232.073 27.8325 232.047 27.7748 232.047H9.59575L9.59575 156.633H107.034C107.146 156.633 107.235 156.544 107.235 156.432V154.134C107.235 154.022 107.146 153.933 107.034 153.933H92.3147V109.334C92.3147 109.295 92.2987 109.26 92.2794 109.228V108.578C101.417 108.485 108.821 101.029 108.821 91.8725C108.821 91.7796 108.744 91.7027 108.651 91.7027C108.616 91.7027 108.584 91.7156 108.555 91.7348H92.2762V91.0555C92.2955 91.0235 92.3115 90.9883 92.3115 90.9498V82.908C92.3115 82.8695 92.2955 82.8343 92.2762 82.8022V82.1518C101.414 82.0621 108.818 74.6034 108.818 65.4466C108.818 65.3537 108.741 65.2768 108.648 65.2768C108.613 65.2768 108.581 65.2896 108.552 65.312H92.273V64.6328C92.2923 64.6007 92.3083 64.5655 92.3083 64.527V61.0956H107.883C107.921 61.0956 107.956 61.0828 107.988 61.0636H108.639C108.728 70.2012 116.187 77.6055 125.344 77.6055C125.437 77.6055 125.514 77.5286 125.514 77.4357C125.514 77.4004 125.501 77.3684 125.479 77.3395V60.9899C125.479 60.9899 125.485 60.9771 125.488 60.9707C126.017 60.9643 125.488 60.9707 126.142 60.9707C126.171 61.0476 126.174 61.0988 126.26 61.0988H138.993V62.076C138.993 62.1882 139.082 62.2779 139.195 62.2779L145.574 62.2779V62.9956C145.574 63.0885 145.65 63.1654 145.743 63.1654H148.387C157.37 63.1654 164.685 70.4383 164.755 79.4029H148.483C148.454 79.3836 148.422 79.3676 148.387 79.3676H145.743C145.65 79.3676 145.574 79.4445 145.574 79.5374V80.2551H139.195C139.082 80.2551 138.993 80.3448 138.993 80.457L138.993 117.376C138.993 117.488 139.082 117.578 139.195 117.578H156.425C156.464 117.578 156.499 117.565 156.531 117.542H157.181C157.271 127.946 165.761 136.381 176.187 136.381C176.28 136.381 176.357 136.305 176.357 136.212C176.357 136.176 176.344 136.144 176.322 136.116V117.539H177.001C177.033 117.558 177.065 117.574 177.107 117.574H182.649V132.575C182.649 132.687 182.739 132.777 182.851 132.777H183.107V133.309C183.107 133.421 183.197 133.511 183.309 133.511H185.607C185.68 133.511 185.741 133.469 185.776 133.408H207.111C207.166 133.408 207.214 133.363 207.214 133.306C207.214 133.248 207.169 133.203 207.111 133.203H185.808V126.331L205.74 126.318C205.769 126.318 205.794 126.312 205.82 126.302C205.878 126.279 205.916 126.228 205.932 126.171H206.66C206.682 126.171 206.704 126.164 206.727 126.158C206.788 126.132 206.829 126.071 206.829 126.004V123.361C206.826 118.372 208.765 113.685 212.289 110.154C215.781 106.659 220.417 104.717 225.354 104.682L225.367 123.255C225.348 123.284 225.332 123.316 225.332 123.351V125.994C225.332 126.065 225.374 126.123 225.435 126.148C225.454 126.158 225.476 126.161 225.499 126.161H226.226C226.242 126.219 226.284 126.27 226.338 126.292C226.364 126.302 226.389 126.308 226.418 126.308H227.267L241.233 126.299V128.167C241.233 128.279 241.323 128.368 241.435 128.368H247.814V129.086C247.814 129.179 247.891 129.256 247.984 129.256H250.627C250.662 129.256 250.694 129.243 250.723 129.221H270.943C270.869 140.364 261.786 149.405 250.627 149.405C250.534 149.405 250.457 149.482 250.457 149.575C250.457 149.668 250.534 149.745 250.627 149.745C253.379 149.745 255.622 151.949 255.696 154.685H250.723L250.736 154.689ZM282.637 158.748H250.842V155.743C250.842 155.704 250.829 155.669 250.81 155.637V154.958H255.789C255.817 154.977 255.849 154.993 255.885 154.993C255.978 154.993 256.054 154.916 256.054 154.823C256.054 152.42 254.478 150.379 252.306 149.675C262.92 148.822 271.299 139.922 271.299 129.089C271.299 128.996 271.222 128.92 271.129 128.92C271.094 128.92 271.062 128.932 271.033 128.955H250.81V128.276C250.829 128.243 250.842 128.211 250.842 128.17V119.554C250.842 119.481 250.8 119.42 250.742 119.385L250.742 107.091C250.8 107.056 250.842 106.995 250.842 106.921V99.1647H282.637V158.751V158.748ZM290.91 158.748H282.977V99.1615L290.91 99.1615V158.748Z" fill="white"/>
</svg>
