<svg width="176" height="23" viewBox="0 0 176 23" fill="none" xmlns="http://www.w3.org/2000/svg">
<g clip-path="url(#clip0_1011_2610)">
<path d="M51.6885 21.4699V20.9236H51.5521H50.7328C50.4598 20.9236 50.232 20.8327 50.0498 20.6505C49.8678 20.4685 49.7769 20.2412 49.7769 19.9678V7.6791C49.7769 7.40612 49.8678 7.17838 50.0498 6.99625C50.232 6.81413 50.4593 6.72328 50.7328 6.72328H51.5521H51.6885V6.17692H51.5521H46.3635H46.2271V6.72328H46.3635H47.1828C47.4558 6.72328 47.6836 6.81413 47.8658 6.99625C48.0478 7.17838 48.1387 7.40572 48.1387 7.6791V19.9678C48.1387 20.2407 48.0478 20.4685 47.8658 20.6505C47.6836 20.8327 47.4562 20.9236 47.1828 20.9236H46.3635H46.2271V21.4699H46.3635H51.5521H51.6885ZM85.6424 13.9094H89.8119L87.7007 8.23524L85.6419 13.9094H85.6424ZM80.6689 21.4699V20.8731H81.1461C81.5816 20.8731 81.9434 20.7736 82.2301 20.5748C82.517 20.3765 82.7313 20.0774 82.8734 19.678L87.9377 5.71695H88.5542L93.8906 19.9478C94.0324 20.2583 94.2027 20.4905 94.401 20.6445C94.5967 20.7964 94.8207 20.8726 95.0734 20.8726H95.9171V21.5201H91.0464V20.8726H91.097C91.5128 20.8726 91.7403 20.8462 91.9272 20.6886C92.1094 20.5349 92.1447 20.2452 91.95 19.7115C91.9298 19.6557 91.915 19.6109 91.9057 19.5763C91.8966 19.5437 91.8917 19.5175 91.8909 19.4973L89.9866 14.4195H85.4692L83.5107 19.8219C83.3957 20.1772 83.3877 20.4416 83.5074 20.6135C83.6269 20.7855 83.8794 20.8718 84.2868 20.8718H84.764V21.5193H80.6694V21.4688L80.6689 21.4699ZM54.2027 21.4699V20.9236H54.3393H55.0388C55.3118 20.9236 55.5394 20.8324 55.7216 20.6505C55.9038 20.4685 55.9945 20.2412 55.9945 19.9678V7.6791C55.9945 7.40612 55.9033 7.17838 55.7216 6.99625C55.5394 6.81413 55.3118 6.72328 55.0388 6.72328H54.3393H54.2027V6.17692H54.3393H59.2882H59.4247V6.72328H59.2882H58.5886C58.3157 6.72328 58.0879 6.81413 57.9058 6.99625C57.7237 7.17838 57.6329 7.40572 57.6329 7.6791V19.9678C57.6329 20.2407 57.7237 20.4685 57.9058 20.6505C58.0879 20.8327 58.3153 20.9236 58.5886 20.9236H59.5445H62.002C62.9851 20.9236 63.6904 20.7142 64.1181 20.2954C64.546 19.8765 64.8418 19.2213 65.0056 18.3291L65.1421 17.5098H65.5515V21.4695H59.5437H54.3385H54.2019L54.2027 21.4699ZM67.8334 21.4699V20.9236H67.97H68.6696C68.9425 20.9236 69.1703 20.8324 69.3523 20.6505C69.5345 20.4685 69.6253 20.2412 69.6253 19.9678V7.6791C69.6253 7.40612 69.534 7.17838 69.3523 6.99625C69.1703 6.81413 68.9425 6.72328 68.6696 6.72328H67.97H67.8334V6.17692H67.97H72.9189H73.0555V6.72328H72.9189H72.2193C71.9464 6.72328 71.7186 6.81413 71.5366 6.99625C71.3544 7.17838 71.2636 7.40572 71.2636 7.6791V19.9678C71.2636 20.2407 71.3544 20.4685 71.5366 20.6505C71.7186 20.8327 71.9461 20.9236 72.2193 20.9236H73.1752H75.6327C76.6159 20.9236 77.3211 20.7142 77.7488 20.2954C78.1767 19.8765 78.4725 19.2213 78.6363 18.3291L78.7728 17.5098H79.1822V21.4695H73.1744H67.9692H67.8326L67.8334 21.4699ZM35.4829 21.8794L28.6561 4.53868C28.4194 3.93773 28.1644 3.51482 27.8914 3.26874C27.6185 3.02307 27.1906 2.90003 26.6081 2.90003H26.0449V2.35368H27.6009H31.2877H31.6768C31.6768 2.5358 31.6768 2.71791 31.6768 2.90003C31.3675 2.90003 31.2074 2.89922 30.9748 2.92081C30.36 3.01288 30.245 3.41052 30.4948 4.10844L36.4387 19.2845C38.2509 14.3246 39.9906 9.29697 41.8811 4.40667C42.1839 3.62239 42.3513 2.89962 41.1909 2.89962H40.3814V2.35327H41.1909H44.8777H45.484V2.89962H44.8777H44.6312C44.0848 2.89962 43.657 3.0133 43.3477 3.24105C43.0382 3.46839 42.7835 3.85543 42.5831 4.40179L36.1658 21.8791H35.4829V21.8794Z" fill="white"/>
<path d="M152.049 21.4701V20.8732H152.935C153.065 20.8732 153.184 20.8515 153.292 20.8087C153.399 20.7659 153.496 20.7011 153.582 20.6148C153.668 20.5284 153.732 20.4315 153.776 20.3247C153.818 20.2172 153.84 20.0982 153.84 19.9683V7.67956C153.84 7.42858 153.761 7.21142 153.582 7.03257C153.403 6.85371 153.186 6.77426 152.935 6.77426C149.793 6.77426 149.412 6.71641 148.881 9.93138H148.378V6.12647H161.041C161.039 7.4347 161.041 8.62315 161.041 9.93138H160.538C160.001 6.71764 159.632 6.77386 156.484 6.77426C156.234 6.77426 156.016 6.85371 155.837 7.03257C155.659 7.21142 155.579 7.42858 155.579 7.67956V19.9683C155.579 20.0987 155.601 20.2176 155.644 20.3247C155.686 20.4318 155.751 20.5284 155.837 20.6148C155.924 20.7011 156.02 20.7656 156.128 20.8087C156.235 20.8515 156.354 20.8732 156.484 20.8732H157.371V21.5204H152.048L152.049 21.4701ZM163.655 21.4701V20.8732H164.542C164.792 20.8732 165.009 20.7936 165.188 20.6148C165.367 20.4359 165.446 20.2192 165.446 19.9678V7.67915C165.446 7.42818 165.367 7.21103 165.188 7.03216C165.011 6.85331 164.792 6.77386 164.542 6.77386H163.655V6.12647H175.105V9.52151H174.603C174.26 7.8075 174.024 6.77386 172.051 6.77386H168.09C167.84 6.77386 167.623 6.85331 167.444 7.03216C167.265 7.21103 167.186 7.42818 167.186 7.67915V12.7116H170.413C170.742 12.7116 171.021 12.5955 171.249 12.3588C171.658 11.9343 171.59 11.4588 171.59 10.9031H172.101V15.0315H171.59C171.59 14.4758 171.658 14.0007 171.249 13.5758C171.021 13.3387 170.742 13.2229 170.413 13.2229H167.186V19.9678C167.186 20.218 167.265 20.4359 167.444 20.6148C167.621 20.7936 167.84 20.8732 168.09 20.8732H172.323C173.194 20.8732 173.876 20.6723 174.367 20.2701C174.858 19.8688 175.16 19.2651 175.277 18.4592L175.42 17.5795H175.924V21.5209H163.655V21.4701ZM121.689 13.9095H125.859L123.748 8.23528L121.689 13.9095ZM116.716 21.4701V20.8732H117.193C117.629 20.8732 117.99 20.7737 118.277 20.5749C118.564 20.3765 118.778 20.0774 118.921 19.6782L123.985 5.71701H124.601L129.938 19.9479C130.079 20.2583 130.25 20.4906 130.448 20.6446C130.644 20.7965 130.868 20.8727 131.121 20.8727H131.964V21.5201H127.093V20.8727C127.518 20.8727 127.77 20.8605 127.974 20.6886C128.304 20.4111 128.022 19.9006 127.938 19.4976L126.033 14.42H121.516L119.557 19.8224C119.442 20.1777 119.434 20.4421 119.554 20.614C119.674 20.7859 119.926 20.8724 120.333 20.8724H120.811V21.5197H116.716V21.4701ZM114.108 17.2271L114.252 16.5039H114.754V19.5816L114.736 19.5971C114.48 19.8172 114.195 20.0256 113.884 20.2229C113.573 20.4196 113.235 20.6051 112.869 20.7786C112.083 21.1624 111.285 21.4504 110.476 21.6427C109.666 21.8351 108.845 21.9307 108.013 21.9307C105.304 21.9307 103.026 20.979 101.177 19.0751C100.253 18.1239 99.5598 17.0507 99.0979 15.8561C98.6358 14.662 98.4048 13.3476 98.4048 11.9123C98.4048 9.05868 99.3337 6.67566 101.191 4.76323C102.12 3.80742 103.153 3.08994 104.29 2.61163C105.428 2.13331 106.669 1.89417 108.013 1.89417C108.845 1.89417 109.67 1.99275 110.49 2.18914C111.309 2.38592 112.12 2.68089 112.924 3.07324C113.261 3.23783 113.582 3.41629 113.884 3.60859C114.187 3.8013 114.471 4.00746 114.736 4.22665L114.755 4.24173V7.4567H114.251L114.108 6.59541C114.027 6.13909 113.822 5.68523 113.492 5.2342C113.16 4.78074 112.703 4.33014 112.119 3.88238C111.537 3.43544 110.904 3.10012 110.22 2.87645C109.536 2.65277 108.8 2.54115 108.013 2.54115C105.953 2.54115 104.196 3.3955 102.74 5.10383C102.012 5.95861 101.465 6.95313 101.101 8.08699C100.737 9.22166 100.554 10.4969 100.554 11.9119C100.554 13.3268 100.736 14.6017 101.101 15.7367C101.465 16.8706 102.012 17.8647 102.74 18.72C103.468 19.5746 104.272 20.2156 105.151 20.6425C106.029 21.0691 106.983 21.2825 108.013 21.2825C108.791 21.2825 109.517 21.1808 110.19 20.9774C110.863 20.7742 111.484 20.4694 112.053 20.0632C112.622 19.657 113.078 19.2169 113.42 18.7436C113.762 18.2717 113.991 17.7661 114.108 17.2271ZM136.737 14.8653H139.144C139.721 14.8653 140.244 14.7732 140.713 14.589C141.182 14.4049 141.598 14.1291 141.962 13.7612C142.325 13.3933 142.598 12.9642 142.78 12.4749C142.962 11.9848 143.053 11.4331 143.053 10.82C143.053 10.2068 142.962 9.65474 142.78 9.16502C142.598 8.67571 142.325 8.2471 141.962 7.87878C141.598 7.51089 141.182 7.23465 140.713 7.0509C140.244 6.86674 139.721 6.77467 139.144 6.77467H136.737V14.8653ZM133.205 21.4701V20.8732H134.092C134.343 20.8732 134.56 20.7936 134.739 20.6148C134.918 20.4359 134.997 20.2192 134.997 19.9678V7.67915C134.997 7.54877 134.976 7.4298 134.933 7.32225C134.89 7.2151 134.826 7.11855 134.739 7.03216C134.653 6.9462 134.556 6.88141 134.449 6.83823C134.342 6.79546 134.223 6.77386 134.093 6.77386H133.206V6.12647H139.144C140.041 6.12647 140.843 6.23647 141.549 6.45648C142.256 6.6769 142.868 7.00813 143.383 7.44937C143.898 7.89101 144.285 8.39295 144.543 8.9552C144.801 9.51744 144.93 10.1388 144.93 10.8196C144.93 11.4816 144.816 12.0756 144.587 12.6008C144.359 13.1272 144.016 13.5839 143.56 13.9714C143.105 14.3572 142.59 14.6673 142.014 14.9015C141.451 15.1305 140.83 15.287 140.151 15.3705V15.4271C140.243 15.4621 140.343 15.5066 140.45 15.5603C140.57 15.6202 140.698 15.6915 140.836 15.7734C141.085 15.9209 141.311 16.0915 141.514 16.2856C141.717 16.4795 141.898 16.6967 142.054 16.9362L143.83 19.804C144.089 20.207 144.387 20.509 144.721 20.7097C145.054 20.9094 145.426 21.0096 145.835 21.0096C146.07 21.0096 146.279 20.9937 146.461 20.9628C146.643 20.9318 146.801 20.8854 146.933 20.8234L147.123 20.7285C147.166 20.7068 147.204 20.6861 147.234 20.6661C147.263 20.6479 147.285 20.6308 147.301 20.6148L147.337 20.579L147.676 20.918L147.651 20.953C147.585 21.0476 147.505 21.1368 147.412 21.221C147.318 21.305 147.211 21.3844 147.09 21.4587C146.831 21.6158 146.551 21.734 146.25 21.8126C145.95 21.8913 145.629 21.9304 145.289 21.9304C143.832 21.9304 142.725 21.3307 141.969 20.1316L140.194 17.2641C139.994 16.9468 139.8 16.6693 139.61 16.4326C139.421 16.1962 139.236 15.9992 139.056 15.8419C138.879 15.687 138.684 15.5705 138.472 15.4931C138.259 15.4157 138.028 15.377 137.779 15.377H136.738V19.9686C136.738 20.2197 136.817 20.4367 136.996 20.6156C137.174 20.7944 137.392 20.874 137.643 20.874H138.649V21.5214H133.206V21.4709L133.205 21.4701Z" fill="white"/>
<path fill-rule="evenodd" clip-rule="evenodd" d="M14.2929 2.354H19.0953V8.21355H18.557L18.5587 7.81876C18.5632 7.01574 18.5663 6.4107 18.2286 5.59179C17.8934 4.77775 17.3283 4.10144 16.6251 3.62924C15.9266 3.16069 15.0915 2.89343 14.2082 2.89343H13.2373V2.354H14.2929Z" fill="white"/>
<path fill-rule="evenodd" clip-rule="evenodd" d="M7.63576 2.18902C7.60237 2.18454 7.58892 2.17681 7.62681 2.16051L7.6313 2.17559L7.63576 2.19065V2.18902ZM3.01316 8.29711C3.01316 8.29711 3.63529 9.28592 4.63918 9.55441C5.64306 9.82454 6.3255 9.80661 6.79484 10.0437C7.2642 10.2837 7.835 10.5811 7.835 10.5811L7.76085 10.412C7.76085 10.412 6.71337 9.26188 5.98409 8.99747C5.25642 8.73345 4.48802 8.63975 3.90215 8.55826C3.31627 8.47964 3.01316 8.29385 3.01316 8.29385V8.29548V8.29711ZM10.5945 11.3467C10.9192 10.7702 11.3751 10.3049 11.7071 9.75243C11.8416 9.52752 11.9561 9.28756 12.0286 9.02191C12.0844 8.8182 12.1162 8.60675 12.1252 8.3953C12.1341 8.18262 12.119 7.96954 12.0799 7.76298C12.071 7.71327 12.0587 7.66316 12.0437 7.61508C12.0209 7.53808 11.9952 7.46107 11.9728 7.38408C11.9683 7.37185 11.9304 7.28588 11.9231 7.25125C11.9109 7.19707 11.9292 7.15918 11.9398 7.14246C11.9822 7.08217 12.0319 7.08054 12.0742 7.08828C12.0971 7.0944 12.1272 7.10622 12.1512 7.138C12.1663 7.15632 12.1798 7.20726 12.1948 7.23007L12.2914 7.42929C12.3338 7.52871 12.3668 7.63301 12.3957 7.74017C12.423 7.84447 12.4438 7.94997 12.4605 8.05427C12.5163 8.41811 12.5631 8.77297 12.5737 9.13069C12.5798 9.37066 12.5721 9.61226 12.5407 9.85998C12.5257 9.98547 12.5028 10.1061 12.4743 10.2283C12.4112 10.5062 12.3236 10.7763 12.2539 11.0509C12.1663 11.398 12.0787 11.7679 11.9593 12.1195C11.8795 12.3595 11.7858 12.5922 11.6725 12.8109C11.5169 13.1084 11.2317 13.4314 11.0744 13.7757C10.9762 13.9929 10.9282 14.2182 11.0113 14.4504C11.1412 14.571 11.2708 14.6875 11.4053 14.802C11.3963 14.692 11.3963 14.5849 11.4053 14.4789C11.4175 14.3249 11.4492 14.1709 11.4973 14.0108C11.6937 13.3585 12.0832 12.859 12.5705 12.4544C13.2859 11.8625 14.2128 11.4746 15.0464 11.0884C15.2758 10.9828 15.5112 10.8802 15.7394 10.7608C15.8872 10.6838 16.0324 10.6023 16.168 10.5086C16.227 10.4695 16.283 10.43 16.3371 10.388C16.3901 10.3456 16.4414 10.3049 16.4924 10.2568L16.5905 10.1615C16.5979 10.1492 16.6296 10.1028 16.6446 10.0906C16.672 10.0682 16.7006 10.0621 16.7278 10.0621C16.7612 10.0621 16.7988 10.0726 16.8292 10.115C16.8444 10.133 16.8549 10.1603 16.8549 10.1904C16.8566 10.2238 16.8292 10.2947 16.817 10.3232C16.7991 10.3774 16.7731 10.432 16.7474 10.4862C16.7216 10.5375 16.6931 10.586 16.6659 10.6357C16.5466 10.8349 16.4181 11.0313 16.2825 11.2183C16.1436 11.4086 15.9973 11.5899 15.8388 11.7618C15.5956 12.0246 15.3299 12.2511 15.0537 12.4577C14.4136 12.936 13.7056 13.3076 13.0414 13.7757C12.7123 14.0067 12.3953 14.23 12.1492 14.5123C11.9985 14.6859 11.8746 14.8806 11.7915 15.1161C12.0298 15.3019 12.2731 15.4771 12.5175 15.6372C12.6731 15.4637 12.8479 15.3247 13.0337 15.2037C13.3161 15.0228 13.6286 14.89 13.95 14.76C14.3289 14.6105 14.729 14.4655 15.1352 14.3767C15.4114 14.3164 15.6921 14.2785 15.9699 14.2785C16.1146 14.2785 16.2584 14.2907 16.4019 14.3115C16.6117 14.34 16.8187 14.3824 17.024 14.4203C17.2021 14.452 17.3817 14.4789 17.5614 14.5017C17.8315 14.5364 18.1016 14.5637 18.3734 14.5877C18.4699 14.5967 18.5665 14.6044 18.6619 14.6134C18.7283 14.6211 18.7931 14.6301 18.861 14.6407L19.0028 14.6635C19.024 14.668 19.0693 14.6635 19.0904 14.668C19.1283 14.6769 19.1508 14.6969 19.1658 14.7132C19.1825 14.7344 19.1931 14.7584 19.1931 14.7886C19.1931 14.8098 19.1886 14.8383 19.1642 14.8701C19.1311 14.9124 19.0722 14.9487 19.0012 14.9744C18.8924 15.0135 18.7506 15.0302 18.6754 15.0391C18.5515 15.0542 18.426 15.0603 18.3021 15.0648C18.0197 15.0725 17.7374 15.0648 17.4567 15.0876C17.2016 15.1088 16.9478 15.1328 16.6972 15.1691C16.4484 15.2037 16.199 15.2506 15.9484 15.308C15.5255 15.4062 15.1152 15.5435 14.6968 15.6552C14.5897 15.6837 14.4854 15.7093 14.3766 15.7338C14.1863 15.7757 13.9977 15.8136 13.809 15.8425C13.6188 15.871 13.4285 15.8907 13.2309 15.8985C13.1494 15.9029 13.059 15.9089 12.9697 15.9107C13.0602 15.9636 13.1523 16.0133 13.2443 16.0602C13.8783 16.3938 14.5941 16.6292 15.3308 16.7834C16.0689 16.9373 16.8268 17.0082 17.5394 17.0128C17.5468 17.0128 17.5544 17.0188 17.5544 17.0278C17.5544 17.0338 17.55 17.0384 17.5455 17.0429C17.55 17.0473 17.5516 17.0519 17.55 17.0519C17.4971 17.0641 16.4753 17.251 16.3844 17.2388C16.3587 17.2344 15.9178 17.1724 15.6807 17.1178C15.664 17.1133 15.6473 17.1089 15.631 17.1072C15.4681 17.0737 15.3067 17.0364 15.1478 16.9952C15.0183 16.9622 14.8867 16.9259 14.7583 16.8863C14.4638 16.7943 14.1529 16.7067 13.8693 16.5722C13.8135 16.5499 13.7561 16.5271 13.7003 16.5014C13.7606 16.7202 13.7862 16.9467 13.7695 17.1716C13.7512 17.4238 13.6791 17.6743 13.552 17.9127C13.303 18.3747 12.865 18.6929 12.5314 19.0918C12.4002 19.2502 12.2837 19.421 12.2066 19.6219C12.1296 19.8288 12.0889 20.0293 12.0722 20.2346C12.0571 20.4432 12.0677 20.6558 12.0901 20.8746L12.1504 21.3199C12.1549 21.3652 12.1565 21.412 12.1594 21.4589C12.1594 21.4923 12.1594 21.5252 12.1578 21.5571C12.1578 21.5509 12.1578 21.5358 12.1578 21.5358C12.1578 21.5358 12.1288 21.6385 12.1093 21.652C12.0775 21.6748 12.0355 21.6944 11.9781 21.667C11.9463 21.652 11.9072 21.6174 11.877 21.5568C11.8347 21.4736 11.7972 21.3274 11.7833 21.2865C11.7186 21.0874 11.6477 20.8821 11.5947 20.6737C11.5584 20.5304 11.5299 20.3837 11.5177 20.239C11.4529 19.4544 11.6432 18.7145 11.9948 18.0472C12.3346 17.407 12.8223 16.835 13.3702 16.349C13.257 16.2961 13.147 16.2402 13.0382 16.1844C13.026 16.195 13.0097 16.201 12.9897 16.201C12.8993 16.2028 12.8174 16.2508 12.7453 16.316C12.6169 16.4247 12.5081 16.5771 12.4161 16.6737C12.1928 16.9109 11.9646 17.1419 11.7173 17.3529C11.5511 17.4947 11.3775 17.6276 11.1918 17.7469C10.9803 17.8826 10.7599 17.9869 10.535 18.0716C10.0155 18.2679 9.46632 18.3629 8.93015 18.5397C8.13323 18.7992 7.10816 19.1558 6.726 19.8516C6.6657 19.9648 6.61273 20.0781 6.5781 20.1975C6.52962 20.3621 6.34995 20.2349 6.34424 20.2248C6.34261 20.2204 6.32305 20.1914 6.33202 20.1416C6.33365 20.1356 6.33813 20.1099 6.34098 20.1027L6.36379 19.9998L6.42735 19.7733C6.94356 17.9815 8.04115 17.1406 9.81792 16.5095C10.7281 16.1865 11.7035 16.0203 12.6365 15.9644C12.5729 15.9265 12.511 15.8918 12.4478 15.8511C12.4311 15.8557 12.4116 15.8528 12.3981 15.8451C12.392 15.8405 12.3831 15.8393 12.3769 15.8344V15.8328C12.2095 15.7965 12.0359 15.7876 11.8607 15.7933C11.5723 15.801 11.281 15.8552 11.0092 15.9099C10.8129 15.9488 10.6136 15.9869 10.4172 16.0304C10.2873 16.0592 10.1589 16.0908 10.0322 16.1286C9.38605 16.3217 8.75495 16.5678 8.10757 16.6872C7.6651 16.7686 7.21531 16.7914 6.74596 16.7023C6.1829 16.5968 5.69522 16.3295 5.2772 15.9718C4.65995 15.4461 4.18735 14.7262 3.81455 14.0348C3.74977 13.9142 3.68459 13.792 3.62144 13.6665C3.55828 13.5443 3.49636 13.4188 3.43565 13.2937C3.40265 13.2228 3.34806 13.1397 3.31505 13.0582C3.29713 13.0098 3.28205 12.9633 3.27716 12.9165C3.26821 12.835 3.31627 12.8048 3.34195 12.7914C3.37373 12.7747 3.41732 12.7629 3.47028 12.7914C3.47925 12.7959 3.49146 12.8065 3.50654 12.8199C3.51551 12.8305 3.52772 12.8517 3.53506 12.859L3.59861 12.9315L3.76771 13.1503C3.86426 13.2758 3.95348 13.4042 4.05005 13.5292C4.1132 13.6107 4.17512 13.6893 4.24479 13.7647C4.51939 14.0682 4.81396 14.3567 5.13705 14.604C5.45727 14.8501 5.80441 15.0583 6.18942 15.2033C6.42939 15.2954 6.67099 15.3512 6.91096 15.3863C7.28376 15.4404 7.65981 15.4453 8.05053 15.4572C8.53821 15.4722 9.02426 15.4889 9.5087 15.5024C9.83015 15.5113 10.1549 15.5174 10.4796 15.5191C10.8389 15.5207 11.2708 15.4845 11.6766 15.5146C11.7899 15.5223 11.8999 15.537 12.0086 15.5598C11.9752 15.537 11.9438 15.5146 11.9105 15.4906C11.8893 15.5011 11.8624 15.4983 11.8412 15.4889C11.4277 15.273 11.0125 15.0994 10.5835 14.9666C10.1561 14.8354 9.71689 14.7434 9.25202 14.6981C8.5985 14.6317 7.93563 14.6423 7.28498 14.5726C6.84129 14.5241 6.40332 14.4398 5.97919 14.2724C5.67567 14.153 5.4251 13.9945 5.20346 13.8075C4.87141 13.528 4.60577 13.1841 4.32628 12.8081L3.90827 12.2495L3.7844 12.0625L3.74081 11.9855C3.73469 11.9733 3.718 11.9476 3.71188 11.9342C3.70291 11.9175 3.69967 11.9012 3.69967 11.8918C3.6907 11.8315 3.72085 11.7969 3.74773 11.7724C3.76893 11.7557 3.81862 11.7211 3.89278 11.7651C3.99708 11.8238 4.09363 11.9024 4.18735 11.9884C4.38209 12.1709 4.55565 12.3958 4.73818 12.5649C4.87548 12.696 5.02501 12.802 5.1835 12.8896C5.34483 12.9772 5.51554 13.0419 5.6997 13.0888C6.05742 13.1809 6.4245 13.1613 6.79282 13.1279C7.17946 13.0949 7.56733 13.0464 7.94623 13.0827C8.1426 13.101 8.33572 13.1414 8.526 13.2155C8.79163 13.3198 9.03486 13.4526 9.26425 13.6005C9.60525 13.8193 9.92386 14.0731 10.2653 14.3131C10.4991 14.4777 10.7407 14.6346 10.9852 14.7812C11.017 14.7996 11.0488 14.8191 11.0817 14.8399C10.7497 14.5531 10.4356 14.2434 10.1398 13.9175C9.53436 13.2501 9.00593 12.5074 8.55166 11.7121C8.31903 11.4811 8.05501 11.3226 7.76981 11.2183C7.44958 11.1034 7.0996 11.0554 6.72965 11.0554C6.48072 11.0554 6.23139 11.1083 5.98531 11.1218C5.9189 11.1262 5.85411 11.1279 5.78607 11.1262C5.43283 11.114 5.06901 11.057 4.72921 10.9405C4.38331 10.8211 4.06185 10.643 3.79622 10.388C3.62266 10.2218 3.4658 10.0303 3.32524 9.82493C3.18467 9.62286 3.06409 9.40977 2.9553 9.19995C2.78337 8.86627 2.63058 8.51916 2.50998 8.15981C2.50388 8.14188 2.49777 8.12516 2.49165 8.10562C2.47495 8.1101 2.45539 8.11458 2.43869 8.11785C2.3902 8.13006 2.34212 8.14636 2.29691 8.16306C2.22154 8.19159 2.14616 8.22337 2.07038 8.25229C2.05978 8.25678 1.92533 8.3081 1.87115 8.32155C1.75055 8.35333 1.69759 8.24455 1.69311 8.22174C1.68863 8.19606 1.69148 8.15981 1.7204 8.11743C1.7371 8.09462 1.79129 8.05266 1.80351 8.04043L2.05407 7.83672C2.15065 7.76135 2.25046 7.69331 2.35313 7.63301C2.30464 7.43989 2.26716 7.24515 2.24272 7.05039C2.22478 6.89801 2.2142 6.74687 2.2142 6.59164C2.21583 6.43762 2.22642 6.28363 2.25046 6.13247C2.25656 6.09335 2.26879 5.95728 2.29731 5.88027C2.32013 5.81549 2.35762 5.77597 2.39103 5.7609C2.42729 5.74419 2.45743 5.74582 2.47861 5.75031C2.50591 5.75642 2.53159 5.77148 2.54787 5.79431C2.56295 5.81101 2.5764 5.83791 2.5764 5.87579C2.5764 5.88638 2.57029 5.91938 2.56744 5.92998L2.56295 6.00699L2.55847 6.23636C2.55847 6.37367 2.55847 6.51097 2.56459 6.64705C2.56907 6.73627 2.57517 6.82672 2.5825 6.91594C2.6037 7.10173 2.63833 7.28263 2.69292 7.45944C2.6974 7.45782 2.69903 7.45782 2.70352 7.45497C2.93615 7.35677 3.17897 7.28873 3.43117 7.25125C3.87525 7.18484 4.29938 7.25125 4.70844 7.38855C6.56669 8.01355 6.44284 8.6369 7.59788 9.52304C7.47402 9.12906 7.02871 7.92879 6.93501 7.52708C6.66936 7.38082 6.40821 7.22354 6.15601 7.04998C5.87204 6.85361 5.60192 6.63767 5.35909 6.39322C5.04945 6.08236 4.77485 5.71853 4.5528 5.32455C4.33076 4.92895 4.15882 4.50644 4.05005 4.08355C3.98363 3.82075 3.93964 3.55227 3.92007 3.27888C3.90174 3.00876 3.90501 2.73538 3.93515 2.46364C3.94575 2.36992 3.95633 2.27785 3.97305 2.18576C3.98974 2.09206 4.00931 1.99998 4.03334 1.91116L4.07123 1.74657C4.07571 1.72987 4.0802 1.68789 4.08345 1.67119C4.08793 1.65286 4.09404 1.63778 4.10016 1.62882C4.13194 1.57748 4.17553 1.56404 4.21057 1.56689C4.23787 1.56689 4.30101 1.56852 4.33116 1.65001C4.34624 1.68464 4.35236 1.727 4.35399 1.7706C4.3556 1.83539 4.34502 1.90953 4.34502 1.96372C4.34502 2.06191 4.34665 2.15683 4.35399 2.25503C4.36009 2.34996 4.37068 2.44692 4.38577 2.54186C4.41306 2.72154 4.46114 2.90405 4.52306 3.08087C4.61962 3.35425 4.74348 3.62275 4.86285 3.86883C5.00178 4.15403 5.16761 4.43189 5.35175 4.702C5.628 5.10821 5.94211 5.49771 6.24075 5.86886C6.3479 6.00006 6.46402 6.1284 6.57729 6.26284C6.40821 5.71487 6.25257 5.19254 6.18331 4.57489C6.11853 4.00572 6.12748 3.3567 6.26032 2.53533C6.3479 2.00406 6.62413 1.05884 6.858 0.508C6.95904 0.27088 7.06049 0.10343 7.1326 0.047613C7.19128 0.00238915 7.25035 -0.00657443 7.29883 0.00401855C7.34854 0.0146115 7.39986 0.0463916 7.43451 0.109542C7.48747 0.201619 7.51598 0.420406 7.51598 0.70723C7.51598 1.47563 7.35914 2.78142 7.32573 3.09676C7.22306 4.04646 7.14768 4.70446 7.12934 5.36733C7.11876 5.71772 7.12486 6.06769 7.15217 6.46045C7.26217 5.61505 7.57466 4.80591 7.72132 3.96946C7.75922 3.75068 7.78611 3.527 7.79221 3.3021C7.7967 3.16032 7.79833 3.01853 7.7906 2.87797C7.78448 2.73904 7.76777 2.60011 7.74089 2.46281C7.72295 2.36911 7.68059 2.27989 7.65328 2.18943C7.65167 2.18047 7.64718 2.1715 7.64433 2.16214H7.65043H7.65491C7.65328 2.15602 7.65043 2.12751 7.6427 2.13036L7.64107 2.13199C7.63944 2.12425 7.63659 2.11528 7.63495 2.1047C7.62274 2.04439 7.65167 2.01709 7.65613 2.00935C7.67896 1.98083 7.70585 1.96577 7.73762 1.96087C7.76004 1.95639 7.7906 1.96087 7.82074 1.98205C7.82686 1.98653 7.84641 1.99876 7.85986 2.02728C7.86149 2.03176 7.87044 2.05294 7.87207 2.05906L7.89937 2.1104L7.97922 2.25218C8.02771 2.33366 8.07131 2.41514 8.11042 2.49827C8.14954 2.58137 8.18741 2.66734 8.21919 2.75656C8.33409 3.07354 8.43188 3.39948 8.48932 3.73316C8.52558 3.95805 8.54228 4.18459 8.52844 4.41722C8.51621 4.6527 8.48158 4.89879 8.4274 5.13714C8.37442 5.37711 8.3019 5.61259 8.21146 5.83301C8.04402 6.23921 7.83866 6.62097 7.68467 7.02717C7.61987 7.19625 7.56528 7.36859 7.52617 7.54948C7.47933 7.75767 7.42798 7.98257 7.4129 8.20626C7.41129 8.23477 7.40843 8.26207 7.40843 8.28936C7.4235 8.36474 7.44021 8.43726 7.45691 8.51263C7.46139 8.52933 7.45691 8.54441 7.4508 8.55786C7.47933 8.68008 7.51435 8.80068 7.54898 8.92453C7.65167 9.24436 7.76167 9.56011 7.8843 9.8726C7.83581 9.45581 7.85864 9.04391 7.92829 8.63323C8.08964 7.65175 8.5097 6.68738 8.80671 5.73768C8.88655 5.48385 8.94727 5.23328 8.9819 4.97987C9.01978 4.72768 9.03608 4.471 9.02996 4.20535C9.02835 4.1361 9.02387 4.06642 9.01775 3.99716C9.00715 3.89164 8.99209 3.78286 8.97864 3.67571L8.95297 3.51111L8.94238 3.4553C8.94074 3.4447 8.93626 3.42189 8.93341 3.41619C8.92729 3.37708 8.93952 3.35425 8.93952 3.34977C8.95459 3.31514 8.97579 3.29844 8.99533 3.28784C9.02426 3.27278 9.05564 3.26992 9.0919 3.28336C9.10085 3.28784 9.13875 3.29844 9.16116 3.34977C9.16116 3.3514 9.1628 3.35588 9.16565 3.36485C9.24264 3.63211 9.29724 3.90672 9.33799 4.18622C9.39665 4.60138 9.42394 5.01939 9.44514 5.42722C9.47407 5.99639 9.4875 6.56393 9.43454 7.12699C9.40113 7.50427 9.33636 7.87868 9.23205 8.25025C9.10819 8.68212 8.96804 9.11073 8.84582 9.54383C8.76433 9.82902 8.69018 10.1191 8.636 10.4104C8.59689 10.6247 8.55451 10.8708 8.55614 11.1079C8.55614 11.1743 8.56063 11.2391 8.56836 11.3043C8.64821 11.4432 8.7297 11.5805 8.81281 11.7166C8.77045 11.4599 8.75863 11.2004 8.77369 10.9421C8.79937 10.4801 8.90816 10.0213 9.08782 9.59108C9.28706 9.10788 9.55717 8.65522 9.77474 8.18099C9.86518 7.98299 9.94667 7.78089 10.0074 7.56822C10.0738 7.33722 10.1268 7.10173 10.1659 6.86175C10.2038 6.62178 10.2262 6.38303 10.2306 6.14306C10.2323 6.03876 10.2351 5.93039 10.2306 5.82446C10.229 5.7552 10.2245 5.68716 10.2156 5.61749C10.2066 5.54823 10.1838 5.46185 10.1777 5.382C10.1732 5.33351 10.1761 5.28829 10.1838 5.24632C10.2005 5.17095 10.2502 5.1571 10.2759 5.1514C10.3089 5.14243 10.3529 5.14528 10.3936 5.18603C10.4026 5.19499 10.4103 5.20721 10.4209 5.22514C10.4299 5.24307 10.4421 5.28707 10.4494 5.30663L10.5431 5.49362C10.5794 5.569 10.6124 5.64315 10.6442 5.72016C10.691 5.83179 10.7346 5.94953 10.7742 6.06443C10.8947 6.41155 11.0125 6.79941 11.0687 7.18769C11.1078 7.45497 11.1184 7.7206 11.0854 7.97565C11.0325 8.37575 10.9102 8.74853 10.7489 9.10625C10.3851 9.91702 9.83708 10.6581 9.56818 11.5157C9.50177 11.7288 9.43373 11.9643 9.40072 12.1965C9.38402 12.3171 9.37506 12.4381 9.38239 12.5543C9.67085 12.9527 9.98334 13.3333 10.3093 13.6942C10.3093 13.6926 10.3093 13.6926 10.3077 13.6898C10.249 13.5251 10.2111 13.3544 10.1976 13.1898C10.1659 12.8623 10.187 12.5376 10.2579 12.2206C10.3272 11.9065 10.4466 11.6001 10.6067 11.3116L10.5977 11.3328L10.5933 11.345L10.5945 11.3467Z" fill="white"/>
<path fill-rule="evenodd" clip-rule="evenodd" d="M4.8023 21.8745H0V16.015H0.538205L0.536575 16.4098C0.532093 17.2128 0.528835 17.8178 0.866588 18.6368C1.2019 19.4507 1.76699 20.127 2.47021 20.5993C3.16852 21.0678 4.00374 21.3351 4.88703 21.3351H5.85792V21.8745H4.8023Z" fill="white"/>
</g>
<defs>
<clipPath id="clip0_1011_2610">
<rect width="176" height="22.0198" fill="white"/>
</clipPath>
</defs>
</svg>
