<svg width="41" height="46" viewBox="0 0 41 46" fill="none" xmlns="http://www.w3.org/2000/svg">
<path fill-rule="evenodd" clip-rule="evenodd" d="M31.1217 4.92789H41V16.8011H40.2962V15.0189C40.2962 13.747 40.0463 12.5338 39.5882 11.4293C39.1176 10.283 38.4221 9.24961 37.5601 8.38359C36.698 7.51757 35.6652 6.8189 34.52 6.34197C33.4205 5.88176 32.2128 5.63074 30.9468 5.63074H29.1186V4.92371H31.1217V4.92789Z" fill="#22364A"/>
<path fill-rule="evenodd" clip-rule="evenodd" d="M22.2589 23.7921C22.9419 22.583 23.8997 21.604 24.5952 20.4451C24.8784 19.9724 25.1199 19.4704 25.2699 18.9097C25.3865 18.483 25.4531 18.0395 25.4739 17.5961C25.4948 17.1484 25.4614 16.7008 25.3781 16.2699C25.3573 16.1653 25.3323 16.0607 25.3032 15.9603C25.2574 15.7971 25.2032 15.6381 25.1533 15.475C25.1449 15.4499 25.0658 15.27 25.0492 15.1947C25.0242 15.0817 25.0616 15.0022 25.0825 14.9646C25.1699 14.839 25.274 14.8349 25.3657 14.8516C25.4115 14.8641 25.4781 14.8892 25.5281 14.9562C25.5614 14.9938 25.5864 15.1026 25.6197 15.1486L25.8238 15.567C25.9112 15.7762 25.982 15.9937 26.0445 16.2197C26.1028 16.4372 26.1444 16.6589 26.1819 16.8807C26.2985 17.6463 26.3985 18.391 26.4193 19.1398C26.4318 19.6419 26.4193 20.1523 26.3485 20.6711C26.3152 20.9346 26.2694 21.1857 26.2069 21.445C26.0736 22.0266 25.8904 22.5955 25.7446 23.1729C25.5614 23.9008 25.3781 24.679 25.1283 25.4153C24.9617 25.9174 24.7618 26.4069 24.5244 26.8671C24.1996 27.4904 23.5999 28.1682 23.2667 28.8919C23.0627 29.348 22.9586 29.8207 23.1335 30.3102C23.4083 30.5654 23.679 30.8081 23.9622 31.0465C23.9414 30.8164 23.9414 30.5905 23.9622 30.3688C23.9872 30.0466 24.0538 29.7203 24.1538 29.3856C24.5661 28.0176 25.3865 26.9675 26.4068 26.1182C27.9102 24.8756 29.8592 24.0598 31.6083 23.2482C32.0914 23.0265 32.5869 22.8089 33.0659 22.5621C33.3782 22.3989 33.6822 22.2274 33.9654 22.0349C34.0903 21.9513 34.2069 21.8718 34.3194 21.7797C34.4318 21.6919 34.5401 21.604 34.6442 21.5036L34.8525 21.3028C34.8691 21.2777 34.9357 21.1773 34.9649 21.1522C35.0232 21.1062 35.0815 21.0936 35.1398 21.0936C35.2106 21.0936 35.2897 21.1145 35.3522 21.2066C35.3855 21.2442 35.4063 21.3028 35.4063 21.3655C35.4063 21.4367 35.3522 21.5831 35.3272 21.6459C35.2897 21.7588 35.2356 21.876 35.1814 21.9889C35.1273 22.0977 35.069 22.1981 35.0107 22.3027C34.7608 22.7211 34.4901 23.1311 34.2069 23.5243C33.9154 23.9218 33.6073 24.3025 33.2741 24.6665C32.7619 25.2187 32.2038 25.6914 31.6249 26.1265C30.2798 27.1306 28.7931 27.913 27.3979 28.8919C26.7066 29.3773 26.0403 29.8458 25.5239 30.4399C25.2074 30.8039 24.945 31.2139 24.7701 31.7075C25.2699 32.0966 25.7821 32.4648 26.2943 32.7995C26.6192 32.4355 26.9898 32.1427 27.3771 31.8916C27.9685 31.5109 28.6265 31.2306 29.3011 30.9587C30.0966 30.6449 30.9378 30.3395 31.7915 30.1554C32.3704 30.0299 32.9618 29.9504 33.5448 29.9504C33.8488 29.9504 34.1486 29.9755 34.4527 30.0215C34.8941 30.0801 35.3272 30.1721 35.7603 30.2516C36.1351 30.3186 36.5141 30.373 36.8889 30.4232C37.4553 30.4943 38.0258 30.5529 38.5964 30.6031C38.8004 30.624 39.0003 30.6365 39.2002 30.6574C39.3418 30.6742 39.4751 30.6909 39.6208 30.716L39.9207 30.762C39.9665 30.7704 40.0623 30.762 40.1039 30.7704C40.183 30.7913 40.2289 30.829 40.2622 30.8666C40.2955 30.9127 40.3205 30.9629 40.3205 31.0256C40.3205 31.0716 40.3121 31.1302 40.258 31.1971C40.1872 31.285 40.0664 31.3603 39.9165 31.4147C39.6875 31.4984 39.3918 31.5318 39.2335 31.5528C38.9753 31.5862 38.7088 31.5988 38.4506 31.6071C37.8592 31.6239 37.2637 31.6071 36.6765 31.6532C36.1393 31.6992 35.6062 31.7494 35.0815 31.8247C34.5568 31.8958 34.0362 31.9962 33.5073 32.1175C32.6203 32.3225 31.7582 32.6112 30.8795 32.8455C30.6546 32.9041 30.4339 32.9585 30.209 33.0087C29.8092 33.0965 29.4136 33.176 29.0179 33.2388C28.6182 33.2973 28.2184 33.3392 27.8019 33.3559C27.6312 33.3643 27.4396 33.3768 27.2522 33.381C27.4438 33.494 27.6353 33.5944 27.8311 33.6948C29.1637 34.3935 30.6671 34.8913 32.2121 35.2135C33.7613 35.5356 35.3564 35.6862 36.8514 35.6946C36.8681 35.6946 36.8847 35.7071 36.8847 35.728C36.8847 35.7406 36.8764 35.749 36.8639 35.7615C36.8722 35.7699 36.8764 35.7824 36.8722 35.7824C36.7598 35.8075 34.6151 36.2008 34.4235 36.1757C34.3694 36.1673 33.4448 36.0376 32.9451 35.9205C32.9118 35.9121 32.8743 35.8996 32.841 35.8996C32.4995 35.8285 32.158 35.749 31.8248 35.6653C31.5541 35.5942 31.2751 35.5189 31.0086 35.4352C30.3881 35.2427 29.7384 35.0587 29.1387 34.7742C29.0221 34.7281 28.9013 34.6779 28.7847 34.6236C28.9097 35.0838 28.9638 35.5565 28.9305 36.0293C28.893 36.5606 28.7389 37.0835 28.4724 37.5856C27.9477 38.5562 27.0273 39.2256 26.3277 40.0623C26.0528 40.397 25.8071 40.7526 25.6447 41.1752C25.4823 41.6103 25.399 42.0328 25.3615 42.4637C25.3282 42.903 25.3532 43.3465 25.399 43.8067L25.5239 44.7396C25.5322 44.8359 25.5364 44.9321 25.5447 45.0325C25.5447 45.1036 25.5447 45.1706 25.5447 45.2375V45.1915C25.5447 45.1915 25.4823 45.409 25.4448 45.4341C25.3781 45.4802 25.2907 45.522 25.1699 45.4676C25.1033 45.4341 25.02 45.363 24.9575 45.2375C24.8701 45.0618 24.7909 44.7564 24.7618 44.6685C24.6244 44.2502 24.4744 43.8192 24.3662 43.38C24.2912 43.0787 24.2287 42.7733 24.2038 42.4679C24.0663 40.8196 24.4661 39.2674 25.2074 37.8659C25.9195 36.5229 26.944 35.3222 28.0976 34.3014C27.8602 34.1885 27.627 34.0713 27.3979 33.9542C27.373 33.9751 27.3396 33.9876 27.298 33.9876C27.1064 33.9876 26.9357 34.0922 26.7858 34.2303C26.5151 34.4604 26.286 34.7784 26.0944 34.9834C25.6239 35.4812 25.1449 35.9665 24.6244 36.41C24.2745 36.707 23.9122 36.9873 23.5208 37.2383C23.0752 37.5228 22.6129 37.7404 22.1423 37.9203C21.0512 38.3303 19.8976 38.5311 18.769 38.9034C17.0949 39.4473 14.9418 40.1962 14.1381 41.6563C14.0132 41.8948 13.9007 42.1332 13.8257 42.3842C13.7258 42.7315 13.3468 42.4637 13.3343 42.4428C13.3343 42.4344 13.2885 42.3717 13.3093 42.2671C13.3093 42.2545 13.3218 42.2002 13.3302 42.1834L13.376 41.9659L13.5092 41.4889C14.592 37.7278 16.8992 35.9623 20.6306 34.6361C22.5421 33.9584 24.5911 33.6111 26.5525 33.494C26.4193 33.4145 26.2902 33.3434 26.1569 33.2555C26.1236 33.2639 26.082 33.2555 26.0528 33.243C26.0403 33.2346 26.0195 33.2304 26.007 33.222C25.653 33.1425 25.2907 33.1258 24.9242 33.1384C24.3204 33.1551 23.7082 33.2681 23.1335 33.381C22.7212 33.4647 22.3006 33.5442 21.8883 33.6362C21.6134 33.6948 21.3469 33.7617 21.0804 33.8412C19.7227 34.247 18.3984 34.7616 17.0366 35.0126C16.1079 35.1842 15.1626 35.2302 14.1756 35.0461C12.9928 34.8244 11.9684 34.2638 11.0897 33.5107C9.79448 32.4062 8.79916 30.8959 8.01623 29.4442C7.8788 29.189 7.74554 28.9338 7.61227 28.6702C7.47901 28.415 7.34991 28.1514 7.22081 27.8879C7.15001 27.7373 7.03757 27.5657 6.96677 27.3942C6.92929 27.2938 6.89597 27.1934 6.88764 27.0972C6.86682 26.9256 6.97093 26.8629 7.02507 26.8336C7.09171 26.8001 7.18333 26.775 7.29577 26.8336C7.31659 26.842 7.34158 26.8671 7.37073 26.8922C7.39155 26.9131 7.41654 26.9591 7.4332 26.9758L7.56646 27.1264L7.92045 27.5866C8.12451 27.8502 8.31191 28.118 8.51181 28.3815C8.64507 28.5531 8.77417 28.7162 8.91993 28.8752C9.4988 29.5111 10.1152 30.1178 10.794 30.6365C11.4645 31.1511 12.1974 31.5904 13.0053 31.8958C13.5092 32.0883 14.0173 32.2054 14.5212 32.2807C15.3042 32.3937 16.0954 32.4062 16.9158 32.4313C17.9403 32.4648 18.9606 32.4983 19.9809 32.5275C20.6556 32.5485 21.3386 32.561 22.0215 32.561C22.7753 32.561 23.6832 32.4899 24.5369 32.5526C24.7743 32.5694 25.0075 32.5987 25.2366 32.6489C25.1658 32.6029 25.0991 32.5526 25.0325 32.5024C24.9867 32.5234 24.9325 32.5192 24.8867 32.5024C24.0163 32.0506 23.146 31.6866 22.2464 31.4063C21.3469 31.1302 20.4265 30.9378 19.4479 30.8415C18.0736 30.7035 16.6826 30.7244 15.3166 30.578C14.3838 30.4776 13.4634 30.2977 12.5722 29.9462C11.9351 29.6952 11.4062 29.3647 10.9397 28.9714C10.2443 28.3857 9.68204 27.662 9.09901 26.8754L8.22029 25.704L7.96209 25.3107L7.87047 25.1476C7.85798 25.1225 7.82466 25.0681 7.81217 25.0388C7.79135 25.0053 7.78718 24.9677 7.78718 24.9509C7.76636 24.8254 7.83299 24.7501 7.88713 24.6999C7.93294 24.6665 8.03705 24.5911 8.19114 24.6832C8.41186 24.8045 8.61176 24.9719 8.81166 25.1518C9.21978 25.5367 9.58626 26.0094 9.96939 26.3608C10.2567 26.637 10.5733 26.8587 10.9064 27.0428C11.2479 27.2269 11.6061 27.3607 11.9892 27.4611C12.743 27.6536 13.5134 27.6117 14.2838 27.5448C15.0959 27.4737 15.9122 27.3733 16.7076 27.4486C17.1199 27.4862 17.528 27.5699 17.9278 27.7289C18.4859 27.9464 18.9981 28.2267 19.477 28.5363C20.1933 28.9965 20.8638 29.5279 21.5801 30.0341C22.0715 30.3813 22.5796 30.7077 23.0918 31.0172C23.1585 31.0549 23.2251 31.0967 23.2959 31.1428C22.5962 30.5403 21.9382 29.8918 21.3177 29.2057C20.0476 27.8042 18.9356 26.2479 17.9819 24.5744C17.4947 24.0891 16.9366 23.7586 16.337 23.5369C15.6665 23.2942 14.9293 23.1938 14.1506 23.1938C13.6258 23.1938 13.1053 23.3068 12.5889 23.3319C12.4515 23.3402 12.314 23.3444 12.1724 23.3402C11.4311 23.3151 10.6649 23.1938 9.95274 22.9512C9.22811 22.7001 8.54929 22.3278 7.99124 21.7923C7.62477 21.445 7.29577 21.0392 7.00009 20.6083C6.7044 20.1816 6.45037 19.7381 6.22132 19.2946C5.859 18.596 5.53834 17.8638 5.2843 17.1108C5.27181 17.0731 5.25931 17.0396 5.24682 16.9978C5.2135 17.0062 5.17186 17.0187 5.13438 17.0229C5.03443 17.048 4.93032 17.0815 4.83453 17.1191C4.67628 17.1777 4.51803 17.2446 4.35978 17.3074C4.33895 17.3158 4.05576 17.4245 3.93916 17.4538C3.68512 17.5208 3.57268 17.2907 3.56435 17.2446C3.55602 17.1903 3.56435 17.115 3.62265 17.0271C3.65597 16.9811 3.77258 16.889 3.79756 16.8639L4.32229 16.4372C4.52636 16.2782 4.73458 16.136 4.95114 16.0105C4.85119 15.6047 4.77206 15.1947 4.71792 14.7888C4.68044 14.4709 4.65546 14.1529 4.65546 13.8266C4.65546 13.5045 4.68044 13.1781 4.73042 12.8644C4.74291 12.7807 4.7679 12.4962 4.83037 12.333C4.87618 12.195 4.9553 12.1155 5.0261 12.082C5.10106 12.0485 5.16769 12.0485 5.20934 12.0611C5.26764 12.0736 5.32178 12.1071 5.3551 12.1531C5.38841 12.1866 5.4134 12.2452 5.4134 12.3247C5.4134 12.3456 5.40091 12.4167 5.39258 12.4376L5.38425 12.6008L5.37592 13.0819C5.37592 13.3706 5.37592 13.6593 5.38841 13.9437C5.39674 14.132 5.40924 14.3203 5.42589 14.5085C5.4717 14.8976 5.5425 15.2783 5.65911 15.6507C5.66744 15.6507 5.6716 15.6507 5.67993 15.6423C6.16718 15.4373 6.67942 15.2951 7.20831 15.2156C8.14117 15.0775 9.03238 15.2156 9.89027 15.5042C13.7966 16.8179 13.5342 18.1232 15.9622 19.9849C15.7039 19.1566 14.7669 16.638 14.5712 15.7971C14.0132 15.4917 13.4634 15.1612 12.9345 14.7972C12.339 14.3872 11.7685 13.9312 11.2604 13.4166C10.6107 12.764 10.0319 11.9983 9.56543 11.1742C9.09901 10.3458 8.73669 9.45468 8.50765 8.56774C8.37022 8.0155 8.27443 7.45071 8.23279 6.87754C8.19531 6.30857 8.19947 5.73541 8.2661 5.16643C8.28693 4.9698 8.31191 4.77735 8.34523 4.5849C8.37855 4.38827 8.42019 4.19582 8.47016 4.00756L8.54929 3.66031C8.55762 3.62684 8.57011 3.5348 8.57428 3.50133C8.58261 3.46368 8.5951 3.43021 8.60759 3.41348C8.67423 3.3047 8.76585 3.27542 8.84081 3.28378C8.89911 3.28378 9.03238 3.28378 9.09484 3.4595C9.12816 3.53062 9.14065 3.62266 9.14065 3.7147C9.14065 3.85276 9.11983 4.00756 9.11983 4.12051C9.11983 4.32551 9.11983 4.52633 9.14065 4.73133C9.15315 4.93214 9.17397 5.13296 9.20729 5.33378C9.26559 5.7103 9.36554 6.0952 9.49464 6.46336C9.6987 7.03652 9.9569 7.60132 10.2068 8.11591C10.4983 8.71417 10.8481 9.29988 11.2354 9.86468C11.8143 10.7181 12.4764 11.534 13.1053 12.3163C13.3302 12.5924 13.5759 12.8602 13.8133 13.1447C13.4593 11.9942 13.1303 10.898 12.9845 9.60111C12.8471 8.40458 12.8679 7.04489 13.1469 5.32122C13.3302 4.20419 13.9132 2.22113 14.4046 1.06644C14.617 0.568589 14.8294 0.217162 14.9835 0.10002C15.1084 0.0037957 15.2292 -0.0129389 15.3333 0.00797937C15.4374 0.0288977 15.5457 0.0958362 15.6207 0.229713C15.7331 0.422161 15.7914 0.882364 15.7914 1.48481C15.7914 3.0997 15.4624 5.84 15.3916 6.50102C15.1751 8.49244 15.0168 9.87723 14.9793 11.2662C14.9585 12.0025 14.971 12.7347 15.0251 13.5588C15.2583 11.785 15.9122 10.0864 16.2204 8.32927C16.2995 7.86907 16.3578 7.4005 16.3703 6.92775C16.3786 6.63071 16.3828 6.33367 16.3703 6.03663C16.3578 5.74377 16.3245 5.4551 16.2662 5.16643C16.2287 4.9698 16.1412 4.78153 16.0829 4.59327C16.0829 4.57235 16.0704 4.55561 16.0621 4.5347H16.0829C16.0829 4.5347 16.0746 4.46357 16.0579 4.46776C16.0579 4.46776 16.0496 4.43429 16.0454 4.41337C16.0205 4.28786 16.0788 4.22929 16.0912 4.21255C16.1371 4.15398 16.1954 4.12051 16.262 4.11215C16.3078 4.10378 16.3744 4.11215 16.4369 4.15817C16.4494 4.16653 16.491 4.19164 16.5202 4.25439C16.5202 4.26276 16.541 4.30878 16.5452 4.32133L16.6035 4.4301L16.7701 4.72714C16.87 4.89867 16.9616 5.0702 17.0449 5.24173C17.1282 5.41745 17.2073 5.59735 17.274 5.78561C17.5155 6.45081 17.7196 7.13693 17.8404 7.8356C17.9153 8.30836 17.9528 8.78111 17.9236 9.2706C17.8987 9.76427 17.8237 10.283 17.7113 10.7809C17.5988 11.2829 17.4489 11.7808 17.2573 12.241C16.9033 13.0945 16.4744 13.8935 16.1496 14.747C16.0121 15.1026 15.8997 15.4624 15.8164 15.8431C15.7164 16.2824 15.6123 16.751 15.579 17.2237C15.579 17.2823 15.5707 17.3409 15.5707 17.3994C15.604 17.5584 15.6373 17.709 15.6706 17.868C15.679 17.9015 15.6706 17.9349 15.6581 17.9642C15.7164 18.2194 15.7914 18.4746 15.8622 18.734C16.0788 19.4076 16.3078 20.0686 16.566 20.7254C16.4661 19.8511 16.5119 18.985 16.6576 18.1232C16.9991 16.0649 17.8778 14.04 18.5025 12.0444C18.6691 11.513 18.7982 10.9859 18.869 10.4546C18.9481 9.92325 18.9814 9.38774 18.9689 8.82713C18.9689 8.6807 18.9564 8.53427 18.944 8.38785C18.9231 8.16611 18.8898 7.93601 18.8607 7.71428L18.8065 7.36703L18.7857 7.24989C18.7857 7.22897 18.7732 7.17877 18.7649 7.16622C18.7524 7.08254 18.7774 7.03652 18.7774 7.02816C18.8107 6.95703 18.8523 6.91938 18.894 6.89846C18.9523 6.86499 19.0189 6.86081 19.098 6.8901C19.1189 6.89846 19.198 6.92357 19.2438 7.02816C19.2438 7.02816 19.2438 7.04071 19.2521 7.06163C19.4145 7.62224 19.527 8.19958 19.6144 8.78529C19.7394 9.65549 19.7935 10.5341 19.8393 11.3917C19.8976 12.5882 19.9268 13.7764 19.8185 14.9604C19.7477 15.7511 19.6144 16.5376 19.3937 17.32C19.1355 18.2278 18.8398 19.1273 18.5816 20.0351C18.4109 20.6334 18.2568 21.2442 18.1402 21.855C18.0569 22.3069 17.9695 22.8215 17.9736 23.3193C17.9736 23.4574 17.9819 23.5954 17.9986 23.7293C18.1652 24.0222 18.3401 24.3108 18.5108 24.5953C18.4234 24.0556 18.3984 23.5118 18.4276 22.9679C18.4817 21.9973 18.7107 21.035 19.0855 20.1314C19.5062 19.1189 20.0725 18.1651 20.5306 17.1735C20.7222 16.7593 20.893 16.3326 21.0179 15.885C21.1595 15.3997 21.2678 14.906 21.351 14.4039C21.4302 13.9019 21.476 13.3999 21.4885 12.8936C21.4885 12.6761 21.4968 12.446 21.4885 12.2243C21.4885 12.0778 21.476 11.9356 21.4552 11.7892C21.4343 11.6427 21.3885 11.4628 21.376 11.2955C21.3677 11.1951 21.376 11.0989 21.3885 11.011C21.4218 10.852 21.5301 10.8227 21.5801 10.8102C21.6509 10.7893 21.7425 10.7976 21.8258 10.8813C21.8466 10.9022 21.8591 10.9273 21.8841 10.965C21.9049 11.0026 21.9299 11.0947 21.9424 11.1365L22.1381 11.5298C22.2131 11.6888 22.2839 11.8435 22.3505 12.0067C22.4505 12.241 22.5421 12.4878 22.6212 12.7305C22.8753 13.4584 23.121 14.2743 23.2417 15.0901C23.325 15.6507 23.3459 16.2071 23.2751 16.7426C23.1626 17.5835 22.9086 18.3659 22.5671 19.1147C21.8008 20.8175 20.6514 22.3738 20.085 24.1728C19.9434 24.6204 19.8018 25.1141 19.731 25.6036C19.6977 25.8588 19.6769 26.1098 19.6936 26.3567C20.2974 27.1934 20.9554 27.9925 21.6426 28.7497C21.6426 28.7497 21.6426 28.7469 21.6426 28.7413C21.5176 28.3941 21.4385 28.0385 21.4094 27.6912C21.3427 27.0051 21.3885 26.3232 21.5343 25.658C21.68 24.997 21.9299 24.3569 22.2672 23.7502L22.2464 23.7963L22.2381 23.8214L22.2589 23.7921ZM6.3296 17.3869C6.3296 17.3869 7.63726 19.462 9.74451 20.0268C11.8518 20.5958 13.2885 20.5581 14.2755 21.0518C15.2625 21.5538 16.4619 22.1814 16.4619 22.1814L16.3078 21.8258C16.3078 21.8258 14.1048 19.4118 12.5764 18.8554C11.048 18.2989 9.43217 18.1023 8.20363 17.935C6.97093 17.7718 6.33376 17.3785 6.33376 17.3785L6.3296 17.3869ZM16.0413 4.56398C15.9705 4.55561 15.9413 4.53888 16.0205 4.50541L16.0288 4.53888L16.0371 4.57235L16.0413 4.56398Z" fill="#22364A"/>
<path fill-rule="evenodd" clip-rule="evenodd" d="M9.87409 45.8903H0V34.0171H0.703805V35.7993C0.703805 37.0712 0.953677 38.2844 1.41177 39.3889C1.88237 40.5352 2.57784 41.5686 3.4399 42.4346C4.30196 43.3006 5.33476 43.9993 6.48 44.4762C7.57944 44.9364 8.78715 45.1875 10.0532 45.1875H11.8814V45.8945H9.87826L9.87409 45.8903Z" fill="#22364A"/>
</svg>
