<svg width="262" height="63" viewBox="0 0 262 63" fill="none" xmlns="http://www.w3.org/2000/svg">
<path d="M65.453 0.0239965C65.705 0.0239965 65.939 0.0239965 66.155 0.0239965V0.563999C64.463 0.635998 62.861 1.032 61.349 1.752C59.837 2.472 58.559 3.336 57.515 4.344C56.471 5.316 55.499 6.504 54.599 7.908C53.159 10.14 51.935 12.696 50.927 15.576L40.559 45.654C39.839 47.922 39.443 49.92 39.371 51.648H38.885L27.869 20.814L19.175 48.03C17.879 52.098 15.791 55.266 12.911 57.534C10.823 59.226 8.48296 60.072 5.89096 60.072C4.99096 60.072 4.03696 59.964 3.02896 59.748L3.13696 59.208C3.67696 59.316 4.28896 59.37 4.97296 59.37C5.69296 59.37 6.62896 59.154 7.78096 58.722C8.96896 58.29 10.139 57.516 11.291 56.4C13.631 54.132 15.431 51.288 16.691 47.868L5.78296 17.034C5.35096 15.954 4.68496 15.144 3.78496 14.604C2.88496 14.028 1.96696 13.74 1.03096 13.74H0.598961V13.2H12.587V13.74H12.101C11.345 13.74 10.769 13.992 10.373 14.496C10.013 14.964 9.83296 15.414 9.83296 15.846C9.83296 16.278 9.88696 16.674 9.99496 17.034L18.203 43.332L28.247 12.336L28.733 12.39L39.425 42.306L47.417 15.576C48.353 12.444 49.793 9.618 51.737 7.098C55.337 2.382 59.909 0.0239965 65.453 0.0239965ZM56.5484 50.46C57.4844 50.46 58.2764 50.136 58.9244 49.488C59.6084 48.804 59.9684 47.994 60.0044 47.058V16.818C60.0044 15.954 59.6624 15.234 58.9784 14.658C58.2944 14.046 57.4844 13.74 56.5484 13.74H55.9004L55.8464 13.2H66.8084C67.9244 13.2 69.1304 13.092 70.4264 12.876C71.7584 12.66 72.6944 12.444 73.2344 12.228V19.032H72.6944V18.06C72.6944 17.196 72.3884 16.458 71.7764 15.846C71.2004 15.234 70.4984 14.91 69.6704 14.874H63.5144V31.56H73.7744C74.4944 31.524 75.1064 31.254 75.6104 30.75C76.1144 30.246 76.3664 29.616 76.3664 28.86V28.104H76.9064V36.636H76.3664V35.826C76.3664 35.106 76.1144 34.494 75.6104 33.99C75.1424 33.486 74.5484 33.216 73.8284 33.18H63.5144V49.326H75.0164C77.6804 49.326 79.7144 48.732 81.1184 47.544C82.5224 46.356 83.6924 44.592 84.6284 42.252H85.1684L82.0364 51H55.8464V50.46H56.5484ZM99.2439 50.46H99.9459V51H88.1199V50.46H88.8219C89.7579 50.46 90.5499 50.136 91.1979 49.488C91.8819 48.804 92.2419 47.994 92.2779 47.058V17.088C92.2419 16.152 91.8819 15.36 91.1979 14.712C90.5499 14.064 89.7579 13.74 88.8219 13.74H88.1199V13.2H99.9459V13.74H99.2439C98.3079 13.74 97.4979 14.064 96.8139 14.712C96.1659 15.36 95.8239 16.152 95.7879 17.088V47.058C95.7879 47.994 96.1299 48.804 96.8139 49.488C97.4979 50.136 98.3079 50.46 99.2439 50.46ZM136.666 59.1V59.64C135.298 59.964 133.93 60.126 132.562 60.126C126.658 60.126 120.934 57.174 115.39 51.27L97.5159 32.208L110.26 16.224C110.548 15.864 110.692 15.54 110.692 15.252C110.692 14.964 110.638 14.712 110.53 14.496C110.242 13.956 109.72 13.686 108.964 13.686H108.424V13.2H119.818V13.686H119.602C117.226 13.686 115.282 14.532 113.77 16.224L101.188 30.75L119.548 50.352C121.924 52.908 124.588 54.996 127.54 56.616C130.528 58.272 133.57 59.1 136.666 59.1ZM127.429 11.364C129.769 10.392 132.019 9.906 134.179 9.906C135.979 9.906 137.833 10.572 139.741 11.904C140.785 12.624 141.955 14.028 143.251 16.116C144.115 17.556 145.213 20.166 146.545 23.946L153.133 42.63C154.645 46.806 156.175 50.118 157.723 52.566C159.307 55.05 160.747 56.904 162.043 58.128C163.339 59.388 164.689 60.27 166.093 60.774C167.497 61.278 168.649 61.53 169.549 61.53C170.485 61.53 171.313 61.458 172.033 61.314L172.087 61.854C170.359 62.43 168.667 62.718 167.011 62.718C165.355 62.718 163.699 62.286 162.043 61.422C160.387 60.594 158.839 59.424 157.399 57.912C154.303 54.78 151.675 50.01 149.515 43.602L147.409 37.446H132.613L128.887 47.058C128.707 47.49 128.617 47.922 128.617 48.354C128.617 48.786 128.797 49.254 129.157 49.758C129.553 50.226 130.147 50.46 130.939 50.46H131.371V51H120.517V50.46H121.003C121.867 50.46 122.713 50.208 123.541 49.704C124.369 49.164 125.053 48.372 125.593 47.328L138.985 15.252C137.041 12.48 134.629 11.094 131.749 11.094C130.453 11.094 129.067 11.364 127.591 11.904L127.429 11.364ZM133.207 35.826H146.869L142.603 23.244C141.775 20.832 141.019 18.942 140.335 17.574L133.207 35.826ZM153.097 23.946C151.981 22.614 151.423 21.3 151.423 20.004C151.423 18.672 151.729 17.538 152.341 16.602C152.953 15.63 153.943 14.82 155.311 14.172C156.679 13.488 158.227 13.146 159.955 13.146H182.095C183.211 13.146 184.435 13.038 185.767 12.822C187.135 12.606 188.089 12.39 188.629 12.174V18.978L188.089 18.924V18.006C188.089 17.142 187.783 16.404 187.171 15.792C186.559 15.144 185.839 14.802 185.011 14.766H174.751V47.112C174.787 48.408 175.363 49.38 176.479 50.028C177.019 50.316 177.595 50.46 178.207 50.46H178.909V51H167.083V50.46H167.785C168.721 50.46 169.513 50.136 170.161 49.488C170.845 48.84 171.205 48.066 171.241 47.166V14.766H159.955C157.075 14.766 154.987 15.684 153.691 17.52C153.007 18.456 152.665 19.446 152.665 20.49C152.665 21.498 152.953 22.56 153.529 23.676L153.097 23.946ZM192.239 11.364C194.579 10.392 196.829 9.906 198.989 9.906C200.789 9.906 202.643 10.572 204.551 11.904C205.595 12.624 206.765 14.028 208.061 16.116C208.925 17.556 210.023 20.166 211.355 23.946L217.943 42.63C219.455 46.806 220.985 50.118 222.533 52.566C224.117 55.05 225.557 56.904 226.853 58.128C228.149 59.388 229.499 60.27 230.903 60.774C232.307 61.278 233.459 61.53 234.359 61.53C235.295 61.53 236.123 61.458 236.843 61.314L236.897 61.854C235.169 62.43 233.477 62.718 231.821 62.718C230.165 62.718 228.509 62.286 226.853 61.422C225.197 60.594 223.649 59.424 222.209 57.912C219.113 54.78 216.485 50.01 214.325 43.602L212.219 37.446H197.423L193.697 47.058C193.517 47.49 193.427 47.922 193.427 48.354C193.427 48.786 193.607 49.254 193.967 49.758C194.363 50.226 194.957 50.46 195.749 50.46H196.181V51H185.327V50.46H185.813C186.677 50.46 187.523 50.208 188.351 49.704C189.179 49.164 189.863 48.372 190.403 47.328L203.795 15.252C201.851 12.48 199.439 11.094 196.559 11.094C195.263 11.094 193.877 11.364 192.401 11.904L192.239 11.364ZM198.017 35.826H211.679L207.413 23.244C206.585 20.832 205.829 18.942 205.145 17.574L198.017 35.826ZM241.051 21.786C243.319 19.23 246.415 17.952 250.339 17.952C253.147 17.952 255.469 18.69 257.305 20.166C259.177 21.642 260.113 23.532 260.113 25.836C260.113 28.14 259.339 30.192 257.791 31.992C256.243 33.792 254.551 34.782 252.715 34.962C255.019 35.358 256.999 36.42 258.655 38.148C260.311 39.84 261.139 41.892 261.139 44.304C261.139 46.68 260.599 48.786 259.519 50.622C257.251 54.474 253.651 56.94 248.719 58.02C247.351 58.308 246.019 58.452 244.723 58.452C243.463 58.452 242.221 58.344 240.997 58.128L241.105 57.588C241.285 57.588 241.465 57.588 241.645 57.588C244.273 57.588 246.757 57.066 249.097 56.022C251.473 54.978 253.399 53.43 254.875 51.378C256.351 49.362 257.089 46.986 257.089 44.25C257.089 41.514 256.081 39.408 254.065 37.932C252.049 36.42 249.367 35.664 246.019 35.664L246.127 35.124C246.127 35.124 246.145 35.124 246.181 35.124C247.801 35.124 249.367 34.782 250.879 34.098C252.391 33.378 253.615 32.334 254.551 30.966C255.523 29.598 256.009 28.086 256.009 26.43C256.009 24.414 255.433 22.776 254.281 21.516C253.129 20.22 251.455 19.572 249.259 19.572C247.099 19.572 245.425 20.22 244.237 21.516C243.085 22.776 242.509 24.36 242.509 26.268C242.509 26.448 242.509 26.628 242.509 26.808H241.969L241.051 21.786Z" fill="white"/>
</svg>
