<svg width="232" height="82" viewBox="0 0 232 82" fill="none" xmlns="http://www.w3.org/2000/svg">
<g clip-path="url(#clip0_1011_550)">
<path d="M31.3698 46.65C35.5898 44.97 38.8098 44.57 43.9198 43.49C48.1655 42.5717 52.4805 42.0098 56.8198 41.81L56.7198 46.23C55.4238 46.5936 54.1084 46.8841 52.7798 47.1C51.3801 50.9126 50.2768 54.8275 49.4798 58.81C48.7602 63.0634 48.4687 67.3783 48.6098 71.69C48.6098 74.24 48.8298 78.23 48.8298 78.23L40.9698 80.92C40.9698 80.92 38.9698 70.65 38.9098 65.31C38.9098 60.52 38.5298 52.44 38.5798 50.76C37.2798 51.29 36.5798 51.19 35.2998 51.63C34.0262 52.1276 32.7868 52.7089 31.5898 53.37C31.9393 62.6651 32.962 71.9227 34.6498 81.07C34.6498 81.07 30.1098 81.51 28.2998 81.45C26.2495 81.2979 24.2136 80.9903 22.2098 80.53C22.2098 80.53 21.7998 71.67 21.9998 66.24C22.3098 57.24 22.9998 50.56 23.3198 43.99C22.2098 43.34 19.5398 42.06 19.5398 42.06C18.3585 44.5179 17.3559 47.0578 16.5398 49.66C15.0998 54.52 15.1898 57.48 14.5898 62.53C13.8198 69.26 13.2898 79.81 13.2898 79.81L7.01982 77.11C7.01982 77.11 7.52982 69.29 8.70982 62.57C9.90019 55.0608 11.5703 47.6356 13.7098 40.34C12.1411 39.4042 10.4613 38.6685 8.70982 38.15C6.12808 37.4549 3.48626 37.0063 0.819824 36.81L1.03983 32.23C6.68983 33.3 9.86983 34.03 15.4298 35.51C18.2166 36.1404 20.9645 36.9317 23.6598 37.88C24.2998 33.33 25.1598 29.04 26.2998 23.13C26.5898 21.64 26.9598 19.27 27.4198 16.8C26.8037 15.4857 26.0743 14.2276 25.2398 13.04C22.403 8.64819 19.3457 4.40276 16.0798 0.319962L22.6198 0.619961C24.8398 2.98996 25.0098 3.86996 26.6198 5.88996C27.9198 7.51996 29.3498 8.88996 30.0298 9.99996C31.2421 6.66075 32.641 3.39227 34.2198 0.209961L39.0198 0.859961C36.4115 5.71064 34.5697 10.9358 33.5598 16.35C31.8764 26.3584 31.1432 36.5035 31.3698 46.65ZM47.3098 48.1C45.9598 48.39 44.6298 48.7 43.4298 49.05C43.3098 50.35 43.1798 53.8 43.1498 56.25C43.0523 60.6972 43.3468 65.1444 44.0298 69.54C44.8998 64.74 44.5698 60.77 45.5498 55.82C46.0298 53.38 46.9598 49.43 47.3098 48.1Z" fill="white"/>
<path d="M0 45.6399C0 45.6399 2.54 40.6399 5.86 40.1199C8.13109 39.9234 10.4 40.5207 12.28 41.8099C12.28 41.8099 11.97 46.0499 6.62 47.5499C2.93 48.5399 0 45.6399 0 45.6399Z" fill="white"/>
<path d="M17.13 5.81006C19.859 7.51414 21.9178 10.1062 22.96 13.1501C24.33 16.7001 23.51 22.9001 23.51 22.9001C23.51 22.9001 17.73 19.8101 16.28 16.2001C15.5126 14.5422 15.1875 12.7139 15.3365 10.8931C15.4855 9.07233 16.1033 7.32115 17.13 5.81006Z" fill="white"/>
<path d="M11.9698 21.3601C15.2298 21.1401 16.9698 21.2501 19.8498 24.3001C22.7298 27.3501 22.1698 35.4301 22.1698 35.4301C22.1698 35.4301 16.4598 34.2401 13.5098 30.6801C10.5598 27.1201 10.9498 24.9001 11.9698 21.3601Z" fill="white"/>
<path d="M1.82008 14.53C3.72917 14.755 5.47931 15.7034 6.71008 17.18C8.45008 19.09 8.88009 23.44 8.88009 23.44C8.88009 23.44 5.02009 22.44 3.52009 20.62C2.77879 19.8095 2.23863 18.8359 1.94331 17.7779C1.64798 16.7199 1.60577 15.6073 1.82008 14.53Z" fill="white"/>
<path d="M4.95992 7.03003C4.09992 10.27 4.16992 12.43 6.50992 15.47C9.50992 19.37 14.9099 19.62 14.9099 19.62C14.9099 19.62 14.2599 14.33 12.1799 11.55C11.355 10.3378 10.2872 9.31016 9.04442 8.5321C7.80159 7.75404 6.41073 7.24255 4.95992 7.03003Z" fill="white"/>
<path d="M0.609808 23.27C1.81082 23.08 3.03789 23.1353 4.21692 23.4327C5.39596 23.73 6.50253 24.2632 7.46981 25C10.0098 26.76 11.6798 31.72 11.6798 31.72C11.6798 31.72 5.67981 31.9 3.27981 29.54C2.39275 28.7622 1.69215 27.7948 1.22994 26.7094C0.767738 25.624 0.555787 24.4485 0.609808 23.27Z" fill="white"/>
<path d="M10.8798 2.37988C11.7442 2.62197 12.5261 3.09545 13.1411 3.74925C13.7561 4.40305 14.181 5.21236 14.3698 6.08988C14.8198 7.80988 13.5798 10.5599 13.5798 10.5599C13.5798 10.5599 10.9798 9.05988 10.3298 7.41988C9.96392 6.60704 9.82197 5.71115 9.91867 4.825C10.0154 3.93886 10.3472 3.09467 10.8798 2.37988Z" fill="white"/>
<path d="M29.4201 0C29.4201 0 31.2001 1.5 31.4201 2.82C31.6401 4.4 29.6801 6.53 29.6801 6.53C29.6801 6.53 27.4201 4.64 27.5001 3.04C27.5101 1.62 29.4201 0 29.4201 0Z" fill="white"/>
<path d="M37.9302 12.42C37.9302 12.42 43.0702 11.56 45.0302 10.32C46.9902 9.08004 47.8702 4.05004 47.8702 4.05004C47.8702 4.05004 43.3402 3.79004 41.2502 5.48004C39.1602 7.17004 37.9302 12.42 37.9302 12.42Z" fill="white"/>
<path d="M49.2601 11.9799C49.6192 13.8732 49.5506 15.8229 49.0592 17.6864C48.5678 19.5498 47.6662 21.2798 46.4201 22.7499C43.5501 26.4699 35.7401 28.3299 35.7401 28.3299C35.7401 28.3299 35.5201 20.4099 38.4401 16.8599C39.679 15.1926 41.3231 13.8693 43.2166 13.0153C45.1101 12.1613 47.1903 11.8049 49.2601 11.9799Z" fill="white"/>
<path d="M47.8901 9.55994C47.8901 9.55994 50.4501 10.2599 51.8901 9.64994C53.1246 8.99902 54.0935 7.93816 54.6301 6.64994C53.4308 6.22813 52.1345 6.16557 50.9001 6.46994C49.2901 6.99994 47.9301 9.55994 47.8901 9.55994Z" fill="white"/>
<path d="M34.1899 42.94C35.0999 43.02 42.3399 40.73 45.5499 36.84C48.6099 33.13 48.3898 31.69 48.3898 28.11C46.2822 27.6044 44.0738 27.7124 42.0255 28.4211C39.9772 29.1299 38.1744 30.4099 36.8299 32.11C33.9999 35.4 33.8199 40.55 34.1899 42.94Z" fill="white"/>
<path d="M47.1699 40.31C47.1699 40.41 47.8699 35.31 49.8899 33.18C53.1999 29.63 54.6699 29.91 57.9899 30.3C58.11 31.7432 57.8737 33.1938 57.3017 34.5242C56.7298 35.8546 55.8398 37.0242 54.7099 37.93C52.3999 39.97 47.2599 40.31 47.1699 40.31Z" fill="white"/>
<path d="M50.3999 29.5701C50.3399 29.5701 48.8999 24.7001 50.3999 22.2301C51.0762 20.9631 52.1357 19.9423 53.4271 19.3136C54.7185 18.685 56.1755 18.4808 57.5899 18.7301C57.822 19.9259 57.8004 21.1571 57.5265 22.3439C57.2526 23.5308 56.7325 24.647 55.9999 25.6201C54.4599 27.8101 50.3999 29.5901 50.3999 29.5701Z" fill="white"/>
<path d="M81.8199 57.6V48.7H82.3899C83.5265 48.5886 84.6718 48.7927 85.6999 49.29C86.3086 49.7315 86.8006 50.3146 87.1334 50.9888C87.4661 51.6631 87.6297 52.4083 87.6099 53.16C87.6264 53.7841 87.5152 54.4049 87.2831 54.9845C87.0509 55.564 86.7027 56.0899 86.2599 56.53C85.3899 57.4 84.6799 57.6 82.3599 57.6H81.8199ZM81.8199 57.92H82.4999C82.8611 57.8923 83.2242 57.9374 83.5677 58.0524C83.9113 58.1675 84.2282 58.3503 84.4999 58.59C85.8666 60.1832 86.9491 61.9997 87.6999 63.96C88.6999 66.23 88.6999 66.37 89.0899 67.13H93.6699V66.81C92.2799 66.7 91.8899 66.19 89.1999 60.61C88.1999 58.5 87.8999 58.16 86.5999 57.61C87.4257 57.4674 88.2207 57.1832 88.9499 56.77C89.5743 56.376 90.0865 55.8275 90.4369 55.1775C90.7873 54.5276 90.964 53.7982 90.9499 53.06C90.9736 52.1735 90.7271 51.3008 90.243 50.5578C89.759 49.8147 89.0603 49.2365 88.2399 48.9C86.9899 48.36 85.9499 48.25 82.5599 48.25H75.8799V48.56C76.3181 48.5316 76.7568 48.6074 77.16 48.7812C77.5633 48.9551 77.9196 49.2219 78.1999 49.56C78.6499 50.12 78.7999 50.86 78.7999 52.56V62.81C78.7999 64.53 78.6499 65.27 78.1999 65.81C77.9196 66.1481 77.5633 66.4149 77.16 66.5888C76.7568 66.7626 76.3181 66.8384 75.8799 66.81V67.12H84.7399V66.81C84.3014 66.8409 83.8619 66.7662 83.4583 66.5922C83.0546 66.4182 82.6985 66.15 82.4199 65.81C81.9599 65.24 81.8199 64.47 81.8199 62.81V57.92Z" fill="white"/>
<path d="M107.43 54.4902H97.0298V54.8102C98.8398 55.0302 99.0298 55.4902 99.0298 58.6202V63.0602C99.0298 66.2002 98.8098 66.6602 97.0298 66.8802V67.1602H108.53L108.65 63.4002H108.37C107.8 66.0002 106.84 66.7702 104.16 66.7702C102.68 66.7702 101.92 66.4302 101.47 65.6102C101.141 64.6951 101.024 63.717 101.13 62.7502V60.7502H101.82C103.52 60.7502 104.11 61.3402 104.31 63.1802H104.59L104.65 58.1802H104.36C104.14 59.9902 103.71 60.3602 101.88 60.3602H101.17V54.9602H103.61C104.566 54.8405 105.533 55.0831 106.32 55.6402C106.912 56.1677 107.272 56.9084 107.32 57.7002H107.6L107.43 54.4902Z" fill="white"/>
<path d="M113.14 67.1301H113.42C113.54 66.8201 113.7 66.6801 113.98 66.6801C114.096 66.6803 114.211 66.7006 114.32 66.7401C115.281 67.2519 116.352 67.523 117.44 67.5301C117.985 67.5676 118.531 67.4915 119.045 67.3065C119.559 67.1216 120.029 66.8319 120.425 66.4557C120.82 66.0796 121.134 65.6254 121.345 65.1217C121.556 64.6181 121.66 64.0761 121.65 63.5301C121.65 61.8301 120.65 60.6801 118.54 59.6801C117.632 59.3842 116.773 58.9563 115.99 58.4101C115.718 58.1985 115.496 57.9291 115.34 57.6213C115.184 57.3135 115.099 56.9749 115.09 56.6301C115.096 56.3351 115.162 56.0443 115.283 55.7751C115.404 55.5059 115.578 55.2638 115.794 55.0632C116.011 54.8626 116.265 54.7076 116.543 54.6074C116.821 54.5072 117.115 54.464 117.41 54.4801C118.97 54.4801 119.84 55.4801 120.63 58.1601H120.91L120.82 54.4401H120.54C120.45 54.7801 120.34 54.9101 120.14 54.9101C119.94 54.9101 119.88 54.9101 119.14 54.6101C118.546 54.3009 117.889 54.1332 117.22 54.1201C116.253 54.1384 115.331 54.5349 114.652 55.2247C113.974 55.9144 113.593 56.8426 113.59 57.8101C113.59 59.4001 114.27 60.1601 116.67 61.3201C117.455 61.633 118.182 62.0759 118.82 62.6301C119.321 63.1751 119.596 63.89 119.59 64.6301C119.599 64.9681 119.538 65.3043 119.41 65.6174C119.283 65.9305 119.092 66.2139 118.849 66.4497C118.607 66.6854 118.319 66.8685 118.002 66.9873C117.685 67.1062 117.348 67.1582 117.01 67.1401C115.29 67.1401 114.13 65.8801 113.41 63.2101H113.14V67.1301Z" fill="white"/>
<path d="M128.35 63.0302C128.35 66.1702 128.12 66.6302 126.35 66.8502V67.1302H132.42V66.8102C130.58 66.4702 130.42 66.1302 130.42 63.1002V58.4802C130.42 55.4802 130.55 55.1102 132.42 54.7802V54.4902H126.32V54.8102C128.12 55.0302 128.32 55.4902 128.32 58.6202L128.35 63.0302Z" fill="white"/>
<path d="M140.67 54.89H141.92C142.664 54.8218 143.414 54.9103 144.122 55.1497C144.83 55.3891 145.48 55.7741 146.03 56.28C146.684 56.9164 147.199 57.6811 147.543 58.5261C147.887 59.371 148.053 60.278 148.03 61.19C148.054 62.5061 147.681 63.799 146.96 64.9C146.546 65.5239 145.975 66.0278 145.304 66.3613C144.634 66.6948 143.887 66.8461 143.14 66.8C141.33 66.8 140.7 66.09 140.7 63.96L140.67 54.89ZM138.67 63.03C138.67 66.17 138.43 66.63 136.67 66.85V67.13H142.24C145.06 67.13 145.8 67.13 146.85 66.71C147.955 66.3176 148.901 65.5745 149.544 64.594C150.186 63.6135 150.491 62.4496 150.41 61.28C150.474 59.7623 150.003 58.2704 149.077 57.0655C148.152 55.8606 146.833 55.0197 145.35 54.69C144.249 54.4901 143.127 54.4229 142.01 54.49H136.67V54.81C138.47 55.03 138.67 55.49 138.67 58.62V63.03Z" fill="white"/>
<path d="M165.37 54.4902H154.97V54.8102C156.78 55.0302 156.97 55.4902 156.97 58.6202V63.0602C156.97 66.2002 156.76 66.6602 154.97 66.8802V67.1602H166.47L166.58 63.4002H166.3C165.74 66.0002 164.78 66.7702 162.09 66.7702C160.62 66.7702 159.86 66.4302 159.4 65.6102C159.076 64.6939 158.96 63.717 159.06 62.7502V60.7502H159.72C161.41 60.7502 162 61.3402 162.2 63.1802H162.48L162.54 58.1802H162.27C162.03 59.9902 161.61 60.3602 159.77 60.3602H159.06V54.9602H161.49C162.45 54.839 163.42 55.0816 164.21 55.6402C164.513 55.8971 164.761 56.2114 164.942 56.565C165.122 56.9186 165.23 57.3045 165.26 57.7002H165.54L165.37 54.4902Z" fill="white"/>
<path d="M181.87 63.9402L174.14 54.4902H170.39V54.8102C172.21 55.0302 172.39 55.4902 172.39 58.6202V63.0602C172.39 66.2002 172.17 66.6602 170.39 66.8802V67.1602H174.89V66.8102C173.06 66.4702 172.89 66.1302 172.89 63.1002V56.3302L181.89 67.1302H182.38V58.5902C182.38 55.4602 182.61 55.0002 184.38 54.7802V54.4902H179.89V54.8102C181.72 55.1402 181.89 55.4902 181.89 58.5102L181.87 63.9402Z" fill="white"/>
<path d="M200.37 54.4402H200.09C199.92 54.8002 199.81 54.9102 199.58 54.9102C199.446 54.9099 199.313 54.8827 199.19 54.8302C198.156 54.375 197.04 54.1335 195.91 54.1202C194.99 54.0737 194.07 54.2215 193.211 54.554C192.352 54.8865 191.573 55.3963 190.924 56.05C190.275 56.7038 189.771 57.4869 189.444 58.3484C189.118 59.2099 188.977 60.1305 189.03 61.0502C189.03 64.9802 191.61 67.5002 195.62 67.5002C198.62 67.5002 200.32 66.1402 200.62 63.3702H200.33C199.88 65.8002 198.61 66.8702 196.24 66.8702C193.18 66.8702 191.31 64.6102 191.31 60.8702C191.31 57.1302 193.31 54.5602 195.98 54.5602C196.47 54.5477 196.956 54.6423 197.405 54.8375C197.854 55.0327 198.255 55.3237 198.58 55.6902C199.252 56.4114 199.737 57.2872 199.99 58.2402L200.16 58.6902H200.45L200.37 54.4402Z" fill="white"/>
<path d="M215.42 54.4902H205.01V54.8102C206.82 55.0302 207.01 55.4902 207.01 58.6202V63.0602C207.01 66.2002 206.78 66.6602 205.01 66.8802V67.1602H216.52L216.63 63.4002H216.36C215.78 66.0002 214.83 66.7702 212.14 66.7702C210.67 66.7702 209.9 66.4302 209.45 65.6102C209.126 64.6939 209.01 63.717 209.11 62.7502V60.7502H209.76C211.46 60.7502 212.05 61.3402 212.25 63.1802H212.53L212.59 58.1802H212.31C212.07 59.9902 211.65 60.3602 209.82 60.3602H209.11V54.9602H211.54C212.499 54.8409 213.469 55.0834 214.26 55.6402C214.562 55.8971 214.811 56.2114 214.991 56.565C215.171 56.9186 215.28 57.3045 215.31 57.7002H215.6L215.42 54.4902Z" fill="white"/>
<path d="M221.13 67.1301H221.4C221.429 67.0014 221.502 66.8867 221.606 66.8049C221.709 66.723 221.838 66.679 221.97 66.6801C222.086 66.6829 222.2 66.7031 222.31 66.7401C223.267 67.2518 224.334 67.523 225.42 67.5301C225.965 67.5691 226.513 67.494 227.028 67.3097C227.543 67.1254 228.014 66.8359 228.411 66.4597C228.808 66.0834 229.122 65.6286 229.334 65.1242C229.545 64.6199 229.65 64.077 229.64 63.5301C229.64 61.8301 228.64 60.6801 226.53 59.6801C225.622 59.3842 224.763 58.9563 223.98 58.4101C223.707 58.1985 223.485 57.9291 223.33 57.6213C223.174 57.3135 223.089 56.9749 223.08 56.6301C223.085 56.3355 223.149 56.045 223.269 55.7758C223.389 55.5067 223.562 55.2645 223.778 55.0637C223.993 54.863 224.247 54.7078 224.524 54.6076C224.801 54.5073 225.096 54.4639 225.39 54.4801C226.94 54.4801 227.82 55.4801 228.62 58.1601H228.9L228.82 54.4401H228.54C228.45 54.7801 228.35 54.9101 228.15 54.9101C227.95 54.9101 227.89 54.9101 227.15 54.6101C226.557 54.2999 225.899 54.1321 225.23 54.1201C224.258 54.1332 223.33 54.5271 222.646 55.2171C221.961 55.9072 221.575 56.8382 221.57 57.8101C221.57 59.4001 222.25 60.1601 224.66 61.3201C225.447 61.6347 226.177 62.0774 226.82 62.6301C227.322 63.1739 227.594 63.8904 227.58 64.6301C227.59 64.9676 227.53 65.3036 227.404 65.6167C227.277 65.9298 227.087 66.2133 226.846 66.4492C226.604 66.6852 226.316 66.8684 226 66.9873C225.684 67.1062 225.347 67.1583 225.01 67.1401C223.28 67.1401 222.12 65.8801 221.42 63.2101H221.14L221.13 67.1301Z" fill="white"/>
<path d="M82.44 24.35H83.6C86.4 24.35 86.94 24.41 87.98 24.86C89.43 25.48 90.27 27.09 90.27 29.19C90.27 31.99 88.43 33.72 85.43 33.72C83.25 33.72 82.43 32.72 82.43 30.04L82.44 24.35ZM82.44 15.7H83.71C85.47 15.7 86.17 15.81 86.9 16.27C87.476 16.6935 87.9382 17.2531 88.2453 17.8987C88.5524 18.5443 88.6949 19.2559 88.66 19.97C88.6829 20.5594 88.5704 21.1462 88.3312 21.6853C88.0919 22.2244 87.7323 22.7015 87.28 23.08C86.1543 23.7327 84.8574 24.029 83.56 23.93H82.44V15.7ZM76.5 15.28V15.58C76.9384 15.55 77.3776 15.6251 77.7811 15.799C78.1847 15.9729 78.5408 16.2407 78.82 16.58C79.27 17.14 79.41 17.88 79.41 19.58V29.81C79.41 31.54 79.27 32.27 78.82 32.81C78.5398 33.1481 78.1834 33.415 77.7802 33.5888C77.3769 33.7626 76.9382 33.8384 76.5 33.81V34.12H86.62C89 34.12 90.19 33.95 91.2 33.44C91.9597 33.0158 92.587 32.3895 93.0124 31.6305C93.4378 30.8715 93.6447 30.0094 93.61 29.14C93.6217 28.3869 93.4715 27.64 93.1696 26.9499C92.8677 26.2598 92.4211 25.6426 91.86 25.14C91.04 24.44 90.25 24.14 88.37 23.85C89.159 23.6333 89.8944 23.2553 90.53 22.74C90.9712 22.3303 91.3199 21.8311 91.5527 21.2758C91.7855 20.7205 91.8971 20.1219 91.88 19.52C91.9031 18.8524 91.7542 18.19 91.4478 17.5964C91.1414 17.0028 90.6876 16.4979 90.13 16.13C89.08 15.44 88.21 15.28 85.6 15.28H76.5Z" fill="white"/>
<path d="M102.71 28.62H98.8198L100.82 23.87L102.71 28.62ZM108.71 34.14V33.86C107.24 33.72 106.96 33.43 106.05 31.2L101.82 21.49H101.25L97.6898 30.2C96.6398 33.01 96.0098 33.8 94.7998 33.86V34.14H99.0098V33.86C98.8204 33.874 98.6302 33.8482 98.4514 33.7843C98.2726 33.7203 98.1092 33.6196 97.9716 33.4887C97.8341 33.3577 97.7255 33.1995 97.6528 33.024C97.5802 32.8486 97.5451 32.6598 97.5498 32.47C97.6217 31.7281 97.8392 31.0077 98.1898 30.35L98.6498 29.11H102.91L103.85 31.25C104.096 31.6749 104.243 32.1501 104.28 32.64C104.28 33.38 103.74 33.77 102.56 33.86V34.14H108.71Z" fill="white"/>
<path d="M120.7 30.94L112.95 21.49H109.21V21.81C111.02 22.04 111.21 22.48 111.21 25.63V30.07C111.21 33.21 110.98 33.66 109.21 33.89V34.17H113.7V33.89C111.87 33.54 111.7 33.21 111.7 30.18V23.33L120.7 34.14H121.18V25.6C121.18 22.45 121.4 22.01 123.18 21.78V21.49H118.72V21.81C120.55 22.15 120.72 22.48 120.72 25.51L120.7 30.94Z" fill="white"/>
<path d="M137.04 21.49H132.75V21.81C133.75 21.81 134.15 22.2 134.15 22.99C134.14 23.5153 133.942 24.0196 133.59 24.41L131.3 27.69L128.7 23.81C128.431 23.4882 128.261 23.0959 128.21 22.68C128.21 22.02 128.56 21.82 129.69 21.77V21.48H123.61V21.81C124.026 21.7956 124.437 21.9035 124.793 22.1203C125.148 22.3372 125.432 22.6534 125.61 23.03C125.76 23.25 125.9 23.48 126.03 23.68L128.58 27.24C129.066 27.8808 129.37 28.6408 129.46 29.44V30.07C129.46 33.21 129.23 33.66 127.46 33.89V34.17H133.55V33.89C131.96 33.63 131.55 33.1 131.55 31.23V28.96C131.514 28.335 131.718 27.7199 132.12 27.24L134.41 24.04C135.71 22.14 136.03 21.87 137.04 21.78V21.49Z" fill="white"/>
<path d="M144.65 28.62H140.82L142.82 23.87L144.65 28.62ZM150.58 34.14V33.86C149.11 33.72 148.83 33.43 147.93 31.2L143.71 21.49H143.15L139.59 30.2C138.54 33.01 137.92 33.8 136.7 33.86V34.14H140.91V33.86C139.98 33.8 139.44 33.29 139.44 32.47C139.518 31.7279 139.738 31.0079 140.09 30.35L140.55 29.11H144.82L145.75 31.25C145.995 31.6749 146.139 32.1505 146.17 32.64C146.17 33.38 145.64 33.77 144.45 33.86V34.14H150.58Z" fill="white"/>
<path d="M162.62 30.94L154.87 21.49H151.14V21.81C152.95 22.04 153.14 22.48 153.14 25.63V30.07C153.14 33.21 152.91 33.66 151.14 33.89V34.17H155.64V33.89C153.8 33.54 153.64 33.21 153.64 30.18V23.33L162.64 34.14H163.12V25.6C163.12 22.45 163.35 22.01 165.12 21.78V21.49H160.62V21.81C162.46 22.15 162.62 22.48 162.62 25.51V30.94Z" fill="white"/>
<path d="M181.01 29.81C181.01 31.54 180.87 32.27 180.41 32.81C180.13 33.1481 179.773 33.415 179.37 33.5888C178.967 33.7626 178.528 33.8384 178.09 33.81V34.12H186.94V33.81C186.502 33.8384 186.063 33.7626 185.66 33.5888C185.256 33.415 184.9 33.1481 184.62 32.81C184.18 32.24 184.04 31.48 184.04 29.81V15.7C189.49 15.7 191.11 16.7 191.86 20.39H192.18L191.96 15.28H173.26L173.01 20.39H173.31C174.14 16.54 175.49 15.72 181.01 15.7V29.81Z" fill="white"/>
<path d="M197.07 27.69V21.89H197.58C198.372 21.8273 199.167 21.9541 199.9 22.26C200.318 22.5396 200.658 22.9197 200.891 23.3652C201.123 23.8108 201.24 24.3076 201.23 24.81C201.237 25.2264 201.151 25.6391 200.978 26.018C200.805 26.3968 200.549 26.7323 200.23 27C199.64 27.58 199.13 27.7 197.55 27.7L197.07 27.69ZM192.97 21.49V21.81C194.78 22.04 194.97 22.48 194.97 25.63V30.07C194.97 33.21 194.74 33.66 192.97 33.89V34.17H199.05V33.89C197.21 33.54 197.05 33.21 197.05 30.18V28H197.64C197.876 27.9774 198.115 28.004 198.34 28.078C198.566 28.152 198.773 28.2718 198.95 28.43C199.802 29.51 200.477 30.7184 200.95 32.01L201.58 33.46L201.85 34.14H205V33.86C204.18 33.86 203.73 33.32 202.62 30.99C201.85 29.41 201.62 28.99 201.49 28.71C201.238 28.2836 200.851 27.953 200.39 27.77C202.48 27.38 203.55 26.33 203.55 24.72C203.559 24.1185 203.38 23.5292 203.04 23.0332C202.7 22.5371 202.214 22.1587 201.65 21.95C200.78 21.58 200.02 21.49 197.7 21.49H192.97Z" fill="white"/>
<path d="M216.07 21.49H205.67V21.81C207.47 22.04 207.67 22.48 207.67 25.63V30.07C207.67 33.21 207.45 33.66 205.67 33.89V34.17H217.17L217.28 30.41H217C216.44 33.01 215.47 33.77 212.79 33.77C211.32 33.77 210.55 33.44 210.1 32.62C209.777 31.7 209.66 30.72 209.76 29.75V27.75H210.41C212.1 27.75 212.7 28.34 212.9 30.18H213.19V25.18H212.91C212.68 26.98 212.26 27.35 210.43 27.35H209.71V21.95H212.15C213.106 21.8323 214.072 22.0747 214.86 22.63C215.453 23.1574 215.812 23.8981 215.86 24.69H216.16L216.07 21.49Z" fill="white"/>
<path d="M228.68 21.49H218.26V21.81C220.08 22.04 220.26 22.48 220.26 25.63V30.07C220.26 33.21 220.04 33.66 218.26 33.89V34.17H229.82L229.93 30.41H229.65C229.08 33.01 228.12 33.77 225.43 33.77C223.97 33.77 223.2 33.44 222.74 32.62C222.421 31.6989 222.306 30.72 222.4 29.75V27.75H223.06C224.75 27.75 225.36 28.34 225.55 30.18H225.82V25.18H225.53C225.31 26.98 224.89 27.35 223.05 27.35H222.33V21.95H224.82C225.779 21.8307 226.749 22.0731 227.54 22.63C228.132 23.1574 228.492 23.8981 228.54 24.69H228.82L228.68 21.49Z" fill="white"/>
<path d="M76.2002 42.03H231.22V40.75H76.2002" fill="white"/>
</g>
<defs>
<clipPath id="clip0_1011_550">
<rect width="231.22" height="81.5" fill="white"/>
</clipPath>
</defs>
</svg>
