<svg width="259" height="150" viewBox="0 0 259 150" fill="none" xmlns="http://www.w3.org/2000/svg">
<path d="M21.0101 107.352C20.9838 107.43 20.905 107.509 20.8262 107.509H17.7798C17.7273 107.509 17.701 107.483 17.6485 107.457L7.22231 98.859L4.75364 100.558V104.974C4.75364 106.281 5.14758 107.012 5.90919 107.117C6.01424 107.143 6.09303 107.221 6.06676 107.326C6.06676 107.43 5.96171 107.509 5.85667 107.509H1.78599C1.68094 107.509 1.60215 107.43 1.57589 107.326C1.57589 107.221 1.65468 107.143 1.75973 107.117C2.52134 107.012 2.88901 106.307 2.88901 104.974V92.2475C2.88901 90.9409 2.49508 90.2092 1.73347 90.1046C1.62842 90.0785 1.54963 90.0001 1.57589 89.8956C1.57589 89.7911 1.68094 89.7127 1.78599 89.7127H5.85667C5.96171 89.7127 6.0405 89.7911 6.06676 89.8956C6.06676 90.0001 5.98798 90.0785 5.88293 90.1046C5.12132 90.2092 4.75364 90.9147 4.75364 92.2475V99.1987L14.5758 92.4043C15.994 91.4113 16.3091 90.758 16.3091 90.3921C16.3091 90.3137 16.3091 90.1308 15.8626 90.0785C15.7576 90.0785 15.6788 89.974 15.6788 89.8695C15.6788 89.7649 15.7839 89.6865 15.8889 89.6865H20.8C20.905 89.6865 20.9838 89.7649 20.9838 89.8433C21.0101 89.9478 20.9313 90.0263 20.8525 90.0524C20.4848 90.1569 20.1172 90.3137 19.6707 90.5489C18.5414 91.0977 17.2283 91.9078 15.7051 92.9531L8.71927 97.7614L16.6243 104.268C18.1475 105.549 19.1717 106.228 19.7757 106.568L20.905 107.091C20.9838 107.143 21.0363 107.247 21.0101 107.352ZM28.4423 107.091C27.6807 106.986 27.3131 106.281 27.3131 104.948V92.2475C27.3131 90.9409 27.707 90.2092 28.4686 90.1046C28.5737 90.0785 28.6524 90.0001 28.6262 89.8956C28.6262 89.7911 28.5211 89.7127 28.4161 89.7127H24.3454C24.2404 89.7127 24.1616 89.7911 24.1353 89.8956C24.109 90.0001 24.1878 90.0785 24.2929 90.1046C25.0545 90.2092 25.4484 90.9409 25.4484 92.2475V104.948C25.4484 106.281 25.0545 107.012 24.3191 107.091C24.2141 107.091 24.1353 107.195 24.1353 107.3C24.1353 107.404 24.2404 107.483 24.3454 107.483H28.4161C28.5211 107.483 28.5999 107.404 28.6262 107.3C28.6524 107.195 28.5474 107.117 28.4423 107.091ZM54.2058 107.326C54.2058 107.43 54.1007 107.483 54.0219 107.483H49.2684C49.1897 107.483 49.1109 107.43 49.0846 107.352C49.0583 107.274 49.0846 107.169 49.1634 107.143C49.6361 106.829 49.8725 106.516 49.8725 106.176C49.8725 105.758 49.6886 105.183 49.2947 104.477L47.5877 101.42H36.8726L35.1393 104.504C34.8241 105.052 34.6665 105.523 34.6665 105.915C34.6665 106.568 35.0079 106.96 35.6908 107.117C35.7958 107.143 35.8484 107.221 35.8484 107.326C35.8484 107.43 35.7433 107.509 35.6382 107.509H31.3049C31.1999 107.509 31.1211 107.43 31.1211 107.352C31.1211 107.274 31.1474 107.169 31.2524 107.143C31.515 107.065 31.7514 106.934 31.9878 106.725C32.6181 106.202 33.3272 105.261 34.0362 103.981L42.519 88.9809C42.5453 88.9287 42.6241 88.8764 42.6766 88.8764C42.7554 88.8764 42.8079 88.9026 42.8342 88.9809L51.2119 104.085C52.2098 105.889 53.1553 106.882 54.0482 107.117C54.1533 107.143 54.232 107.221 54.2058 107.326ZM37.5029 100.296H46.9574L42.2564 91.7771L37.5029 100.296ZM76.8965 107.326C76.8965 107.43 76.7915 107.509 76.6864 107.509H73.2723C73.2198 107.509 73.1673 107.483 73.141 107.457L66.2865 101.211C64.9996 100.087 64.3693 99.7214 63.03 99.7214H59.9573V104.948C59.9573 106.281 60.3512 107.012 61.0865 107.091C61.1916 107.091 61.2704 107.195 61.2704 107.3C61.2704 107.404 61.1653 107.483 61.0603 107.483H56.9896C56.8845 107.483 56.8058 107.404 56.7795 107.3C56.7795 107.195 56.8583 107.117 56.9633 107.091C57.7249 106.986 58.0926 106.281 58.0926 104.948V92.2475C58.0926 90.9409 57.6987 90.2092 56.9371 90.1046C56.832 90.0785 56.7532 90.0001 56.7795 89.8956C56.7795 89.7911 56.8845 89.7127 56.9896 89.7127H66.4441C68.6238 89.7127 70.3834 90.1046 71.6703 90.8886C73.0622 91.7771 73.7713 93.0315 73.7713 94.6778C73.7713 97.7876 71.2501 99.643 66.9693 99.7214L67.0218 99.7475C67.0218 99.7475 67.0481 99.7475 67.0481 99.7736C67.2845 99.9566 67.7572 100.322 68.44 100.923L74.2177 105.967C74.848 106.49 75.6884 106.882 76.7389 107.091C76.844 107.117 76.9228 107.221 76.8965 107.326ZM71.8541 94.8607C71.8541 93.4496 71.3026 92.4304 70.1996 91.7249C69.2541 91.1499 67.9936 90.8364 66.4441 90.8364H59.9573V98.5454H66.7067C68.2037 98.5454 69.438 98.2841 70.3309 97.7353C71.3551 97.1081 71.8541 96.1412 71.8541 94.8607ZM101.925 107.326C101.925 107.43 101.82 107.483 101.741 107.483H96.9873C96.9085 107.483 96.8297 107.43 96.8034 107.352C96.7772 107.274 96.8034 107.169 96.8822 107.143C97.3549 106.829 97.5913 106.516 97.5913 106.176C97.5913 105.758 97.4075 105.183 97.0135 104.477L95.3065 101.42H84.5914L82.8581 104.504C82.5429 105.052 82.3854 105.523 82.3854 105.915C82.3854 106.568 82.7268 106.96 83.4096 107.117C83.5146 107.143 83.5672 107.221 83.5672 107.326C83.5672 107.43 83.4621 107.509 83.3571 107.509H79.0238C78.9187 107.509 78.8399 107.43 78.8399 107.352C78.8399 107.274 78.8662 107.169 78.9712 107.143C79.2339 107.065 79.4702 106.934 79.7066 106.725C80.3369 106.202 81.046 105.261 81.7551 103.981L90.2378 88.9809C90.2641 88.9287 90.3429 88.8764 90.3954 88.8764C90.4742 88.8764 90.5267 88.9026 90.553 88.9809L98.9307 104.085C99.9287 105.889 100.874 106.882 101.767 107.117C101.872 107.143 101.951 107.221 101.925 107.326ZM85.2217 100.296H94.6762L89.9752 91.7771L85.2217 100.296ZM132.074 107.326C132.074 107.43 131.969 107.509 131.864 107.509H128.423C128.371 107.509 128.318 107.483 128.292 107.457L121.438 101.211C120.177 100.087 119.52 99.7214 118.181 99.7214H115.108V104.948C115.108 106.281 115.502 107.012 116.238 107.091C116.343 107.091 116.421 107.195 116.421 107.3C116.421 107.404 116.343 107.483 116.211 107.483H112.141C112.036 107.483 111.957 107.404 111.931 107.3C111.931 107.195 112.009 107.117 112.114 107.091C112.876 106.986 113.244 106.281 113.244 104.948V92.2475C113.244 90.9409 112.85 90.2092 112.088 90.1046C111.983 90.0785 111.904 90.0001 111.931 89.8956C111.931 89.7911 112.036 89.7127 112.141 89.7127H121.595C123.775 89.7127 125.535 90.1046 126.821 90.8886C128.213 91.7771 128.922 93.0315 128.922 94.6778C128.922 97.7876 126.401 99.643 122.12 99.7214L122.173 99.7475C122.173 99.7475 122.199 99.7475 122.199 99.7736C122.436 99.9566 122.935 100.322 123.591 100.923L129.369 105.967C129.999 106.49 130.84 106.882 131.89 107.091C132.021 107.117 132.1 107.221 132.074 107.326ZM127.058 94.8607C127.058 93.4496 126.506 92.4304 125.403 91.7249C124.458 91.1499 123.197 90.8364 121.648 90.8364H115.161V98.5454H121.91C123.407 98.5454 124.642 98.2841 125.535 97.7353C126.532 97.1081 127.058 96.1412 127.058 94.8607ZM151.797 103.746C151.692 103.72 151.587 103.772 151.561 103.85C151.062 104.896 150.563 105.601 150.09 105.915C149.617 106.202 148.803 106.359 147.621 106.359H137.93V98.9374H145.809C147.779 98.9374 147.884 99.7736 147.91 100.035C147.91 100.139 148.015 100.218 148.12 100.218C148.225 100.218 148.304 100.113 148.304 100.009V96.69C148.304 96.5855 148.225 96.5071 148.12 96.481C148.015 96.481 147.936 96.5332 147.91 96.6377C147.753 97.3956 147.07 97.7614 145.783 97.7614H137.904V90.8364H146.912C148.777 90.8364 149.775 91.4897 149.932 92.8224C149.932 92.9269 150.037 93.0053 150.142 93.0053C150.247 93.0053 150.326 92.9008 150.326 92.7963V89.8956C150.326 89.7911 150.247 89.6865 150.116 89.6865H134.989C134.884 89.6865 134.805 89.7649 134.779 89.8695C134.753 89.974 134.831 90.0524 134.936 90.0785C135.698 90.183 136.092 90.9147 136.092 92.2214V104.922C136.092 106.254 135.698 106.986 134.963 107.065C134.858 107.065 134.779 107.169 134.779 107.274C134.779 107.378 134.858 107.457 134.989 107.457H151.193C151.298 107.457 151.377 107.378 151.377 107.3L151.955 103.929C151.955 103.876 151.902 103.772 151.797 103.746ZM166.162 98.3363L160.674 97.0297C157.995 96.4025 156.629 95.3311 156.629 93.8677C156.629 92.8485 157.207 92.0646 158.389 91.4374C159.571 90.8102 161.173 90.4966 163.169 90.4966C165.217 90.4966 166.793 90.7841 167.843 91.3329C168.973 91.9078 169.76 92.8747 170.181 94.2074C170.207 94.312 170.312 94.3642 170.391 94.3381C170.496 94.312 170.548 94.2336 170.548 94.1552V91.0977C170.548 91.0454 170.522 90.967 170.47 90.9409C169.839 90.4705 168.841 90.1047 167.423 89.8172C166.031 89.5036 164.639 89.3468 163.169 89.3468C160.674 89.3468 158.651 89.8172 157.154 90.7579C155.736 91.6465 155.027 92.8485 155.027 94.312C155.027 96.4026 156.734 97.8398 160.07 98.6499L165.69 100.009C168.263 100.636 169.524 101.707 169.524 103.249C169.524 105.497 167.16 106.646 162.486 106.646C160.464 106.646 158.835 106.307 157.68 105.601C156.629 104.974 155.815 103.981 155.211 102.57C155.185 102.491 155.08 102.439 155.001 102.439C154.922 102.465 154.843 102.544 154.843 102.622V105.993C154.843 106.072 154.896 106.124 154.948 106.176C157.102 107.326 159.597 107.927 162.381 107.927C168.316 107.927 171.336 106.281 171.336 103.014C171.389 100.714 169.629 99.1726 166.162 98.3363ZM191.795 103.746C191.69 103.72 191.585 103.772 191.558 103.85C191.059 104.896 190.56 105.601 190.088 105.915C189.615 106.202 188.801 106.359 187.619 106.359H177.928V98.9374H185.807C187.776 98.9374 187.882 99.7736 187.908 100.035C187.908 100.139 188.013 100.218 188.118 100.218C188.223 100.218 188.302 100.113 188.302 100.009V96.69C188.302 96.5855 188.223 96.5071 188.118 96.481C188.013 96.481 187.934 96.5332 187.908 96.6377C187.75 97.3956 187.067 97.7614 185.781 97.7614H177.902V90.8364H186.91C188.774 90.8364 189.772 91.4897 189.93 92.8224C189.93 92.9269 190.035 93.0053 190.14 93.0053C190.245 93.0053 190.324 92.9008 190.324 92.7963V89.8956C190.324 89.7911 190.245 89.6865 190.114 89.6865H174.934C174.829 89.6865 174.75 89.7649 174.724 89.8695C174.698 89.974 174.777 90.0524 174.882 90.0785C175.643 90.183 176.037 90.9147 176.037 92.2214V104.922C176.037 106.254 175.643 106.986 174.908 107.065C174.803 107.065 174.724 107.169 174.724 107.274C174.724 107.378 174.803 107.457 174.934 107.457H191.138C191.243 107.457 191.322 107.378 191.322 107.3L191.9 103.929C191.952 103.876 191.9 103.772 191.795 103.746ZM214.932 107.326C214.932 107.43 214.827 107.509 214.722 107.509H211.281C211.229 107.509 211.176 107.483 211.15 107.457L204.322 101.211C203.061 100.087 202.405 99.7214 201.065 99.7214H197.993V104.948C197.993 106.281 198.386 107.012 199.122 107.091C199.227 107.091 199.306 107.195 199.306 107.3C199.306 107.404 199.227 107.483 199.096 107.483H195.025C194.92 107.483 194.841 107.404 194.815 107.3C194.815 107.195 194.894 107.117 194.999 107.091C195.76 106.986 196.128 106.281 196.128 104.948V92.2475C196.128 90.9409 195.734 90.2092 194.972 90.1046C194.867 90.0785 194.789 90.0001 194.815 89.8956C194.815 89.7911 194.92 89.7127 195.025 89.7127H204.479C206.659 89.7127 208.419 90.1046 209.706 90.8886C211.097 91.7771 211.807 93.0315 211.807 94.6778C211.807 97.7876 209.285 99.643 205.005 99.7214L205.057 99.7475C205.057 99.7475 205.083 99.7475 205.083 99.7736C205.32 99.9566 205.819 100.322 206.475 100.923L212.253 105.967C212.883 106.49 213.724 106.882 214.774 107.091C214.879 107.117 214.958 107.221 214.932 107.326ZM209.889 94.8607C209.889 93.4496 209.338 92.4304 208.235 91.7249C207.289 91.1499 206.029 90.8364 204.479 90.8364H197.993V98.5454H204.742C206.239 98.5454 207.473 98.2841 208.366 97.7353C209.39 97.1081 209.889 96.1412 209.889 94.8607ZM236.467 89.7127H232.134C232.029 89.7127 231.95 89.7911 231.924 89.8956C231.924 90.0001 231.976 90.0785 232.081 90.1046C232.764 90.2353 233.105 90.6273 233.105 91.3067C233.105 91.6987 232.948 92.1691 232.633 92.7179L225.516 105.444L218.503 92.744C218.11 92.0123 217.926 91.4635 217.926 91.0454C217.926 90.7057 218.162 90.3921 218.635 90.0785C218.714 90.0263 218.74 89.9479 218.714 89.8695C218.687 89.7911 218.609 89.7388 218.53 89.7388H213.776C213.671 89.7388 213.592 89.8172 213.592 89.8956C213.592 89.974 213.645 90.0785 213.724 90.1046C214.643 90.3398 215.562 91.3329 216.56 93.136L224.938 108.214C224.964 108.267 225.043 108.319 225.122 108.319C225.2 108.319 225.253 108.267 225.305 108.214L233.788 93.2405C234.524 91.9862 235.206 91.0715 235.837 90.4966C236.073 90.3137 236.309 90.183 236.572 90.0785C236.651 90.0524 236.73 89.9479 236.703 89.8695C236.677 89.7911 236.572 89.7127 236.467 89.7127ZM256.216 103.746C256.111 103.72 256.006 103.772 255.98 103.85C255.481 104.896 254.982 105.601 254.509 105.915C254.037 106.202 253.222 106.359 252.041 106.359H242.35V98.9374H250.228C252.198 98.9374 252.303 99.7736 252.356 100.035C252.382 100.139 252.461 100.218 252.566 100.218C252.671 100.218 252.75 100.113 252.75 100.009V96.69C252.75 96.5855 252.671 96.5071 252.566 96.481C252.461 96.481 252.382 96.5332 252.356 96.6377C252.198 97.3956 251.515 97.7614 250.228 97.7614H242.35V90.8364H251.332C253.196 90.8364 254.194 91.4897 254.325 92.8224C254.325 92.9269 254.43 93.0053 254.536 93.0053C254.641 93.0053 254.719 92.9008 254.719 92.7963V89.8956C254.719 89.7911 254.641 89.6865 254.509 89.6865H239.33C239.225 89.6865 239.146 89.7649 239.119 89.8695C239.093 89.974 239.172 90.0524 239.277 90.0785C240.039 90.183 240.433 90.9147 240.433 92.2214V104.922C240.433 106.254 240.039 106.986 239.303 107.065C239.198 107.065 239.119 107.169 239.119 107.274C239.119 107.378 239.198 107.457 239.33 107.457H255.534C255.639 107.457 255.717 107.378 255.717 107.3L256.295 103.929C256.348 103.876 256.295 103.772 256.216 103.746ZM87.4803 132.152H88.6621V129.512H91.2095L92.7065 132.152H94.0196L92.3388 129.277C92.6802 129.225 92.9691 129.094 93.2317 128.937C93.4944 128.754 93.7045 128.545 93.8358 128.31C93.9933 128.049 94.0459 127.788 94.0459 127.474C94.0459 127.082 93.9408 126.742 93.7307 126.455C93.5206 126.141 93.2055 125.932 92.8378 125.749C92.4439 125.566 92.0237 125.488 91.5509 125.488H87.5065L87.4803 132.152ZM88.6358 128.598V126.429H91.3934C91.6823 126.429 91.9186 126.481 92.155 126.559C92.3913 126.638 92.5489 126.768 92.6802 126.951C92.8115 127.108 92.8641 127.317 92.8641 127.526C92.8641 127.735 92.8115 127.918 92.654 128.075C92.4964 128.232 92.3388 128.362 92.1287 128.467C91.8923 128.545 91.656 128.598 91.3671 128.598H88.6358ZM96.7246 132.152H102.424V131.211H97.8539V129.173H101.951V128.284H97.8539V126.429H102.319V125.488H96.7246V132.152ZM108.254 132.387C108.832 132.387 109.357 132.308 109.803 132.126C110.25 131.943 110.617 131.681 110.854 131.368C111.116 131.054 111.221 130.662 111.221 130.27C111.221 129.8 111.09 129.434 110.801 129.173C110.539 128.911 110.197 128.728 109.777 128.598C109.383 128.467 108.858 128.362 108.254 128.284C107.781 128.206 107.387 128.127 107.151 128.075C106.888 128.023 106.678 127.918 106.494 127.788C106.31 127.657 106.232 127.474 106.232 127.265C106.232 127.082 106.31 126.899 106.442 126.742C106.573 126.585 106.783 126.481 107.02 126.376C107.256 126.298 107.545 126.246 107.86 126.246C108.359 126.246 108.779 126.35 109.147 126.559C109.514 126.768 109.777 127.056 109.908 127.396L110.749 126.925C110.617 126.612 110.434 126.324 110.145 126.089C109.856 125.854 109.514 125.645 109.12 125.514C108.727 125.383 108.306 125.305 107.834 125.305C107.282 125.305 106.809 125.383 106.389 125.566C105.969 125.749 105.654 125.984 105.391 126.298C105.155 126.612 105.024 126.977 105.024 127.396C105.024 127.866 105.155 128.206 105.417 128.467C105.68 128.728 106.022 128.911 106.415 129.016C106.809 129.12 107.308 129.225 107.939 129.356C108.411 129.434 108.779 129.512 109.068 129.565C109.331 129.643 109.567 129.747 109.751 129.878C109.935 130.009 110.013 130.192 110.013 130.401C110.013 130.61 109.935 130.793 109.777 130.95C109.619 131.106 109.409 131.237 109.147 131.342C108.884 131.446 108.569 131.498 108.201 131.498C107.781 131.498 107.361 131.42 106.993 131.289C106.626 131.159 106.31 130.976 106.048 130.714C105.785 130.453 105.628 130.192 105.549 129.904L104.603 130.349C104.735 130.741 104.971 131.106 105.312 131.42C105.654 131.734 106.074 131.995 106.573 132.152C107.151 132.282 107.676 132.387 108.254 132.387ZM113.848 132.152H115.03V125.514H113.848V132.152ZM117.918 132.152H121.122C121.91 132.152 122.567 132.021 123.171 131.734C123.749 131.472 124.221 131.08 124.537 130.558C124.852 130.061 125.009 129.46 125.009 128.807C125.009 128.153 124.852 127.579 124.537 127.056C124.221 126.559 123.749 126.167 123.171 125.88C122.593 125.592 121.91 125.462 121.122 125.462H117.918V132.152ZM119.074 131.185V126.455H121.096C121.648 126.455 122.12 126.559 122.541 126.742C122.961 126.925 123.276 127.213 123.512 127.552C123.749 127.892 123.854 128.336 123.854 128.807C123.854 129.277 123.749 129.721 123.512 130.061C123.276 130.401 122.961 130.688 122.541 130.871C122.12 131.054 121.648 131.159 121.096 131.159L119.074 131.185ZM127.767 132.152H133.466V131.211H128.922V129.173H133.019V128.284H128.922V126.429H133.387V125.488H127.793V132.152H127.767ZM136.092 132.152H137.221V126.821L141.213 132.152H142.684V125.514H141.555V130.845L137.563 125.514H136.092V132.152ZM149.538 132.387C150.142 132.387 150.72 132.282 151.272 132.047C151.797 131.838 152.243 131.525 152.611 131.133C152.979 130.741 153.215 130.296 153.346 129.8L152.243 129.538C152.165 129.904 151.981 130.218 151.744 130.505C151.482 130.793 151.167 131.002 150.799 131.159C150.431 131.315 150.011 131.394 149.565 131.394C149.013 131.394 148.514 131.289 148.068 131.054C147.621 130.819 147.28 130.531 147.017 130.139C146.755 129.747 146.65 129.303 146.65 128.807C146.65 128.31 146.755 127.866 146.991 127.474C147.227 127.082 147.542 126.768 147.963 126.559C148.383 126.35 148.829 126.22 149.328 126.22C149.696 126.22 150.064 126.272 150.379 126.403C150.694 126.533 150.983 126.716 151.219 126.925C151.456 127.134 151.613 127.422 151.718 127.709L152.795 127.396C152.664 126.977 152.401 126.612 152.06 126.272C151.718 125.932 151.324 125.671 150.825 125.488C150.353 125.305 149.854 125.2 149.328 125.2C148.593 125.2 147.936 125.357 147.359 125.671C146.781 125.984 146.308 126.403 145.993 126.925C145.678 127.448 145.494 128.075 145.494 128.754C145.494 129.434 145.678 130.035 146.019 130.584C146.361 131.133 146.86 131.551 147.464 131.838C148.041 132.23 148.751 132.387 149.538 132.387ZM155.946 132.152H161.645V131.211H157.102V129.173H161.199V128.284H157.102V126.429H161.567V125.488H155.973V132.152H155.946ZM167.476 132.387C168.053 132.387 168.579 132.308 169.025 132.126C169.472 131.943 169.839 131.681 170.076 131.368C170.338 131.054 170.443 130.662 170.443 130.27C170.443 129.8 170.312 129.434 170.023 129.173C169.76 128.911 169.419 128.728 168.999 128.598C168.605 128.467 168.08 128.362 167.476 128.284C167.003 128.206 166.609 128.127 166.373 128.075C166.136 128.023 165.9 127.918 165.716 127.788C165.532 127.657 165.453 127.474 165.453 127.265C165.453 127.082 165.532 126.899 165.663 126.742C165.795 126.585 166.005 126.481 166.241 126.376C166.478 126.298 166.767 126.246 167.082 126.246C167.581 126.246 168.001 126.35 168.369 126.559C168.736 126.768 168.999 127.056 169.13 127.396L169.971 126.925C169.839 126.612 169.655 126.324 169.367 126.089C169.078 125.854 168.736 125.645 168.342 125.514C167.948 125.383 167.528 125.305 167.055 125.305C166.504 125.305 166.031 125.383 165.611 125.566C165.191 125.749 164.876 125.984 164.613 126.298C164.377 126.612 164.245 126.977 164.245 127.396C164.245 127.866 164.377 128.206 164.639 128.467C164.902 128.728 165.243 128.911 165.637 129.016C166.031 129.12 166.53 129.225 167.16 129.356C167.633 129.434 168.001 129.512 168.29 129.565C168.552 129.643 168.789 129.747 168.973 129.878C169.156 130.009 169.235 130.192 169.235 130.401C169.235 130.61 169.156 130.793 168.999 130.95C168.841 131.106 168.631 131.237 168.369 131.342C168.106 131.446 167.791 131.498 167.423 131.498C167.003 131.498 166.583 131.42 166.215 131.289C165.847 131.159 165.532 130.976 165.27 130.714C165.007 130.479 164.849 130.192 164.771 129.904L163.825 130.349C163.956 130.741 164.193 131.106 164.534 131.42C164.876 131.734 165.296 131.995 165.795 132.152C166.373 132.282 166.898 132.387 167.476 132.387ZM168.841 21.69C158.546 31.7771 147.017 41.2109 137.747 48.7893C130.682 54.5646 125.088 59.1377 123.46 61.2806C121.569 63.7893 120.124 69.1987 119.652 70.9496C119.468 71.6029 119.442 71.7597 119.205 71.7597C119.179 71.7597 119.153 71.7597 119.1 71.7597C118.943 71.7336 118.811 71.5506 118.838 71.3938C119.021 69.3033 118.864 67.4479 118.628 64.6256C118.47 62.744 118.26 60.3921 118.129 57.2823C117.997 54.4078 119.442 51.089 122.015 47.9269C122.409 39.0681 120.597 38.1796 118.995 37.3956C118.864 37.3433 116.973 36.4548 115.03 35.1743C110.828 32.3782 106.757 26.629 101.557 18.2667C96.5145 10.1656 94.7024 4.80848 94.6762 4.75621C94.6236 4.59942 94.6762 4.44262 94.8075 4.36423C94.9388 4.28583 95.0964 4.31196 95.2014 4.41649C98.2479 7.50011 101.82 11.9165 105.26 16.4897C103.921 13.5367 103.028 11.237 103.054 10.7667C103.054 10.636 103.159 10.5053 103.29 10.4792C103.422 10.4531 103.579 10.5053 103.658 10.636C106.967 15.8886 110.723 19.7301 114.373 23.4147C116.947 26.0541 119.415 28.5367 121.595 31.4374C121.201 28.9026 120.86 26.3677 120.676 24.1726C120.046 16.7249 119.757 6.24576 120.991 1.2806C121.017 1.12381 121.149 1.04541 121.306 1.04541C121.464 1.04541 121.595 1.14994 121.621 1.30673C121.648 1.4374 124.248 14.19 125.902 18.9722C126.322 20.2005 126.769 21.9513 127.163 23.9897C127.793 22.4217 128.528 20.4879 129.211 18.6848C130.078 16.4635 130.866 14.3468 131.365 13.1708C132.442 10.6099 134.516 5.51405 134.989 4.41649C135.094 4.07677 135.173 4.05064 135.278 3.99837C135.409 3.94611 135.567 4.0245 135.646 4.12903C135.698 4.20743 135.724 4.33809 135.672 4.44262C135.672 4.44262 135.646 4.52102 135.593 4.62555C135.357 5.61858 134.648 10.2963 134.044 15.3921C136.302 12.9879 139.244 7.31719 139.296 7.23879C139.375 7.082 139.559 7.02973 139.69 7.082C139.848 7.13426 139.926 7.29106 139.9 7.47398C139.848 7.73531 138.351 13.7196 135.646 17.7701C134.359 19.7301 133.86 20.4095 133.466 20.8538C133.282 22.7876 133.151 24.6168 133.098 26.1064C133.046 27.413 132.993 28.589 132.888 29.6865C137.668 26.028 148.383 14.6343 148.488 14.5036C148.593 14.3729 148.803 14.3729 148.934 14.4775C149.066 14.582 149.118 14.7649 149.013 14.8956C144.68 22.082 138.377 30.0785 134.437 34.8085C136.512 32.8485 138.955 30.5489 141.397 28.5367C145.415 25.244 154.213 17.5088 155.999 15.967C156.104 15.8625 156.209 15.7841 156.314 15.6796C156.445 15.575 156.655 15.575 156.787 15.7057C156.918 15.8364 156.892 16.0454 156.761 16.1761C156.761 16.1761 156.629 16.2806 156.445 16.4635C154.134 18.528 152.348 21.1412 150.3 24.1465C149.118 25.8712 147.884 27.6482 146.413 29.582C144.312 32.2998 143.025 33.9461 141.817 35.1221C143.34 34.4949 144.864 33.8677 146.387 33.2667C153.451 30.4705 160.752 27.5698 168.395 21.2458C168.526 21.1412 168.736 21.1412 168.841 21.2719C168.973 21.3503 168.973 21.5593 168.841 21.69ZM152.427 19.9653C151.639 20.6447 150.773 21.4026 149.906 22.1604C143.761 30.8102 139.427 35.1482 136.906 37.2649C137.747 36.8468 138.613 36.4548 139.454 36.089C141.344 34.9391 142.579 33.4496 145.888 29.1377C147.359 27.2301 148.567 25.4531 149.748 23.7283C150.668 22.3956 151.534 21.1412 152.427 19.9653ZM148.593 23.2841C147.753 24.0158 146.912 24.7475 146.098 25.4269C144.286 27.7266 136.932 36.69 129.868 40.4792L129.027 41.7597C131.023 40.4008 133.019 39.251 134.989 38.2057C136.749 37.0036 141.344 33.2405 148.593 23.2841ZM133.361 12.6482C131.339 20.7231 129.605 28.8242 128.844 36.1412C129.421 34.3904 130.104 32.9269 130.918 31.7771C130.945 26.5245 132.021 19.5994 133.361 12.6482ZM133.124 12.021C131.26 17.7963 128.922 25.3747 128.082 29.19C128.318 30.9931 128.528 32.8485 128.633 34.6255C129.474 27.5175 131.181 19.7562 133.124 12.021ZM134.044 36.089C132.678 37.3956 131.601 38.4147 130.892 39.0158L130.367 39.7736C135.961 36.5332 141.66 30.183 144.443 26.8381C143.445 27.6743 142.553 28.4322 141.817 29.0332C139.06 31.3329 136.276 33.9722 134.044 36.089ZM128.686 39.4339C128.66 40.1134 128.607 40.7667 128.528 41.3416L130.367 38.6238L130.393 38.5977C130.498 38.4931 140.031 27.6221 146.702 17.352C143.157 21.0628 136.355 28.0141 132.993 30.5489C130.209 32.6134 129.08 37.4217 128.686 39.4339ZM133.781 12.5959C133.781 12.5698 133.781 12.5437 133.781 12.5175C132.468 19.2858 131.391 26.0541 131.286 31.2806C131.575 30.9409 131.864 30.6273 132.179 30.366C132.336 29.1116 132.415 27.7266 132.468 26.1848C132.625 21.8729 133.439 15.2614 133.781 12.5959ZM133.965 16.4897C133.833 17.5611 133.728 18.6587 133.623 19.7039C133.965 19.2336 134.437 18.5541 135.147 17.4566C136.617 15.2614 137.72 12.3869 138.429 10.2701C137.195 12.413 135.409 15.2614 133.965 16.4897ZM127.425 25.1918C127.609 26.1325 127.767 27.0994 127.898 28.0924C128.949 23.8329 131.26 16.4635 132.993 11.0541C132.625 11.9426 132.284 12.7789 131.995 13.4322C131.522 14.582 130.708 16.6987 129.842 18.92C129.001 21.2196 128.108 23.5454 127.425 25.1918ZM121.543 3.99837C121.648 12.0472 122.541 25.244 124.143 37.9444C124.72 40.6099 125.036 43.406 125.036 44.8433C125.797 44.1639 126.611 43.5106 127.478 42.8834C127.53 42.8573 127.557 42.8311 127.609 42.7789C128.266 40.5837 128.292 36.5332 127.688 31.2545C127.163 26.6552 126.191 21.7161 125.324 19.2336C124.09 15.7057 122.383 7.99663 121.543 3.99837ZM122.488 32.744C122.803 33.3451 123.092 34.1029 123.381 34.9653C122.015 23.467 121.28 11.9426 121.149 4.49489C120.597 9.69524 120.807 17.6395 121.359 24.1726C121.569 26.7336 121.989 29.7649 122.488 32.744ZM106.127 24.1987C102.319 17.2998 99.6135 11.1587 98.9044 9.51231C97.8539 8.25795 96.8297 7.10813 95.858 6.06283C96.7246 8.17956 98.6418 12.413 102.082 17.9269C103.527 20.2266 104.866 22.3172 106.127 24.1987ZM111.537 31.2545C106.941 23.9897 103.5 16.2022 102.634 14.1639C101.688 12.9357 100.743 11.7336 99.7973 10.6099C101.163 13.6935 104.314 20.5663 108.49 27.5698C109.541 28.9548 110.565 30.183 111.537 31.2545ZM116.133 35.1221C113.559 32.2998 110.828 27.5959 108.727 23.5977C108.017 22.2388 107.308 20.8538 106.678 19.4949C105.68 18.136 104.682 16.7771 103.658 15.4444C105.181 18.8677 108.622 26.1848 112.929 32.6656C113.743 33.4235 114.557 34.1029 115.371 34.6255C115.634 34.8085 115.87 34.9653 116.133 35.1221ZM122.698 47.143C123.145 46.6203 123.644 46.1238 124.143 45.6273L124.326 45.4182C124.589 44.4513 123.539 35.2527 121.569 32.535C119.31 29.3991 116.684 26.7597 113.927 23.9374C110.775 20.7231 107.492 17.4043 104.525 13.1447C105.47 15.4705 107.177 19.2858 109.357 23.4409C113.349 31.0454 116.868 35.8015 119.258 36.8729C121.333 37.8398 122.935 39.2771 122.698 47.143ZM121.726 55.6621C123.276 52.5262 127.215 49.9914 132.757 46.4374C137.536 43.3538 143.472 39.5384 149.854 33.9984C149.302 34.2336 148.724 34.4426 148.146 34.6778C147.621 34.8869 147.07 35.0959 146.544 35.305C146.544 35.3311 146.518 35.3573 146.492 35.3573C142.132 38.9113 137.169 41.7858 132.809 44.3468C128.555 46.8294 124.852 48.9984 123.434 50.8538C122.541 52.2649 122.015 53.9374 121.726 55.6621ZM132.625 44.0071C136.696 41.629 141.266 38.9635 145.363 35.7492C137.694 38.8067 129.71 42.7005 124.747 48.9984C126.585 47.535 129.343 45.9147 132.625 44.0071ZM121.648 62.3782C122.541 56.3416 125.613 54.2249 132.363 49.5472C137.589 45.9409 144.68 41.028 154.817 31.8294C153.635 32.3782 152.348 32.9792 151.009 33.5541C144.26 39.5384 138.009 43.5628 132.993 46.7771C126.585 50.906 122.33 53.6238 121.543 57.4391C121.385 59.2423 121.464 60.967 121.648 62.3782ZM159.649 29.3729C158.704 29.8695 157.47 30.5228 156.025 31.2283C145.363 41.028 137.668 46.359 132.573 49.8607C125.797 54.5384 122.935 56.5245 122.068 62.2736C122.357 61.751 122.646 61.2806 122.935 60.8886C124.589 58.6674 129.947 54.3032 137.326 48.2667C144.023 42.7789 151.902 36.3242 159.649 29.3729ZM164.35 25.0611C158.231 29.2161 152.348 31.5681 146.623 33.8416C140.557 36.2458 134.254 38.7283 127.846 43.406C122.12 47.5611 118.575 52.9966 118.785 57.2823C118.943 60.3921 119.126 62.7179 119.284 64.5994C119.415 66.2458 119.547 67.5785 119.573 68.8329C120.019 67.2911 120.65 65.3311 121.438 63.5803C121.149 62.0384 120.965 59.7911 121.122 57.4653C121.122 57.4391 121.122 57.4391 121.122 57.413V57.3869C121.306 55.035 121.858 52.5785 123.092 50.6447C128.45 42.3085 138.771 37.8398 147.989 34.3381C153.924 32.0646 159.255 29.1639 160.91 28.2492C162.066 27.1778 163.221 26.1325 164.35 25.0611Z" fill="white"/>
<path d="M64.4741 146.393V139.756H65.6559V145.4H69.8842L69.7266 146.393H64.4741Z" fill="white"/>
<path d="M77.5266 146.393L76.765 144.721H73.2458L72.458 146.393H71.2236L74.3751 139.756H75.662L78.8135 146.393H77.5266ZM74.9792 140.88L73.6398 143.754H76.3185L74.9792 140.88Z" fill="white"/>
<path d="M81.6497 146.393V143.676L78.7871 139.756H80.1528L82.2538 142.709L84.3547 139.756H85.6679L82.8053 143.676V146.393H81.6497Z" fill="white"/>
<path d="M91.8918 146.393L91.1302 144.721H87.6111L86.8232 146.393H85.5889L88.7404 139.756H90.0272L93.1787 146.393H91.8918ZM89.3444 140.88L88.005 143.754H90.6838L89.3444 140.88Z" fill="white"/>
<path d="M100.427 146.393L96.2517 141.376V146.393H95.0962V139.756H96.1992L100.375 144.773V139.756H101.53V146.393H100.427Z" fill="white"/>
<path d="M107.754 146.393V139.756H110.853C112.639 139.756 113.532 140.331 113.532 141.454C113.532 142.16 113.164 142.63 112.429 142.866C113.322 143.153 113.795 143.702 113.795 144.46C113.795 145.087 113.558 145.583 113.086 145.897C112.613 146.237 111.904 146.393 111.011 146.393H107.754ZM110.906 142.474C111.405 142.474 111.773 142.395 112.009 142.265C112.245 142.108 112.377 141.873 112.377 141.559C112.377 141.245 112.245 141.036 112.009 140.88C111.773 140.723 111.379 140.67 110.827 140.67H108.91V142.474H110.906ZM110.932 145.479C111.51 145.479 111.93 145.4 112.219 145.244C112.508 145.087 112.613 144.826 112.613 144.46C112.613 144.094 112.482 143.833 112.219 143.676C111.956 143.493 111.536 143.414 110.958 143.414H108.91V145.505H110.932V145.479Z" fill="white"/>
<path d="M121.411 146.393L120.649 144.721H117.13L116.342 146.393H115.108L118.259 139.756H119.546L122.698 146.393H121.411ZM118.863 140.88L117.524 143.754H120.203L118.863 140.88Z" fill="white"/>
<path d="M125.534 146.393V143.676L122.672 139.756H124.038L126.139 142.709L128.24 139.756H129.553L126.69 143.676V146.393H125.534Z" fill="white"/>
<path d="M134.175 143.545V142.578H139.874V143.545H134.175Z" fill="white"/>
<path d="M145.231 146.393V139.756H148.435C149.328 139.756 150.011 139.939 150.457 140.279C150.904 140.644 151.14 141.167 151.14 141.873C151.14 142.604 150.904 143.127 150.457 143.493C149.984 143.833 149.302 144.015 148.356 144.015H146.439V146.393H145.231ZM148.33 143.049C148.881 143.049 149.275 142.944 149.538 142.761C149.801 142.578 149.932 142.265 149.932 141.846C149.932 141.454 149.801 141.167 149.538 140.984C149.275 140.801 148.881 140.723 148.33 140.723H146.387V143.049H148.33Z" fill="white"/>
<path d="M158.493 146.393V143.493H154.475V146.393H153.293V139.756H154.475V142.421H158.493V139.756H159.675V146.393H158.493Z" fill="white"/>
<path d="M167.423 139.756H168.605V143.676C168.605 144.643 168.342 145.374 167.817 145.845C167.291 146.315 166.504 146.576 165.427 146.576C164.376 146.576 163.588 146.341 163.037 145.845C162.485 145.348 162.249 144.643 162.249 143.676V139.756H163.431V143.728C163.431 144.355 163.588 144.826 163.904 145.139C164.219 145.453 164.718 145.583 165.401 145.583C166.083 145.583 166.582 145.427 166.897 145.139C167.213 144.826 167.37 144.381 167.37 143.728L167.423 139.756Z" fill="white"/>
<path d="M176.405 146.393L173.726 142.918L172.413 143.963V146.393H171.231V139.756H172.413V142.787L176.09 139.756H177.56L174.619 142.238L177.849 146.42L176.405 146.393Z" fill="white"/>
<path d="M179.766 146.393V139.756H185.202V140.749H180.948V142.474H184.992V143.467H180.948V145.4H185.413L185.255 146.393H179.766Z" fill="white"/>
<path d="M189.588 146.393V140.749H186.91V139.756H193.475V140.749H190.797V146.393H189.588Z" fill="white"/>
</svg>
