<svg width="176" height="23" fill="none" xmlns="http://www.w3.org/2000/svg"><g clip-path="url(#a)" fill="#fff"><path d="M51.688 21.47v-.546h-.956c-.272 0-.5-.091-.682-.273a.926.926 0 0 1-.273-.683V7.679c0-.273.09-.5.273-.683a.926.926 0 0 1 .683-.272h.956v-.547h-5.462v.547h.956c.273 0 .5.09.683.272.182.183.273.41.273.683v12.289c0 .273-.091.5-.273.683a.926.926 0 0 1-.683.273h-.956v.546H51.688Zm33.954-7.56h4.17L87.7 8.235l-2.06 5.675h.001Zm-4.973 7.56v-.597h.477c.436 0 .797-.1 1.084-.298.287-.198.501-.497.643-.897l5.065-13.96h.616l5.337 14.23c.141.31.312.543.51.697.196.152.42.228.672.228h.844v.647h-4.87v-.647h.05c.416 0 .643-.027.83-.184.182-.154.218-.444.023-.977-.02-.056-.035-.1-.044-.135a.362.362 0 0 1-.015-.08l-1.904-5.077h-4.518l-1.958 5.402c-.115.355-.123.62-.004.792.12.172.372.258.78.258h.477v.648h-4.095v-.051.001Zm-26.466 0v-.546h.836c.273 0 .5-.091.683-.273a.925.925 0 0 0 .273-.683V7.679c0-.273-.092-.5-.273-.683a.927.927 0 0 0-.683-.272h-.836v-.547h5.222v.547h-.837c-.272 0-.5.09-.682.272a.926.926 0 0 0-.273.683v12.289c0 .273.09.5.273.683.182.182.41.273.683.273h3.413c.983 0 1.688-.21 2.116-.628.428-.42.724-1.074.888-1.967l.136-.819h.41v3.96H54.202Zm13.63 0v-.546h.837c.272 0 .5-.091.682-.273a.925.925 0 0 0 .273-.683V7.679c0-.273-.091-.5-.273-.683a.926.926 0 0 0-.682-.272h-.837v-.547h5.222v.547h-.836c-.273 0-.5.09-.682.272a.926.926 0 0 0-.273.683v12.289c0 .273.09.5.273.683.182.182.41.273.682.273h3.414c.983 0 1.688-.21 2.116-.628.428-.42.724-1.074.887-1.967l.137-.819h.41v3.96h-11.35Zm-32.35.41L28.656 4.539c-.237-.601-.492-1.024-.765-1.27-.272-.246-.7-.369-1.283-.369h-.563v-.546H31.677V2.9c-.31 0-.47 0-.702.021-.615.092-.73.49-.48 1.188l5.944 15.176c1.812-4.96 3.552-9.988 5.442-14.878.303-.784.47-1.507-.69-1.507h-.81v-.546h5.103V2.9h-.853c-.546 0-.974.114-1.283.341-.31.228-.565.615-.765 1.161l-6.417 17.477h-.683ZM152.048 21.47v-.597h.887a.857.857 0 0 0 .646-.258.856.856 0 0 0 .258-.647V7.68a.874.874 0 0 0-.258-.647.874.874 0 0 0-.647-.258c-3.141 0-3.522-.058-4.053 3.157h-.503V6.126h12.662v3.805h-.502c-.537-3.213-.906-3.157-4.054-3.157a.875.875 0 0 0-.647.258.874.874 0 0 0-.258.647v12.29a.868.868 0 0 0 .258.646.861.861 0 0 0 .647.258h.887v.647h-5.324v-.05h.001Zm11.606 0v-.597h.887a.879.879 0 0 0 .905-.905V7.679a.874.874 0 0 0-.258-.647.875.875 0 0 0-.647-.258h-.887v-.648h11.45v3.395h-.502c-.342-1.714-.578-2.747-2.552-2.747h-3.96a.875.875 0 0 0-.647.258.874.874 0 0 0-.258.647v5.032h3.227c.33 0 .608-.116.836-.352.409-.425.341-.9.341-1.456h.512v4.128h-.512c0-.555.068-1.03-.341-1.455a1.111 1.111 0 0 0-.836-.353h-3.227v6.745c0 .25.079.468.258.647a.874.874 0 0 0 .647.258h4.233c.871 0 1.552-.2 2.043-.603.491-.401.794-1.005.911-1.81l.143-.88h.503v3.94h-12.269v-.05Zm-41.965-7.56h4.17l-2.112-5.675-2.058 5.674Zm-4.973 7.56v-.597h.477c.435 0 .797-.1 1.084-.298.287-.199.501-.498.643-.897l5.064-13.961h.617l5.336 14.23c.142.311.312.544.511.697.195.152.419.229.672.229h.844v.647h-4.871v-.647c.424 0 .677-.013.881-.184.329-.278.048-.788-.037-1.192l-1.904-5.077h-4.518l-1.958 5.402c-.115.356-.123.62-.003.792.119.172.372.258.779.258h.477v.648h-4.094v-.051Zm-2.609-4.243.145-.723h.502v3.077l-.018.016c-.257.22-.541.428-.852.626-.312.197-.65.382-1.016.556-.786.383-1.583.671-2.393.864-.81.192-1.63.288-2.462.288-2.709 0-4.988-.952-6.836-2.856a9.508 9.508 0 0 1-2.08-3.219c-.462-1.194-.693-2.508-.693-3.944 0-2.853.93-5.236 2.787-7.149.928-.956 1.961-1.673 3.099-2.151 1.137-.479 2.378-.718 3.723-.718.832 0 1.657.099 2.476.295.819.197 1.631.492 2.434.884.338.165.659.343.961.535.303.193.587.4.852.619l.018.015v3.215h-.503l-.144-.862c-.081-.456-.286-.91-.615-1.36-.332-.454-.79-.905-1.373-1.353a6.345 6.345 0 0 0-1.9-1.006 7.06 7.06 0 0 0-2.206-.335c-2.06 0-3.818.854-5.273 2.563a8.584 8.584 0 0 0-1.639 2.983c-.365 1.135-.547 2.41-.547 3.825s.182 2.69.547 3.825a8.588 8.588 0 0 0 1.639 2.983c.728.855 1.532 1.495 2.41 1.922.878.427 1.833.64 2.863.64.778 0 1.504-.101 2.177-.305a6.342 6.342 0 0 0 1.863-.914c.568-.406 1.024-.846 1.367-1.32.341-.471.571-.977.688-1.516h-.001Zm22.63-2.362h2.407c.576 0 1.099-.092 1.569-.276.469-.184.885-.46 1.249-.828.363-.368.636-.797.818-1.286.182-.49.273-1.042.273-1.655a4.75 4.75 0 0 0-.273-1.655 3.6 3.6 0 0 0-.818-1.286 3.578 3.578 0 0 0-1.249-.828 4.268 4.268 0 0 0-1.569-.276h-2.407v8.09Zm-3.532 6.605v-.597h.887c.251 0 .468-.08.647-.258a.874.874 0 0 0 .258-.647V7.679a.867.867 0 0 0-.258-.647.868.868 0 0 0-.647-.258h-.887v-.648h5.939c.896 0 1.698.11 2.404.33.708.22 1.319.552 1.834.993.516.442.902.944 1.16 1.506.258.562.387 1.184.387 1.864 0 .662-.114 1.256-.342 1.782a3.731 3.731 0 0 1-1.028 1.37c-.454.386-.97.696-1.546.93a7.294 7.294 0 0 1-1.862.47v.056c.092.035.191.08.299.133.12.06.248.131.385.213a3.705 3.705 0 0 1 1.219 1.163l1.775 2.868c.26.403.557.705.891.906.334.2.705.3 1.115.3.234 0 .443-.016.626-.047.182-.031.339-.078.472-.14l.19-.095c.043-.021.08-.042.111-.062a.411.411 0 0 0 .066-.051l.036-.036.339.339-.024.035a1.603 1.603 0 0 1-.24.268 2.23 2.23 0 0 1-.321.238c-.26.157-.54.275-.84.353a3.782 3.782 0 0 1-.962.118c-1.457 0-2.563-.6-3.32-1.799l-1.775-2.867a8.816 8.816 0 0 0-.584-.831 4.597 4.597 0 0 0-.553-.591 1.858 1.858 0 0 0-1.278-.465h-1.041v4.591c0 .252.079.469.258.648a.875.875 0 0 0 .647.258h1.007v.647h-5.443v-.05l-.001-.001Z"/><path fill-rule="evenodd" clip-rule="evenodd" d="M14.292 2.354h4.802v5.86h-.538l.002-.395c.004-.803.007-1.408-.33-2.227a4.365 4.365 0 0 0-1.604-1.963 4.331 4.331 0 0 0-2.417-.736h-.97v-.539h1.055ZM7.636 2.189c-.034-.004-.047-.012-.01-.028l.005.015.005.015v-.002ZM3.013 8.297s.622.989 1.626 1.257c1.004.27 1.686.253 2.156.49.47.24 1.04.537 1.04.537l-.074-.169s-1.048-1.15-1.777-1.415c-.728-.264-1.496-.357-2.082-.439-.586-.078-.889-.264-.889-.264v.003Zm7.582 3.05c.324-.577.78-1.042 1.112-1.595.135-.224.25-.464.322-.73a2.834 2.834 0 0 0 .05-1.259c-.008-.05-.02-.1-.035-.148-.023-.077-.049-.154-.071-.23-.005-.013-.043-.1-.05-.134a.141.141 0 0 1 .017-.109c.042-.06.092-.061.134-.054a.136.136 0 0 1 .077.05c.015.018.029.07.044.092l.096.2c.043.099.076.203.105.31.027.104.048.21.064.314.056.364.103.719.114 1.077.006.24-.002.481-.033.729a3.369 3.369 0 0 1-.067.368c-.063.278-.15.548-.22.823-.088.347-.175.717-.295 1.069-.08.24-.173.472-.287.69-.155.298-.44.621-.598.966-.098.217-.146.442-.063.674.13.121.26.238.394.352a1.936 1.936 0 0 1 0-.323c.013-.154.044-.308.092-.468.197-.652.586-1.152 1.073-1.557.716-.591 1.643-.98 2.476-1.366.23-.105.465-.208.693-.327a4.01 4.01 0 0 0 .598-.373c.053-.042.104-.083.155-.131l.098-.095a.435.435 0 0 1 .055-.071.126.126 0 0 1 .083-.029c.033 0 .07.01.101.053a.119.119 0 0 1 .026.075.435.435 0 0 1-.038.133c-.018.054-.044.109-.07.163-.025.051-.054.1-.081.15-.12.199-.248.395-.384.582-.138.19-.285.372-.443.544-.243.263-.51.49-.785.696-.64.478-1.348.85-2.013 1.318-.329.23-.646.454-.892.736-.15.174-.274.369-.357.604.238.186.481.361.726.521.155-.173.33-.312.516-.433.282-.181.595-.314.916-.444a7.83 7.83 0 0 1 1.185-.383 3.93 3.93 0 0 1 .835-.099c.145 0 .288.013.432.034.21.028.417.07.622.108.178.032.358.059.537.082.27.034.54.062.812.086l.289.025c.066.008.131.017.199.028l.142.023c.021.004.066 0 .087.004.038.009.06.029.076.045a.118.118 0 0 1 .027.076c0 .02-.004.05-.029.081a.366.366 0 0 1-.163.104c-.109.04-.25.056-.326.065-.123.015-.249.021-.373.026-.282.008-.565 0-.845.023-.255.02-.51.045-.76.081a8.756 8.756 0 0 0-.749.139c-.423.098-.833.236-1.251.347a8.447 8.447 0 0 1-.888.188c-.19.028-.38.048-.578.056-.082.004-.172.01-.261.012.09.053.182.102.274.15.634.333 1.35.568 2.087.722.738.154 1.496.225 2.208.23.008 0 .015.006.015.015 0 .006-.004.01-.008.015.004.004.006.009.004.009-.053.012-1.075.199-1.166.187-.025-.005-.466-.067-.703-.121a9.76 9.76 0 0 1-.922-.232c-.295-.092-.606-.18-.89-.314-.056-.022-.113-.045-.169-.07a1.856 1.856 0 0 1-.148 1.411c-.249.462-.687.78-1.02 1.179-.132.158-.248.329-.325.53a2.25 2.25 0 0 0-.135.613 3.68 3.68 0 0 0 .018.64l.06.445c.005.045.006.092.01.139 0 .033 0 .066-.002.098v-.021s-.03.102-.049.116c-.031.023-.073.042-.13.015a.233.233 0 0 1-.102-.11c-.042-.083-.08-.23-.094-.27-.064-.2-.135-.405-.188-.613a2.714 2.714 0 0 1-.077-.435c-.065-.785.125-1.524.477-2.192.34-.64.827-1.212 1.375-1.698a10.055 10.055 0 0 1-.332-.165.072.072 0 0 1-.048.017.385.385 0 0 0-.245.115c-.128.109-.237.261-.329.358a8.92 8.92 0 0 1-.699.679c-.166.142-.34.275-.525.394-.212.136-.432.24-.657.325-.52.196-1.069.29-1.605.468-.797.26-1.822.616-2.204 1.312-.06.113-.113.226-.148.346-.048.164-.228.037-.234.027-.001-.005-.021-.034-.012-.083.002-.006.006-.032.009-.04L6.364 20l.063-.227c.517-1.791 1.614-2.632 3.39-3.264.911-.323 1.886-.489 2.82-.545-.064-.037-.126-.072-.19-.113a.069.069 0 0 1-.049-.006c-.006-.005-.015-.006-.021-.01v-.002a2.111 2.111 0 0 0-.516-.04c-.289.008-.58.062-.852.117-.196.039-.395.077-.592.12-.13.03-.258.06-.385.099-.646.193-1.277.439-1.924.558a3.65 3.65 0 0 1-1.362.015c-.563-.105-1.05-.373-1.469-.73-.617-.526-1.09-1.246-1.462-1.937a16.59 16.59 0 0 1-.379-.741c-.033-.071-.088-.154-.121-.236a.591.591 0 0 1-.038-.142c-.009-.081.04-.111.065-.125a.128.128 0 0 1 .128 0 .215.215 0 0 1 .037.029c.009.01.02.032.028.039l.064.072.169.22c.096.125.185.253.282.378.063.082.125.16.195.236.274.303.569.592.892.839a4.1 4.1 0 0 0 1.052.6c.24.091.482.147.722.182.373.054.749.06 1.14.071.487.015.973.032 1.458.045.321.01.646.015.97.017.36.002.792-.034 1.198-.004.113.007.223.022.332.045a4.627 4.627 0 0 1-.098-.07.084.084 0 0 1-.07-.001 7.49 7.49 0 0 0-1.257-.522 6.73 6.73 0 0 0-1.332-.269c-.654-.066-1.316-.056-1.967-.125a4.998 4.998 0 0 1-1.306-.3 2.74 2.74 0 0 1-.776-.466c-.332-.279-.597-.623-.877-.999l-.418-.559-.124-.187-.043-.076c-.006-.013-.023-.038-.03-.052a.097.097 0 0 1-.011-.042c-.01-.06.02-.095.048-.12.02-.016.07-.05.145-.007.104.059.2.137.294.223.195.183.369.408.551.577a2.134 2.134 0 0 0 .962.524c.357.092.724.072 1.093.039.386-.033.774-.082 1.153-.045.197.018.39.058.58.133.266.104.509.237.738.385.341.218.66.472 1.001.712a11.751 11.751 0 0 0 .817.527 10.887 10.887 0 0 1-.942-.922 12.508 12.508 0 0 1-1.588-2.206 2.133 2.133 0 0 0-.782-.494 3.07 3.07 0 0 0-1.04-.163c-.25 0-.499.053-.745.067-.066.004-.13.006-.199.004a3.673 3.673 0 0 1-1.057-.185 2.517 2.517 0 0 1-.933-.553 3.57 3.57 0 0 1-.47-.563 5.623 5.623 0 0 1-.37-.625 7.46 7.46 0 0 1-.446-1.04l-.018-.054a1.4 1.4 0 0 0-.195.057l-.227.09c-.01.004-.145.055-.199.069-.12.031-.173-.077-.178-.1a.14.14 0 0 1 .027-.105c.017-.022.071-.064.084-.077l.25-.203a2.75 2.75 0 0 1 .3-.204 4.902 4.902 0 0 1-.111-.583 3.898 3.898 0 0 1-.029-.458c.002-.154.012-.308.036-.46.007-.039.019-.175.047-.252.023-.065.06-.104.094-.12a.136.136 0 0 1 .088-.01.116.116 0 0 1 .069.044.12.12 0 0 1 .028.082c0 .01-.006.043-.009.054l-.004.077-.005.23c0 .137 0 .274.007.41a2.977 2.977 0 0 0 .128.812c.004-.001.006-.001.01-.004.233-.098.476-.166.728-.204.444-.066.868 0 1.277.138 1.859.625 1.735 1.248 2.89 2.134-.124-.394-.57-1.594-.663-1.996a9.184 9.184 0 0 1-.779-.477 5.63 5.63 0 0 1-.797-.657 5.001 5.001 0 0 1-.806-1.068 5.207 5.207 0 0 1-.503-1.241 4.629 4.629 0 0 1-.077-1.898c.017-.094.036-.186.06-.275l.038-.164c.005-.017.01-.06.012-.076A.138.138 0 0 1 4.1 1.63c.032-.052.076-.065.11-.062.028 0 .091.002.121.083a.34.34 0 0 1 .023.12c.002.065-.009.14-.009.194a3.86 3.86 0 0 0 .04.578c.028.18.076.362.138.539.097.273.22.542.34.788.139.285.305.563.489.833.276.406.59.796.889 1.167.107.131.223.26.336.394-.169-.548-.324-1.07-.394-1.688-.064-.57-.056-1.218.077-2.04.088-.53.364-1.476.598-2.027.101-.237.202-.405.275-.46a.2.2 0 0 1 .166-.044c.05.01.1.042.136.106.052.092.081.31.081.597 0 .769-.157 2.074-.19 2.39-.103.95-.178 1.607-.197 2.27-.01.35-.004.7.023 1.093.11-.845.423-1.654.57-2.49a4.907 4.907 0 0 0 .07-1.091 2.805 2.805 0 0 0-.051-.416c-.018-.094-.06-.183-.088-.274-.001-.009-.006-.018-.009-.027h.011c-.002-.006-.005-.034-.012-.032l-.002.002-.006-.027c-.012-.06.017-.088.021-.096a.125.125 0 0 1 .082-.048.11.11 0 0 1 .083.021c.006.005.025.017.039.045l.012.032.027.051.08.142a2.865 2.865 0 0 1 .24.505c.115.317.213.642.27.976.037.225.053.452.04.684a4.289 4.289 0 0 1-.102.72c-.053.24-.125.476-.216.696-.167.406-.372.788-.526 1.194a3.55 3.55 0 0 0-.159.522c-.047.209-.098.434-.113.657-.002.029-.005.056-.005.083.015.076.032.148.049.224a.066.066 0 0 1-.006.045c.028.122.063.243.098.367.103.32.213.635.335.948a4.356 4.356 0 0 1 .044-1.24c.162-.981.582-1.946.879-2.895.08-.254.14-.505.175-.758a4.494 4.494 0 0 0 .036-.983c-.01-.105-.026-.214-.04-.321l-.025-.165-.01-.056a.235.235 0 0 0-.01-.039c-.006-.039.007-.062.007-.066a.121.121 0 0 1 .055-.062.113.113 0 0 1 .097-.005c.009.005.047.015.07.067a6.189 6.189 0 0 1 .177.836c.058.415.085.833.106 1.241.03.57.043 1.137-.01 1.7a6.147 6.147 0 0 1-.203 1.123c-.124.432-.264.86-.386 1.294a9.476 9.476 0 0 0-.21.866c-.04.215-.081.46-.08.698 0 .066.005.131.012.196.08.14.162.277.245.413a3.501 3.501 0 0 1-.04-.775 4.11 4.11 0 0 1 .315-1.35c.2-.484.47-.937.687-1.411.09-.198.172-.4.232-.613.067-.23.12-.466.159-.706.038-.24.06-.479.065-.719.001-.104.004-.213 0-.319a1.98 1.98 0 0 0-.015-.207c-.01-.069-.032-.155-.038-.235a.494.494 0 0 1 .006-.136c.017-.075.066-.089.092-.095a.117.117 0 0 1 .118.035.196.196 0 0 1 .027.04c.009.017.021.061.028.08l.094.188a5.722 5.722 0 0 1 .231.57 6.2 6.2 0 0 1 .295 1.124c.039.267.05.533.016.788a4.02 4.02 0 0 1-.336 1.13c-.364.811-.912 1.552-1.18 2.41a4.435 4.435 0 0 0-.168.68c-.017.121-.026.242-.019.358.289.399.601.78.927 1.14l-.001-.004a1.988 1.988 0 0 1-.11-.5 3.07 3.07 0 0 1 .06-.97c.07-.314.189-.62.349-.908l-.01.02-.004.013.002.002ZM4.802 21.875H0v-5.86h.538l-.001.395c-.005.803-.008 1.408.33 2.227.335.814.9 1.49 1.603 1.962a4.33 4.33 0 0 0 2.417.736h.97v.54H4.803Z"/></g><defs><clipPath id="a"><path fill="#fff" d="M0 0h176v22.02H0z"/></clipPath></defs></svg>