<svg width="41" height="46" fill="none" xmlns="http://www.w3.org/2000/svg"><path fill-rule="evenodd" clip-rule="evenodd" d="M31.121 4.928H41v11.873h-.704V15.02a9.367 9.367 0 0 0-2.736-6.635 9.387 9.387 0 0 0-3.04-2.042 9.233 9.233 0 0 0-3.574-.711h-1.828v-.707h2.003v.004ZM22.259 23.792c.683-1.209 1.64-2.188 2.336-3.347.283-.473.525-.975.675-1.535.116-.427.183-.87.204-1.314a5.63 5.63 0 0 0-.096-1.326 3.777 3.777 0 0 0-.075-.31c-.046-.163-.1-.322-.15-.485-.008-.025-.087-.205-.104-.28a.317.317 0 0 1 .033-.23c.088-.126.192-.13.284-.113a.29.29 0 0 1 .162.104c.033.038.058.147.092.193l.204.418c.087.21.158.427.22.653.059.217.1.439.138.66.116.766.216 1.511.237 2.26.013.502 0 1.012-.07 1.531-.034.264-.08.515-.142.774-.134.582-.317 1.15-.463 1.728-.183.728-.366 1.506-.616 2.242-.166.502-.366.992-.604 1.452-.325.623-.924 1.301-1.257 2.025-.204.456-.308.929-.134 1.418.275.255.546.498.83.737-.022-.23-.022-.457 0-.678.024-.322.09-.649.19-.983.413-1.368 1.233-2.418 2.254-3.268 1.503-1.242 3.452-2.058 5.201-2.87.483-.222.979-.44 1.458-.686.312-.163.616-.335.9-.527.124-.084.24-.163.353-.255.113-.088.221-.176.325-.276l.208-.201c.017-.025.084-.126.113-.15a.267.267 0 0 1 .175-.06c.07 0 .15.021.212.114a.244.244 0 0 1 .054.159c0 .07-.054.217-.079.28-.037.113-.091.23-.146.343-.054.109-.112.21-.17.314-.25.418-.521.828-.804 1.221-.292.398-.6.778-.933 1.142a12.291 12.291 0 0 1-1.65 1.46c-1.344 1.005-2.831 1.787-4.226 2.766-.692.485-1.358.954-1.874 1.548a3.891 3.891 0 0 0-.754 1.267c.5.39 1.012.758 1.524 1.093a5.277 5.277 0 0 1 1.083-.908c.591-.381 1.25-.661 1.924-.933.796-.314 1.637-.62 2.49-.804a8.324 8.324 0 0 1 1.754-.205c.304 0 .604.026.908.072.441.058.874.15 1.307.23.375.067.754.121 1.129.171a46.3 46.3 0 0 0 1.707.18c.204.021.404.034.604.054.142.017.275.034.42.059l.3.046c.046.008.142 0 .184.008.079.021.125.059.158.097a.256.256 0 0 1-.004.33.78.78 0 0 1-.342.218c-.229.083-.524.117-.683.138a8.203 8.203 0 0 1-.782.054c-.592.017-1.187 0-1.775.046a28.16 28.16 0 0 0-1.595.172c-.524.07-1.045.171-1.574.293-.887.204-1.749.493-2.628.727a19.45 19.45 0 0 1-1.861.394c-.4.058-.8.1-1.216.117-.17.008-.363.02-.55.025.192.113.383.213.579.314 1.333.699 2.836 1.196 4.381 1.519 1.55.322 3.144.472 4.64.48.016 0 .033.013.033.034 0 .013-.009.021-.021.033.008.009.012.021.008.021-.112.026-2.257.419-2.449.394-.054-.009-.978-.138-1.478-.256-.033-.008-.07-.02-.104-.02-.342-.072-.683-.151-1.016-.235-.27-.07-.55-.146-.816-.23-.621-.192-1.27-.376-1.87-.66a6.54 6.54 0 0 1-.354-.151c.125.46.179.932.145 1.405a3.89 3.89 0 0 1-.458 1.557c-.524.97-1.445 1.64-2.144 2.476-.275.335-.521.69-.683 1.113a4.812 4.812 0 0 0-.284 1.289 7.68 7.68 0 0 0 .038 1.343l.125.933c.008.096.012.192.02.292v.206-.047s-.062.218-.1.243c-.066.046-.153.088-.274.034a.5.5 0 0 1-.213-.23c-.087-.176-.166-.482-.195-.57-.138-.418-.288-.849-.396-1.288a5.726 5.726 0 0 1-.162-.912c-.138-1.648.262-3.2 1.003-4.602.712-1.343 1.737-2.544 2.89-3.565-.237-.113-.47-.23-.7-.347a.152.152 0 0 1-.1.034c-.19 0-.361.104-.511.242-.271.23-.5.548-.692.753-.47.498-.95.984-1.47 1.427-.35.297-.712.577-1.103.828a7.54 7.54 0 0 1-1.379.682c-1.09.41-2.244.611-3.373.983-1.674.544-3.827 1.293-4.631 2.753a4.12 4.12 0 0 0-.312.728c-.1.347-.48.08-.492.059 0-.009-.046-.071-.025-.176 0-.013.013-.067.021-.084l.046-.217.133-.477c1.083-3.761 3.39-5.527 7.122-6.853 1.911-.678 3.96-1.025 5.921-1.142-.133-.08-.262-.15-.395-.239a.176.176 0 0 1-.104-.012c-.013-.008-.034-.013-.046-.021a4.254 4.254 0 0 0-1.083-.084c-.604.017-1.216.13-1.79.243-.413.084-.834.163-1.246.255-.275.059-.541.126-.808.205-1.357.406-2.682.92-4.043 1.172-.93.171-1.874.217-2.861.033-1.183-.222-2.208-.782-3.086-1.535-1.296-1.105-2.29-2.615-3.074-4.067-.137-.255-.27-.51-.404-.774-.133-.255-.262-.519-.391-.782-.071-.15-.184-.322-.254-.494-.038-.1-.071-.2-.08-.297-.02-.171.084-.234.138-.263a.279.279 0 0 1 .27 0c.021.008.046.033.076.058.02.021.045.067.062.084l.133.15.354.46c.204.264.392.532.592.796.133.171.262.334.408.493.579.636 1.195 1.243 1.874 1.762.67.514 1.403.953 2.211 1.259a7.2 7.2 0 0 0 1.516.385c.783.113 1.574.125 2.395.15 1.024.034 2.044.067 3.065.097.674.02 1.357.033 2.04.033.754 0 1.662-.071 2.516-.008.237.016.47.046.7.096-.071-.046-.138-.096-.205-.147a.195.195 0 0 1-.145 0 16.09 16.09 0 0 0-2.64-1.096c-.9-.276-1.82-.468-2.8-.564-1.373-.139-2.764-.118-4.13-.264-.933-.1-1.854-.28-2.745-.632a5.783 5.783 0 0 1-1.632-.975c-.696-.585-1.258-1.309-1.841-2.096l-.879-1.171-.258-.393-.092-.163c-.012-.026-.045-.08-.058-.11a.177.177 0 0 1-.025-.087c-.02-.126.046-.2.1-.251.046-.034.15-.109.304-.017.22.122.42.289.62.469.409.385.775.857 1.158 1.209a4.435 4.435 0 0 0 2.02 1.1c.754.193 1.524.15 2.295.084.812-.071 1.628-.172 2.423-.096.413.037.82.12 1.22.28.559.217 1.071.498 1.55.807.716.46 1.387.992 2.103 1.498.491.347 1 .674 1.512.983.066.038.133.08.204.126a22.24 22.24 0 0 1-1.978-1.937 26.193 26.193 0 0 1-3.336-4.632 4.508 4.508 0 0 0-1.645-1.037c-.67-.243-1.408-.343-2.187-.343-.524 0-1.045.113-1.561.138a4.6 4.6 0 0 1-.417.008 7.762 7.762 0 0 1-2.22-.389c-.724-.25-1.403-.623-1.96-1.159A7.382 7.382 0 0 1 7 20.608c-.296-.426-.55-.87-.779-1.313a15.583 15.583 0 0 1-.937-2.184c-.012-.038-.025-.071-.037-.113-.034.008-.075.02-.113.025-.1.025-.204.058-.3.096-.158.059-.316.126-.474.188a5.48 5.48 0 0 1-.42.147c-.255.067-.367-.163-.376-.21a.306.306 0 0 1 .059-.217c.033-.046.15-.138.174-.163l.525-.427c.204-.159.412-.301.63-.427-.1-.405-.18-.815-.234-1.221a8.174 8.174 0 0 1-.063-.962c0-.322.025-.649.075-.963.013-.083.038-.368.1-.531.046-.138.125-.217.196-.251a.271.271 0 0 1 .329.071.24.24 0 0 1 .058.172c0 .02-.012.092-.02.113l-.009.163-.008.48c0 .29 0 .578.012.863.009.188.021.376.038.564.046.39.116.77.233 1.143.008 0 .013 0 .02-.009a6.38 6.38 0 0 1 1.53-.426c.932-.138 1.823 0 2.681.288 3.906 1.314 3.644 2.62 6.072 4.48-.258-.827-1.195-3.346-1.39-4.187a18.825 18.825 0 0 1-1.638-1 11.54 11.54 0 0 1-1.674-1.38 10.598 10.598 0 0 1-1.695-2.243 10.945 10.945 0 0 1-1.057-2.606 10.002 10.002 0 0 1-.275-1.69 9.398 9.398 0 0 1 .033-1.712c.02-.196.046-.389.08-.581.032-.197.074-.39.124-.577l.08-.348c.008-.033.02-.125.024-.159a.257.257 0 0 1 .034-.088c.066-.108.158-.138.233-.13.058 0 .191 0 .254.176a.62.62 0 0 1 .046.256c0 .138-.021.293-.021.406 0 .205 0 .405.02.61a6.421 6.421 0 0 0 .354 1.732c.205.574.463 1.138.713 1.653.291.598.641 1.184 1.028 1.749.58.853 1.241 1.669 1.87 2.451.225.276.47.544.708.829-.354-1.15-.683-2.247-.829-3.544-.137-1.196-.116-2.556.163-4.28.183-1.117.766-3.1 1.258-4.255.212-.497.424-.849.578-.966a.42.42 0 0 1 .35-.092c.104.02.213.088.288.222.112.192.17.652.17 1.255 0 1.615-.329 4.355-.4 5.016-.216 1.991-.374 3.376-.412 4.765a23.96 23.96 0 0 0 .046 2.293c.233-1.774.887-3.473 1.195-5.23.08-.46.138-.929.15-1.401a12.73 12.73 0 0 0 0-.891 5.578 5.578 0 0 0-.104-.87c-.037-.197-.125-.385-.183-.574 0-.02-.013-.037-.021-.058h.02s-.008-.071-.024-.067l-.013-.055c-.025-.125.034-.184.046-.2a.253.253 0 0 1 .17-.1.231.231 0 0 1 .176.045c.012.009.054.034.083.096 0 .009.02.055.025.067l.058.11.167.296c.1.172.192.343.275.515.083.175.162.355.229.544.241.665.445 1.35.566 2.05.075.472.113.945.084 1.435a9.036 9.036 0 0 1-.213 1.51c-.112.502-.262 1-.454 1.46-.354.854-.783 1.652-1.108 2.506-.137.356-.25.715-.333 1.096-.1.44-.204.908-.237 1.38 0 .06-.008.118-.008.176.033.16.066.31.1.469a.151.151 0 0 1-.013.096c.058.255.133.51.204.77.217.674.446 1.335.704 1.991-.1-.874-.054-1.74.091-2.602.342-2.058 1.22-4.083 1.845-6.079a9.523 9.523 0 0 0 .367-1.59c.079-.53.112-1.066.1-1.627 0-.146-.013-.293-.025-.44-.021-.22-.054-.451-.083-.673l-.055-.347-.02-.117a.247.247 0 0 0-.021-.084c-.013-.083.012-.13.012-.138a.258.258 0 0 1 .117-.13c.058-.033.125-.037.204-.008.02.008.1.034.146.138a13.161 13.161 0 0 1 .37 1.757c.125.87.18 1.75.225 2.607.059 1.196.088 2.384-.02 3.568-.071.791-.205 1.578-.425 2.36-.259.908-.554 1.807-.813 2.715-.17.598-.324 1.21-.44 1.82-.084.452-.172.966-.167 1.464 0 .138.008.276.024.41.167.293.342.582.513.866a7.609 7.609 0 0 1-.084-1.627c.055-.97.284-1.933.659-2.837.42-1.012.986-1.966 1.445-2.957.191-.415.362-.841.487-1.289a11.503 11.503 0 0 0 .47-2.991c0-.218.009-.448 0-.67 0-.146-.012-.288-.033-.435-.02-.146-.067-.326-.08-.493-.007-.1 0-.197.013-.285a.236.236 0 0 1 .192-.2.24.24 0 0 1 .246.07c.02.021.033.046.058.084.02.038.046.13.058.171l.196.394c.075.159.146.314.212.477.1.234.192.48.271.723.254.728.5 1.544.62 2.36.084.56.105 1.117.034 1.653a8.357 8.357 0 0 1-.708 2.372c-.766 1.703-1.916 3.259-2.482 5.058a9.204 9.204 0 0 0-.354 1.43 3.828 3.828 0 0 0-.038.754 27.661 27.661 0 0 0 1.95 2.393v-.009a4.136 4.136 0 0 1-.234-1.05 6.522 6.522 0 0 1 .125-2.033 7.057 7.057 0 0 1 .733-1.908l-.02.046-.009.025.02-.029Zm-15.93-6.405s1.308 2.075 3.415 2.64c2.108.569 3.544.531 4.531 1.025.987.502 2.187 1.13 2.187 1.13l-.154-.356s-2.203-2.414-3.732-2.97c-1.528-.557-3.144-.754-4.372-.921-1.233-.163-1.87-.556-1.87-.556l-.004.008Zm9.712-12.823c-.07-.008-.1-.025-.02-.059l.008.034.008.033.004-.008ZM9.874 45.89H0V34.017h.704V35.8a9.365 9.365 0 0 0 2.736 6.635 9.385 9.385 0 0 0 3.04 2.042c1.1.46 2.307.712 3.573.712h1.828v.706H9.878l-.004-.004Z" fill="#fff"/></svg>